<svg width="40" height="40" viewBox="0 0 40 40" fill="none" xmlns="http://www.w3.org/2000/svg">
<g clip-path="url(#clip0_162_551)">
<path d="M40 20.0004C40 31.0454 31.0454 40 20 40C8.95417 40 0 31.0454 0 20.0004C0 8.95458 8.95417 0 20 0C31.0458 0 40 8.95458 40 20.0004Z" fill="#FFF9ED"/>
<path d="M24.5335 16.2769C24.454 16.2032 24.3712 16.1331 24.284 16.067C24.1974 16.001 24.1075 15.939 24.0143 15.8811C23.9211 15.8231 23.8246 15.7698 23.7259 15.7205C23.6267 15.6712 23.5253 15.627 23.4216 15.5869C23.318 15.5472 23.2128 15.5122 23.1053 15.4817C22.9978 15.4517 22.8893 15.4263 22.7791 15.406C22.6689 15.3856 22.5582 15.3704 22.4463 15.3602C22.3345 15.3501 22.2226 15.345 22.1102 15.345C21.9984 15.345 21.8866 15.3501 21.7747 15.3602C21.6629 15.3704 21.5521 15.3856 21.4419 15.406C21.3317 15.4263 21.2232 15.4517 21.1157 15.4817C21.0083 15.5122 20.903 15.5472 20.7994 15.5869C20.6958 15.627 20.5943 15.6712 20.4951 15.7205C20.3964 15.7698 20.2999 15.8231 20.2067 15.8811C20.1135 15.939 20.0236 16.001 19.937 16.067C19.8498 16.1331 19.767 16.2032 19.6875 16.2769L18.7566 17.1417L17.8257 16.2769C17.7462 16.2032 17.6634 16.1331 17.5762 16.067C17.4896 16.001 17.3997 15.939 17.3065 15.8811C17.2133 15.8231 17.1168 15.7698 17.0181 15.7205C16.9189 15.6712 16.8175 15.627 16.7139 15.5869C16.6102 15.5472 16.505 15.5122 16.3975 15.4817C16.2901 15.4517 16.181 15.4263 16.0713 15.406C15.9611 15.3856 15.8504 15.3704 15.7385 15.3602C15.6267 15.3501 15.5148 15.3445 15.4025 15.3445C15.2906 15.3445 15.1782 15.3501 15.0669 15.3602C14.9551 15.3704 14.8443 15.3856 14.7341 15.406C14.6239 15.4263 14.5154 15.4517 14.4079 15.4817C14.3005 15.5122 14.1952 15.5472 14.0911 15.5869C13.9874 15.627 13.8866 15.6712 13.7873 15.7205C13.6881 15.7698 13.5921 15.8231 13.4989 15.8811C13.4057 15.939 13.3158 16.001 13.2287 16.067C13.142 16.1331 13.0593 16.2032 12.9798 16.2769C12.9003 16.3506 12.8252 16.4278 12.7539 16.5081C12.6826 16.5889 12.6157 16.6727 12.5538 16.7591C12.4913 16.846 12.4337 16.9349 12.3805 17.0269C12.3279 17.1189 12.2796 17.2129 12.2369 17.3094C12.1941 17.4055 12.1563 17.5035 12.1234 17.6031C12.0911 17.7032 12.0636 17.8038 12.0417 17.9065C12.0198 18.0086 12.0033 18.1113 11.9924 18.2154C11.9814 18.3191 11.9759 18.4227 11.9759 18.5269C11.9759 18.6316 11.9814 18.7352 11.9924 18.8389C12.0033 18.9426 12.0198 19.0457 12.0417 19.1478C12.0636 19.25 12.0911 19.3511 12.1234 19.4507C12.1563 19.5508 12.1941 19.6489 12.2369 19.7449C12.2796 19.8414 12.3279 19.9354 12.3805 20.0274C12.4337 20.1194 12.4913 20.2083 12.5538 20.2952C12.6157 20.3816 12.6826 20.4654 12.7539 20.5457C12.8252 20.6265 12.9003 20.7037 12.9798 20.7774L18.7566 26.1417L24.5335 20.7769C24.6124 20.7032 24.6881 20.626 24.7588 20.5452C24.8301 20.4649 24.897 20.3811 24.9595 20.2947C25.0214 20.2078 25.079 20.1184 25.1322 20.0269C25.1848 19.9349 25.233 19.8409 25.2758 19.7444C25.3186 19.6483 25.3564 19.5503 25.3893 19.4502C25.4216 19.3506 25.4491 19.25 25.471 19.1473C25.4929 19.0452 25.5094 18.9426 25.5203 18.8389C25.5313 18.7347 25.5368 18.6311 25.5368 18.5269C25.5368 18.4227 25.5313 18.3186 25.5203 18.2149C25.5094 18.1113 25.4929 18.0081 25.471 17.906C25.4491 17.8038 25.4216 17.7027 25.3893 17.6031C25.3564 17.5035 25.3186 17.4055 25.2758 17.3094C25.233 17.2129 25.1848 17.1189 25.1322 17.0269C25.079 16.9349 25.0214 16.846 24.9595 16.7591C24.897 16.6727 24.8301 16.5889 24.7588 16.5081C24.6881 16.4278 24.6124 16.3506 24.5335 16.2769Z" fill="#F68F27"/>
<mask id="mask0_162_551" style="mask-type:luminance" maskUnits="userSpaceOnUse" x="4" y="24" width="36" height="16">
<path d="M4.44301 24.2734H39.9518V40H4.44301V24.2734Z" fill="white"/>
</mask>
<g mask="url(#mask0_162_551)">
<path d="M7.76482 24.8623C7.76482 24.8623 6.26975 23.9045 5.31855 24.5025C4.60144 24.9538 4.0839 25.9502 5.29004 27.5905C6.43039 29.1423 10.7495 34.3003 16.0718 36.6499C17.1798 37.1392 19.034 37.4522 20.6996 37.3379L28.6596 36.3059C29.3334 36.2368 31.0093 36.2968 31.5236 36.7063L35.8536 39.8089C35.8997 39.842 35.949 39.8699 36.0017 39.8928C36.0537 39.9162 36.1086 39.9334 36.165 39.9456C36.2215 39.9573 36.2791 39.9634 36.3366 39.9639C36.3948 39.9644 36.4523 39.9588 36.5088 39.9477C36.5658 39.937 36.6206 39.9202 36.6733 39.8979C36.7264 39.8755 36.7758 39.8486 36.8224 39.8161C36.869 39.784 36.9112 39.7475 36.949 39.7068C36.9869 39.6662 37.0198 39.622 37.0477 39.5747L39.8728 34.7332C39.8728 34.7332 30.5247 28.0295 19.1393 30.6062C15.579 31.4116 12.7643 28.4248 12.7643 28.4248L7.76482 24.8623Z" fill="#F4E8E0"/>
</g>
<path d="M14.3635 28.2623C14.6924 28.215 15.096 28.2623 15.5302 28.3308C14.1442 27.3796 10.9457 25.2099 10.0938 24.8639C8.99782 24.4188 7.76317 24.8624 7.76317 24.8624C7.76317 24.8624 9.95122 26.4264 12.4748 28.9355C12.8832 28.6322 13.5 28.3857 14.3635 28.2623Z" fill="#DCC0A9"/>
<path d="M20.3542 28.3562C20.3542 28.3562 18.0171 29.2124 15.7649 28.9787C14.8373 28.8832 13.8559 28.5961 13.187 28.6916C10.0072 29.1459 9.92333 31.7902 13.0615 32.6306C15.5121 33.2871 17.6646 33.2399 19.6953 33.1794C22.9337 33.0829 24.4162 32.623 32.028 30.7134C30.971 29.5549 28.2967 25.871 20.3542 28.3562Z" fill="#DCC0A9"/>
<mask id="mask1_162_551" style="mask-type:luminance" maskUnits="userSpaceOnUse" x="11" y="27" width="29" height="8">
<path d="M11.8816 27.0051H40V34.8099H11.8816V27.0051Z" fill="white"/>
</mask>
<g mask="url(#mask1_162_551)">
<path d="M39.5625 33.7317C37.8059 32.8363 33.3898 30.4852 33.2062 30.284C32.148 29.126 29.4748 25.4415 21.5324 27.9268C21.5324 27.9268 19.1952 28.783 16.943 28.5497C16.0154 28.4537 15.034 28.1666 14.3651 28.2621C11.1853 28.7164 11.0675 30.7738 14.2056 31.6143C16.6557 32.2708 20.3109 32.5218 22.3794 32.6153C25.7232 32.7662 30.3531 30.5487 39.8739 34.7347C39.8991 34.692 39.92 34.6478 39.9359 34.6016C39.9518 34.5553 39.9627 34.5086 39.9682 34.4603C39.9743 34.412 39.9748 34.3638 39.9704 34.3155C39.966 34.2672 39.9567 34.2195 39.9425 34.1732C39.9277 34.1265 39.9085 34.0818 39.8843 34.0386C39.8608 33.9954 39.8323 33.9552 39.7999 33.9171C39.767 33.8795 39.7308 33.845 39.6908 33.8135C39.6508 33.7825 39.608 33.755 39.5625 33.7317Z" fill="#F4E8E0"/>
</g>
<mask id="mask2_162_551" style="mask-type:luminance" maskUnits="userSpaceOnUse" x="0" y="0" width="36" height="16">
<path d="M0.0921173 0H35.4605V15.8181H0.0921173V0Z" fill="white"/>
</mask>
<g mask="url(#mask2_162_551)">
<path d="M32.2374 15.1377C32.2374 15.1377 33.733 16.0956 34.6836 15.4975C35.4007 15.0468 35.9188 14.0498 34.7121 12.4081C33.5712 10.8567 29.2533 5.6982 23.9303 3.3486C22.8223 2.85927 20.9682 2.54626 19.3026 2.66059L11.3426 3.6921C10.6688 3.76171 8.99285 3.70226 8.47914 3.2922L4.14745 0.189557C4.1014 0.156529 4.05261 0.128582 3.99998 0.105716C3.94734 0.0828499 3.89307 0.0650655 3.8366 0.0533785C3.77958 0.0411834 3.72256 0.0350859 3.66445 0.0345777C3.60634 0.0340696 3.54932 0.0396591 3.4923 0.0508379C3.43583 0.0620168 3.38101 0.0782769 3.32783 0.100635C3.27519 0.122992 3.2253 0.149923 3.17925 0.182444C3.13265 0.214456 3.09044 0.251041 3.05261 0.291692C3.01423 0.332342 2.98134 0.376549 2.95392 0.423805L0.128265 5.26527C0.128265 5.26527 9.4764 11.9695 20.8618 9.3923C24.4221 8.58742 27.2368 11.5742 27.2368 11.5742L32.2374 15.1377Z" fill="#F4E8E0"/>
</g>
<path d="M25.6387 11.7378C25.3092 11.785 24.9068 11.7378 24.4715 11.6692C25.8564 12.6209 29.0554 14.7901 29.9074 15.1362C31.0028 15.5818 32.2374 15.1382 32.2374 15.1382C32.2374 15.1382 30.0494 13.5737 27.5258 11.0645C27.1173 11.3679 26.5006 11.6148 25.6387 11.7378Z" fill="#DCC0A9"/>
<path d="M19.648 11.6437C19.648 11.6437 21.9846 10.7875 24.2368 11.0213C25.165 11.1168 26.1464 11.4044 26.8152 11.3084C29.9945 10.8541 30.0789 8.20977 26.9402 7.36933C24.489 6.71282 22.3361 6.76008 20.3059 6.82106C17.068 6.9176 15.5855 7.37746 7.97313 9.28701C9.03069 10.445 11.7039 14.1295 19.648 11.6437Z" fill="#DCC0A9"/>
<mask id="mask3_162_551" style="mask-type:luminance" maskUnits="userSpaceOnUse" x="0" y="5" width="29" height="8">
<path d="M1.52588e-05 5.15143H28.1623V12.9563H1.52588e-05V5.15143Z" fill="white"/>
</mask>
<g mask="url(#mask3_162_551)">
<path d="M0.440389 6.26831C2.19642 7.16363 6.61309 9.51526 6.7962 9.71597C7.85431 10.874 10.5276 14.5584 18.4705 12.0732C18.4705 12.0732 20.8077 11.217 23.0594 11.4507C23.9875 11.5463 24.9683 11.8333 25.6372 11.7378C28.817 11.2836 28.9355 9.22664 25.7973 8.38569C23.3466 7.72918 19.6915 7.47817 17.623 7.38467C14.2798 7.23375 9.64982 9.45022 0.128437 5.26526C0.103218 5.30794 0.0829325 5.35215 0.0670333 5.39839C0.0511342 5.44463 0.0401691 5.49188 0.0341385 5.53965C0.0281078 5.58792 0.0275596 5.63619 0.0319455 5.68447C0.0363315 5.73274 0.0456517 5.7805 0.0604543 5.82674C0.0747086 5.87349 0.0938973 5.91821 0.11802 5.9614C0.142143 6.00459 0.170104 6.04473 0.202998 6.08284C0.235345 6.12044 0.271529 6.15499 0.311551 6.1865C0.351573 6.21749 0.394336 6.24493 0.440389 6.26831Z" fill="#F4E8E0"/>
</g>
</g>
<defs>
<clipPath id="clip0_162_551">
<rect width="40" height="40" fill="white"/>
</clipPath>
</defs>
</svg>
