<svg width="56" height="56" viewBox="0 0 56 56" fill="none" xmlns="http://www.w3.org/2000/svg">
<g clip-path="url(#clip0_479_4158)">
<rect width="56" height="56" rx="8" fill="#FFF9ED"/>
<path d="M35.1868 23.0085C35.0696 22.8998 34.9475 22.7964 34.8189 22.6989C34.6911 22.6015 34.5585 22.5101 34.421 22.4246C34.2836 22.3392 34.1412 22.2605 33.9957 22.1878C33.8493 22.1151 33.6997 22.0499 33.5469 21.9907C33.394 21.9322 33.2388 21.8805 33.0803 21.8355C32.9218 21.7913 32.7617 21.7538 32.5991 21.7238C32.4366 21.6939 32.2732 21.6714 32.1083 21.6564C31.9433 21.6414 31.7783 21.6339 31.6126 21.6339C31.4476 21.6339 31.2826 21.6414 31.1177 21.6564C30.9527 21.6714 30.7893 21.6939 30.6268 21.7238C30.4643 21.7538 30.3041 21.7913 30.1456 21.8355C29.9871 21.8805 29.8319 21.9322 29.679 21.9907C29.5262 22.0499 29.3766 22.1151 29.2302 22.1878C29.0847 22.2605 28.9424 22.3392 28.8049 22.4246C28.6674 22.5101 28.5348 22.6015 28.407 22.6989C28.2784 22.7964 28.1563 22.8998 28.0391 23.0085L26.666 24.2841L25.2929 23.0085C25.1756 22.8998 25.0535 22.7964 24.9249 22.6989C24.7971 22.6015 24.6645 22.5101 24.5271 22.4246C24.3896 22.3392 24.2473 22.2605 24.1017 22.1878C23.9553 22.1151 23.8057 22.0499 23.6529 21.9907C23.5001 21.9322 23.3448 21.8805 23.1863 21.8355C23.0278 21.7913 22.8669 21.7538 22.7051 21.7238C22.5426 21.6939 22.3792 21.6714 22.2143 21.6564C22.0493 21.6414 21.8843 21.6331 21.7186 21.6331C21.5536 21.6331 21.3878 21.6414 21.2237 21.6564C21.0587 21.6714 20.8954 21.6939 20.7328 21.7238C20.5703 21.7538 20.4102 21.7913 20.2517 21.8355C20.0932 21.8805 19.9379 21.9322 19.7842 21.9907C19.6314 22.0499 19.4826 22.1151 19.3362 22.1878C19.1899 22.2605 19.0484 22.3392 18.9109 22.4246C18.7734 22.5101 18.6408 22.6015 18.5122 22.6989C18.3845 22.7964 18.2623 22.8998 18.1451 23.0085C18.0278 23.1171 17.917 23.2311 17.8119 23.3495C17.7068 23.4687 17.6081 23.5923 17.5168 23.7197C17.4246 23.8479 17.3397 23.9791 17.2612 24.1147C17.1836 24.2504 17.1124 24.389 17.0494 24.5314C16.9863 24.6731 16.9305 24.8177 16.882 24.9646C16.8342 25.1123 16.7938 25.2607 16.7615 25.4121C16.7291 25.5627 16.7049 25.7141 16.6887 25.8678C16.6725 26.0207 16.6644 26.1736 16.6644 26.3272C16.6644 26.4816 16.6725 26.6345 16.6887 26.7874C16.7049 26.9403 16.7291 27.0924 16.7615 27.2431C16.7938 27.3937 16.8342 27.5429 16.882 27.6898C16.9305 27.8374 16.9863 27.9821 17.0494 28.1238C17.1124 28.2662 17.1836 28.4048 17.2612 28.5405C17.3397 28.6761 17.4246 28.8073 17.5168 28.9355C17.6081 29.0629 17.7068 29.1865 17.8119 29.305C17.917 29.4241 18.0278 29.538 18.1451 29.6467L26.666 37.5591L35.1868 29.646C35.3033 29.5373 35.4149 29.4234 35.5192 29.3042C35.6243 29.1858 35.723 29.0621 35.8152 28.9347C35.9066 28.8065 35.9915 28.6746 36.0699 28.5397C36.1475 28.4041 36.2187 28.2654 36.2818 28.123C36.3448 27.9813 36.4006 27.8367 36.4492 27.689C36.4969 27.5421 36.5373 27.3937 36.5697 27.2423C36.602 27.0917 36.6263 26.9403 36.6424 26.7874C36.6586 26.6338 36.6667 26.4809 36.6667 26.3272C36.6667 26.1736 36.6586 26.0199 36.6424 25.867C36.6263 25.7141 36.602 25.562 36.5697 25.4113C36.5373 25.2607 36.4969 25.1115 36.4492 24.9646C36.4006 24.8177 36.3448 24.6731 36.2818 24.5314C36.2187 24.389 36.1475 24.2504 36.0699 24.1147C35.9915 23.9791 35.9066 23.8479 35.8152 23.7197C35.723 23.5923 35.6243 23.4687 35.5192 23.3495C35.4149 23.2311 35.3033 23.1171 35.1868 23.0085Z" fill="#F68F27"/>
<mask id="mask0_479_4158" style="mask-type:luminance" maskUnits="userSpaceOnUse" x="5" y="34" width="53" height="24">
<path d="M5.55347 34.8032H57.9289V58H5.55347V34.8032Z" fill="white"/>
</mask>
<g mask="url(#mask0_479_4158)">
<path d="M10.453 35.6719C10.453 35.6719 8.2478 34.2591 6.84477 35.1413C5.78704 35.8068 5.02367 37.2766 6.80272 39.6959C8.48474 41.9849 14.8554 49.593 22.7059 53.0586C24.3402 53.7804 27.0751 54.2421 29.5318 54.0734L41.2728 52.5512C42.2666 52.4493 44.7387 52.5377 45.4972 53.1418L51.884 57.7182C51.952 57.7669 52.0248 57.8082 52.1024 57.8419C52.1792 57.8764 52.2601 57.9018 52.3434 57.9198C52.4267 57.9371 52.5116 57.9461 52.5965 57.9468C52.6822 57.9476 52.7671 57.9393 52.8504 57.9228C52.9345 57.9071 53.0154 57.8824 53.093 57.8494C53.1714 57.8164 53.2442 57.7767 53.313 57.7287C53.3817 57.6815 53.444 57.6275 53.4998 57.5676C53.5556 57.5076 53.6041 57.4424 53.6453 57.3727L57.8124 50.2315C57.8124 50.2315 44.0238 40.3435 27.2304 44.1442C21.9789 45.3321 17.8272 40.9266 17.8272 40.9266L10.453 35.6719Z" fill="#F4E8E0"/>
</g>
<path d="M20.1862 40.6868C20.6714 40.6171 21.2665 40.6868 21.907 40.788C19.8627 39.385 15.145 36.1846 13.8883 35.6742C12.2718 35.0177 10.4507 35.672 10.4507 35.672C10.4507 35.672 13.6781 37.9789 17.4003 41.6799C18.0028 41.2325 18.9125 40.869 20.1862 40.6868Z" fill="#DCC0A9"/>
<path d="M29.0226 40.8255C29.0226 40.8255 25.5753 42.0883 22.2533 41.7436C20.8851 41.6027 19.4375 41.1792 18.451 41.3201C13.7607 41.9902 13.637 45.8905 18.2658 47.1302C21.8805 48.0985 25.0553 48.0288 28.0506 47.9396C32.8274 47.7972 35.014 47.1189 46.2415 44.3023C44.6824 42.5935 40.7377 37.1597 29.0226 40.8255Z" fill="#DCC0A9"/>
<mask id="mask1_479_4158" style="mask-type:luminance" maskUnits="userSpaceOnUse" x="16" y="38" width="42" height="13">
<path d="M16.5253 38.8325H58V50.3447H16.5253V38.8325Z" fill="white"/>
</mask>
<g mask="url(#mask1_479_4158)">
<path d="M57.3547 48.7542C54.7637 47.4336 48.25 43.9657 47.9791 43.6689C46.4183 41.9608 42.4753 36.5263 30.7602 40.192C30.7602 40.192 27.3129 41.4549 23.9909 41.1109C22.6226 40.9692 21.1751 40.5458 20.1886 40.6867C15.4983 41.3567 15.3245 44.3914 19.9532 45.6311C23.5672 46.5994 28.9585 46.9697 32.0096 47.1076C36.9416 47.3302 43.7708 44.0594 57.814 50.2337C57.8512 50.1708 57.8819 50.1056 57.9054 50.0373C57.9288 49.9691 57.945 49.9002 57.9531 49.829C57.962 49.7578 57.9628 49.6866 57.9563 49.6154C57.9499 49.5442 57.9361 49.4737 57.9151 49.4055C57.8933 49.3366 57.865 49.2706 57.8294 49.2069C57.7946 49.1432 57.7526 49.084 57.7048 49.0278C57.6563 48.9723 57.603 48.9214 57.5439 48.8749C57.4849 48.8292 57.4218 48.7887 57.3547 48.7542Z" fill="#F4E8E0"/>
</g>
<mask id="mask2_479_4158" style="mask-type:luminance" maskUnits="userSpaceOnUse" x="-1" y="-1" width="53" height="24">
<path d="M-0.864136 -1H51.3043V22.3317H-0.864136V-1Z" fill="white"/>
</mask>
<g mask="url(#mask2_479_4158)">
<path d="M46.55 21.3282C46.55 21.3282 48.7561 22.741 50.1583 21.8588C51.216 21.194 51.9802 19.7235 50.2003 17.3019C48.5175 15.0137 42.1485 7.40485 34.2972 3.9392C32.6629 3.21744 29.928 2.75575 27.4713 2.92439L15.7303 4.44586C14.7364 4.54854 12.2644 4.46085 11.5066 3.85601L5.11739 -0.720394C5.04946 -0.769111 4.97749 -0.810333 4.89986 -0.84406C4.82223 -0.877787 4.74217 -0.904019 4.65888 -0.921258C4.57478 -0.939245 4.49068 -0.948239 4.40496 -0.948989C4.31924 -0.949738 4.23514 -0.941494 4.15104 -0.925005C4.06775 -0.908516 3.98688 -0.884532 3.90844 -0.851555C3.83081 -0.818577 3.75722 -0.778854 3.68929 -0.730887C3.62056 -0.683668 3.55829 -0.629705 3.50249 -0.569746C3.44589 -0.509786 3.39737 -0.44458 3.35693 -0.374878L-0.810913 6.76628C-0.810913 6.76628 12.9776 16.6551 29.7711 12.8537C35.0225 11.6665 39.1742 16.072 39.1742 16.072L46.55 21.3282Z" fill="#F4E8E0"/>
</g>
<path d="M36.8171 16.3133C36.3311 16.383 35.7375 16.3133 35.0955 16.2121C37.1381 17.6159 41.8567 20.8155 43.1133 21.3259C44.7291 21.9832 46.5502 21.3289 46.5502 21.3289C46.5502 21.3289 43.3228 19.0212 39.6005 15.3202C38.9981 15.7676 38.0883 16.1319 36.8171 16.3133Z" fill="#DCC0A9"/>
<path d="M27.9808 16.1745C27.9808 16.1745 31.4274 14.9116 34.7494 15.2564C36.1184 15.3973 37.5659 15.8215 38.5525 15.6798C43.2419 15.0098 43.3665 11.1094 38.7369 9.86979C35.1213 8.90144 31.9457 8.97114 28.9512 9.06108C24.1753 9.20349 21.9887 9.88178 10.7604 12.6984C12.3203 14.4065 16.2633 19.841 27.9808 16.1745Z" fill="#DCC0A9"/>
<mask id="mask3_479_4158" style="mask-type:luminance" maskUnits="userSpaceOnUse" x="-1" y="6" width="42" height="13">
<path d="M-1 6.59836H40.5394V18.1106H-1V6.59836Z" fill="white"/>
</mask>
<g mask="url(#mask3_479_4158)">
<path d="M-0.350455 8.24573C2.23969 9.56634 8.75428 13.035 9.02437 13.331C10.5851 15.0391 14.5281 20.4737 26.244 16.8079C26.244 16.8079 29.6914 15.545 33.0125 15.8898C34.3816 16.0307 35.8283 16.4542 36.8149 16.3133C41.5051 15.6432 41.6798 12.6093 37.051 11.3689C33.4363 10.4005 28.0449 10.0303 24.9938 9.89237C20.0626 9.66977 13.2335 12.9391 -0.810584 6.76624C-0.847783 6.82919 -0.877703 6.8944 -0.901155 6.9626C-0.924606 7.03081 -0.940779 7.10051 -0.949674 7.17096C-0.95857 7.24216 -0.959378 7.31336 -0.952909 7.38457C-0.94644 7.45577 -0.932692 7.52622 -0.910858 7.59442C-0.889833 7.66338 -0.86153 7.72933 -0.825949 7.79304C-0.790368 7.85675 -0.749126 7.91596 -0.700606 7.97217C-0.652895 8.02763 -0.599523 8.0786 -0.540491 8.12506C-0.481459 8.17078 -0.418383 8.21126 -0.350455 8.24573Z" fill="#F4E8E0"/>
</g>
</g>
<defs>
<clipPath id="clip0_479_4158">
<rect width="56" height="56" rx="8" fill="white"/>
</clipPath>
</defs>
</svg>
