<svg width="57" height="56" viewBox="0 0 57 56" fill="none" xmlns="http://www.w3.org/2000/svg">
<g clip-path="url(#clip0_479_4186)">
<rect x="0.666626" width="56" height="56" rx="8" fill="#FFF9ED"/>
<path d="M6.079 34.7523C9.13965 29.3457 11.7845 24.838 11.9297 24.7822C12.0337 24.7425 20.9382 24.7303 31.7177 24.7547L51.317 24.7991L48.439 29.7967L45.5618 34.7951L25.7829 34.8387C14.9055 34.8631 6.03848 34.8242 6.079 34.7523Z" fill="#F4E8E0" fill-opacity="0.9961"/>
<path d="M18.634 28.506H38.7622C38.8424 28.506 38.9196 28.5212 38.9938 28.5518C39.0679 28.5824 39.1337 28.6267 39.1902 28.6833C39.2476 28.7399 39.2911 28.8056 39.3217 28.8797C39.3523 28.9547 39.3676 29.0319 39.3676 29.1121V30.4766C39.3676 30.5568 39.3523 30.6348 39.3217 30.709C39.2911 30.7831 39.2476 30.8488 39.1902 30.9054C39.1337 30.962 39.0679 31.0063 38.9938 31.0369C38.9196 31.0675 38.8424 31.0827 38.7622 31.0827H18.634C18.5537 31.0827 18.4765 31.0675 18.4024 31.0369C18.3282 31.0063 18.2625 30.962 18.2059 30.9054C18.1493 30.8488 18.1058 30.7831 18.0752 30.709C18.0446 30.6348 18.0286 30.5568 18.0286 30.4766V29.1121C18.0286 29.0319 18.0446 28.9547 18.0752 28.8797C18.1058 28.8056 18.1493 28.7399 18.2059 28.6833C18.2625 28.6267 18.3282 28.5824 18.4024 28.5518C18.4765 28.5212 18.5537 28.506 18.634 28.506Z" fill="#665135" fill-opacity="0.9961"/>
<mask id="mask0_479_4186" style="mask-type:luminance" maskUnits="userSpaceOnUse" x="6" y="34" width="40" height="30">
<path d="M6 34.6233H45.7244V63.1736H6V34.6233Z" fill="white"/>
</mask>
<g mask="url(#mask0_479_4186)">
<path d="M6.14404 34.6454H45.6429V63.1048H6.14404V34.6454Z" fill="#F68F27" fill-opacity="0.9961"/>
</g>
<mask id="mask1_479_4186" style="mask-type:luminance" maskUnits="userSpaceOnUse" x="45" y="24" width="7" height="40">
<path d="M45.5283 24.6432H51.3989V63.1736H45.5283V24.6432Z" fill="white"/>
</mask>
<g mask="url(#mask1_479_4186)">
<path d="M45.5371 48.8571V34.4979L48.0994 30.046C49.5082 27.5976 50.865 25.2066 51.0469 24.9077C51.368 24.3787 51.3213 24.8894 51.3221 38.9031L51.3229 53.2975L48.5083 58.1782C46.9604 60.8628 45.6586 63.0948 45.6151 63.1376C45.5723 63.1812 45.5371 56.7541 45.5371 48.8571Z" fill="#665135" fill-opacity="0.9961"/>
</g>
<mask id="mask2_479_4186" style="mask-type:luminance" maskUnits="userSpaceOnUse" x="26" y="3" width="24" height="24">
<path d="M26.3513 3H49.051V26.6001H26.3513V3Z" fill="white"/>
</mask>
<g mask="url(#mask2_479_4186)">
<path d="M39.1104 3C39.0003 6.97947 48.1632 5.79388 49.0017 7.32421C49.3052 7.87687 43.0493 14.2871 42.3568 15.4712C36.7866 24.9887 42.4554 29.6906 30.945 24.2343C30.0324 23.8016 26.4358 23.3996 26.4962 22.4677C26.7882 17.9196 36.7652 7.88223 39.1104 3Z" fill="#665135"/>
</g>
<path d="M39.2263 11.3609C39.305 11.4167 39.3791 11.4779 39.4479 11.5459C39.5175 11.6132 39.5825 11.6873 39.6421 11.766C39.7017 11.8455 39.756 11.9304 39.8049 12.0206C39.8546 12.1108 39.8982 12.2056 39.9364 12.3057C39.9746 12.4059 40.0075 12.5106 40.0342 12.6191C40.0617 12.7284 40.0824 12.8416 40.0984 12.9585C40.1137 13.0755 40.1237 13.1955 40.1275 13.3193C40.1313 13.4431 40.129 13.57 40.1214 13.6992C40.1137 13.8284 40.1 13.9599 40.0809 14.0936C40.061 14.2274 40.0358 14.3627 40.0052 14.4995C39.9746 14.6364 39.9379 14.774 39.8959 14.9123C39.8538 15.0514 39.8064 15.1898 39.7537 15.3289C39.7009 15.468 39.6429 15.6064 39.5802 15.744C39.5167 15.8823 39.4495 16.0192 39.3768 16.1552C39.3042 16.2905 39.227 16.4251 39.1452 16.5573C39.0634 16.6896 38.9778 16.8195 38.8884 16.9464C38.799 17.074 38.7057 17.1986 38.6086 17.3202C38.5115 17.441 38.4114 17.5587 38.3082 17.6733C38.205 17.7872 38.0988 17.8973 37.9902 18.0028C37.8817 18.109 37.7708 18.2099 37.6577 18.3063C37.5453 18.4033 37.4307 18.4943 37.3145 18.5807C37.1983 18.6671 37.0813 18.7473 36.9629 18.8222C36.8444 18.8979 36.7259 18.9667 36.6067 19.0301C36.4874 19.0936 36.3682 19.1502 36.2497 19.2014C36.1304 19.2518 36.012 19.2962 35.8942 19.3344C35.7773 19.3726 35.6603 19.4032 35.5457 19.4284C35.4302 19.4529 35.3171 19.4704 35.2055 19.4819C35.0939 19.4926 34.9846 19.4972 34.8776 19.4949C34.7706 19.4918 34.6666 19.4827 34.5649 19.4666C34.464 19.4506 34.3662 19.4276 34.2714 19.3978C34.1766 19.3688 34.0857 19.3321 33.9985 19.2893C33.9121 19.2465 33.8288 19.1975 33.7501 19.1417C33.6721 19.0867 33.598 19.0248 33.5284 18.9575C33.4589 18.8895 33.3946 18.8161 33.335 18.7366C33.2754 18.6571 33.2211 18.5723 33.1714 18.4821C33.1225 18.3926 33.0789 18.2971 33.0407 18.1969C33.0017 18.0968 32.9696 17.9929 32.9421 17.8835C32.9154 17.7742 32.894 17.6611 32.8787 17.5442C32.8626 17.4272 32.8534 17.3072 32.8489 17.1834C32.845 17.0595 32.8473 16.9334 32.855 16.8034C32.8634 16.6743 32.8764 16.5428 32.8963 16.409C32.9154 16.2752 32.9406 16.1399 32.9719 16.0031C33.0025 15.8663 33.0392 15.7287 33.0812 15.5903C33.1233 15.452 33.1707 15.3129 33.2234 15.1737C33.2762 15.0346 33.3335 14.8963 33.3969 14.7587C33.4596 14.6203 33.5276 14.4835 33.6003 14.3474C33.6729 14.2121 33.7501 14.0776 33.8311 13.9454C33.9129 13.8131 33.9985 13.6832 34.088 13.5563C34.1782 13.4286 34.2714 13.304 34.3677 13.1832C34.4648 13.0617 34.5649 12.944 34.6681 12.8293C34.7713 12.7154 34.8776 12.6054 34.9861 12.4999C35.0947 12.3936 35.2055 12.2927 35.3186 12.1964C35.4318 12.1001 35.5464 12.0084 35.6626 11.922C35.778 11.8364 35.8958 11.7553 36.0135 11.6804C36.132 11.6055 36.2504 11.536 36.3697 11.4725C36.4889 11.4098 36.6082 11.3525 36.7274 11.3013C36.8459 11.2508 36.9644 11.2065 37.0821 11.1683C37.1998 11.1308 37.316 11.0995 37.4314 11.0743C37.5469 11.0498 37.66 11.0322 37.7716 11.0208C37.8832 11.0101 37.9925 11.0055 38.0995 11.0085C38.2065 11.0108 38.3105 11.02 38.4114 11.036C38.5131 11.0521 38.6109 11.075 38.7057 11.1048C38.7997 11.1347 38.8907 11.1706 38.9778 11.2134C39.065 11.2562 39.1475 11.3051 39.2263 11.3609Z" fill="#F4E8E0"/>
<path d="M32.673 55.4662L28.8945 55.8805L26.0349 58.3388L23.0706 55.9554L19.3136 55.668L18.9 51.8827L16.4463 49.0177L18.8251 46.048L19.1125 42.2841L22.8909 41.8698L25.7506 39.4115L28.7141 41.7949L32.4719 42.0823L32.8855 45.8676L35.3392 48.7326L32.9596 51.7023L32.673 55.4662Z" fill="#665135"/>
<path d="M35.4444 14.6456C34.8474 14.6105 34.278 15.0752 34.0601 15.8274C34.0456 15.8763 34.0418 15.926 34.0471 15.9765C34.0525 16.0277 34.067 16.0751 34.0914 16.1202C34.1151 16.1645 34.1472 16.2035 34.187 16.2356C34.226 16.2677 34.2703 16.2906 34.3185 16.3059C34.9881 16.5092 35.6638 16.8746 36.377 17.1651C36.4244 17.185 36.4733 17.1941 36.5245 17.1941C36.5757 17.1934 36.6247 17.1834 36.6721 17.1636C36.7194 17.1437 36.7607 17.1154 36.7967 17.0787C36.8326 17.0428 36.8601 17.0007 36.8792 16.9534C36.8991 16.9052 36.9083 16.8563 36.9083 16.8051C36.9083 16.7531 36.8976 16.7042 36.8777 16.6568C36.8578 16.6094 36.8303 16.5673 36.7936 16.5314C36.7569 16.4955 36.7149 16.468 36.6675 16.4481C36.5826 16.4137 36.4802 16.3716 36.3938 16.3342C36.6728 16.2455 36.9625 16.1469 37.2201 16.0965C37.2706 16.0873 37.3172 16.0682 37.36 16.0399C37.4021 16.0116 37.438 15.9757 37.467 15.9336C37.4953 15.8908 37.5144 15.845 37.5251 15.7945C37.5351 15.7441 37.5351 15.6936 37.5259 15.6432C37.516 15.5935 37.4968 15.5469 37.4686 15.5041C37.4403 15.4612 37.4051 15.4253 37.3623 15.3963C37.3203 15.368 37.2736 15.3489 37.224 15.3382C37.1735 15.3282 37.1238 15.3275 37.0734 15.3374C36.7447 15.4009 36.4573 15.5041 36.1607 15.5988C36.1568 15.459 36.2295 15.2893 36.179 15.1662C36.0521 14.8612 35.7433 14.6632 35.4444 14.6456ZM35.3993 15.4177C35.4536 15.4207 35.4437 15.4093 35.4651 15.462C35.4849 15.5086 35.4811 15.686 35.4116 15.9252C35.2686 15.8633 35.1348 15.8052 34.9866 15.7487C35.144 15.5385 35.3229 15.4131 35.3993 15.4177Z" fill="#665135"/>
<path d="M37.433 13.1606C37.1066 13.0551 36.729 13.0398 36.3927 13.2324C36.0563 13.4251 35.8476 13.8661 35.9118 14.363C35.9203 14.4272 35.9432 14.4861 35.9806 14.5388C36.0181 14.5916 36.0663 14.6321 36.1244 14.6603C36.7626 14.9722 37.4009 15.2841 38.0392 15.596C38.085 15.6181 38.134 15.6311 38.1852 15.6342C38.2364 15.6373 38.2861 15.6304 38.3342 15.6136C38.3832 15.5967 38.426 15.5715 38.4642 15.5371C38.5032 15.5027 38.533 15.463 38.5551 15.4163C38.5781 15.3705 38.5903 15.3223 38.5934 15.2711C38.5964 15.2199 38.5895 15.1702 38.5727 15.122C38.5567 15.0731 38.5314 15.0303 38.4971 14.9913C38.4634 14.9531 38.4237 14.9233 38.3778 14.9004C38.2287 14.8278 38.0797 14.7551 37.9306 14.6825C37.9956 14.6084 38.0919 14.5465 38.134 14.4624C38.2295 14.2697 38.2509 14.0442 38.1943 13.8539C38.0805 13.4725 37.7594 13.2661 37.433 13.1606ZM37.196 13.8959C37.3566 13.9472 37.4498 14.0565 37.4544 14.0741C37.4575 14.0825 37.4636 14.0771 37.4445 14.1161C37.4246 14.1551 37.3642 14.2353 37.2281 14.3317C37.2274 14.3339 37.2274 14.3362 37.2266 14.3385C37.0584 14.2567 36.891 14.1742 36.7229 14.0924C36.742 14.0381 36.7351 13.9281 36.7756 13.9051C36.8528 13.8608 37.0355 13.844 37.196 13.8959Z" fill="#665135"/>
</g>
<defs>
<clipPath id="clip0_479_4186">
<rect x="0.666626" width="56" height="56" rx="8" fill="white"/>
</clipPath>
</defs>
</svg>
