<svg width="56" height="56" viewBox="0 0 56 56" fill="none" xmlns="http://www.w3.org/2000/svg">
<g clip-path="url(#clip0_479_4355)">
<rect width="56" height="56" rx="8" fill="#FFF9ED"/>
<mask id="mask0_479_4355" style="mask-type:luminance" maskUnits="userSpaceOnUse" x="6" y="14" width="82" height="57">
<path d="M6 14H87.4928V70.23H6V14Z" fill="white"/>
</mask>
<g mask="url(#mask0_479_4355)">
<path fill-rule="evenodd" clip-rule="evenodd" d="M23.0151 16.4988C23.0151 16.4988 26.799 15.5682 29.3724 15.537C29.3724 15.537 23.5482 13.1364 16.4171 14.7663L16.2356 15.5379C16.2356 15.5379 13.9598 15.3119 12.2691 15.9388C12.2691 15.9388 8.62111 17.5839 7.98528 20.5006C7.98528 20.5006 7.31936 23.7657 6.46674 25.5205C6.46674 25.5205 5.84128 27.6558 6.36094 29.667C6.36094 29.667 7.33596 31.5139 9.12625 32.1212C9.12625 32.1212 10.9383 32.7222 12.8386 31.6845L16.8963 31.5273L17.2013 30.7414L17.862 30.7655C17.862 30.7655 18.2717 31.4576 17.5612 32.5275L17.1816 32.9267C17.1816 32.9267 18.6098 33.5858 19.8048 33.2973L20.4188 32.9937L22.2164 33.0124C22.2164 33.0124 23.4746 32.7731 25.0522 35.6086L28.3403 40.6088C28.3403 40.6088 30.0207 43.7989 31.3846 45.4367C31.3846 45.4367 32.9343 46.7701 34.1603 47.5712L34.3159 49.2466C34.3159 49.2466 35.1644 49.8235 35.0679 50.9478C35.0679 50.9478 35.2256 54.3352 35.6083 55.7498C35.6083 55.7498 36.5782 56.8653 36.5668 58.4424C36.5668 58.4424 36.4869 61.0805 35.8656 62.5863C35.8656 62.5863 34.5379 65.3494 34.1717 66.1281C34.1717 66.1281 37.0314 66.4291 38.3228 66.2174C38.3228 66.2174 37.8778 67.3472 37.2451 68.9502C37.2451 68.9502 37.4412 69.6995 37.6725 70.2237L42.2965 69.9397L42.4729 68.9556C42.4729 68.9556 42.4947 67.6714 43.5651 66.8024L43.2809 60.5251C43.2809 60.5251 43.9333 58.1826 45.3907 57.5967C45.3907 57.5967 45.5545 56.3786 46.2039 55.356C46.2039 55.356 46.5825 52.2794 46.3626 50.6067C46.3626 50.6067 48.4215 47.3765 48.992 46.3557C48.992 46.3557 59.8769 46.9398 63.3113 46.4593C63.3113 46.4593 67.7393 45.4475 69.263 44.8625C69.263 44.8625 72.8861 48.5625 73.55 49.3126L73.1506 58.905C73.1506 58.905 73.5645 59.8526 75.361 59.4007C75.361 59.4007 75.4762 57.8941 76.7343 57.193L77.5652 54.1575L78.478 48.8045C78.478 48.8045 79.2466 47.23 81.347 50.3084L83.3261 53.4359L83.4609 59.674C83.4609 59.674 82.3977 62.0326 83.7628 62.3264L86.4669 62.2031L86.693 59.7329L87.2936 58.6996L87.4948 49.1653L84.8923 46.5575L84.8965 40.3758C84.8965 40.3758 85.5468 37.1196 84.9795 35.9194C84.9795 35.9194 84.2845 33.3161 84.6921 31.9533C84.6921 31.9533 85.4058 29.6081 84.8934 27.9273C84.8934 27.9273 86.553 23.9041 83.156 21.1293C83.156 21.1293 80.4342 20.4578 79.7382 22.5975L81.904 24.9883C81.904 24.9883 82.6405 27.5076 79.1874 27.1798C79.1874 27.1798 75.7853 24.0898 68.2237 25.224L52.807 27.5246C52.807 27.5246 45.5131 28.7177 36.3759 24.857C36.3759 24.857 28.8828 22.2841 23.0151 16.4988Z" fill="#F4E8E0"/>
</g>
<path fill-rule="evenodd" clip-rule="evenodd" d="M16.2356 15.5379C16.2356 15.5379 13.769 15.061 12.5098 16.5443C12.5098 16.5443 11.5918 17.4178 11.3315 20.3702C11.3315 20.3702 10.345 24.7257 10.4353 25.4848C10.4353 25.4848 10.3544 26.736 11.792 27.6969C11.792 27.6969 12.6789 28.2551 11.8885 29.1839C11.8885 29.1839 12.7307 29.4473 12.8106 29.9796L13.7649 31.3272L16.9876 31.4174L17.2272 30.5672L17.9118 30.753L17.9045 32.1703L17.5882 32.9937C17.5882 32.9937 18.7592 33.6099 20.367 33.1285C20.367 33.1285 22.3855 32.106 23.7007 33.9537L26.1984 37.3572L28.3268 40.4883L28.4482 39.0862L29.4523 39.0549L30.6544 37.8314L31.7612 37.8493C31.7612 37.8493 35.6561 31.5067 35.9704 25.1124C35.9704 25.1124 30.2302 22.0411 28.6961 21.0213C28.6961 21.0213 25.1539 18.034 23.3843 16.8649L24.2722 15.7558C24.2722 15.7558 20.4717 15.3405 18.6078 17.3526C18.6078 17.3526 17.5633 16.0764 16.2356 15.5379Z" fill="#F68F27"/>
<path fill-rule="evenodd" clip-rule="evenodd" d="M6.45511 28.7159L6.7694 29.459L7.42909 29.4884L7.9612 29.0178L8.71632 29.2411L8.4736 30.3422L7.7859 30.5682L7.69774 31.0495C7.69774 31.0495 7.14281 30.9165 6.66774 30.06C6.66774 30.06 6.29537 29.4277 6.45511 28.7159Z" fill="#F68F27"/>
<path fill-rule="evenodd" clip-rule="evenodd" d="M8.4624 31.588C8.4624 31.588 10.0411 31.2433 12.0368 29.6626C12.0368 29.6626 12.8064 29.5117 12.0637 30.1886C12.0637 30.1886 10.762 31.2558 10.1293 31.4907C10.1293 31.4907 9.54529 31.947 8.4624 31.588Z" fill="#F68F27"/>
<path fill-rule="evenodd" clip-rule="evenodd" d="M17.2604 21.976L18.8039 19.8737L20.2539 19.8085L21.565 18.0411C21.565 18.0411 22.9695 18.3367 23.7557 20.1032C23.7557 20.1032 25.2846 21.5911 25.406 24.7945L25.2234 28.2989C25.2234 28.2989 23.9611 31.5621 20.4738 33.2107C20.4738 33.2107 18.7945 33.6742 17.2386 32.9098L18.2697 29.6867C18.2697 29.6867 17.6816 28.6257 17.3984 27.2174L17.2604 21.976Z" fill="#F4E8E0"/>
<path fill-rule="evenodd" clip-rule="evenodd" d="M34.4736 47.7025L34.3574 48.9992C34.3574 48.9992 35.2443 49.8172 35.4154 50.9702L35.9299 51.4605L38.885 51.4399C38.885 51.4399 39.247 52.4536 39.9181 52.6724L40.082 51.7766L39.7459 51.1604L39.7096 49.1233C39.7096 49.1233 38.3591 48.3785 37.8499 47.8016L37.8312 47.3667L35.2858 45.6091L36.0772 47.3319L36.0606 47.6784L34.4736 47.7025Z" fill="#DCC0A9"/>
<path fill-rule="evenodd" clip-rule="evenodd" d="M49.1611 44.6097C49.1611 44.6097 48.9163 45.6385 48.9505 46.3173C48.9505 46.3173 57.8647 47.0049 63.0862 46.411C63.0862 46.411 67.2332 45.2251 68.5505 44.8669L68.3897 44.1543C68.3897 44.1543 72.1477 40.9142 72.8685 36.3364C72.8685 36.3364 70.3439 40.8785 67.98 42.3333L67.0724 43.2728L64.7178 43.6095L63.248 44.783L63.4337 45.8047C63.4337 45.8047 54.838 46.2637 49.1611 44.6097Z" fill="#DCC0A9"/>
<path fill-rule="evenodd" clip-rule="evenodd" d="M40.0095 54.1969L39.158 55.5588L38.8126 60.601L38.7057 65.3673L39.4028 64.2581L40.1008 63.2597L41.1028 62.9149L39.8322 62.8676L39.7326 61.7397L43.0404 59.006C43.0404 59.006 40.3404 57.0475 40.2243 57.1011C40.1081 57.1538 39.6693 56.4027 39.8218 55.4945L40.0095 54.1969Z" fill="#DCC0A9"/>
</g>
<defs>
<clipPath id="clip0_479_4355">
<rect width="56" height="56" rx="8" fill="white"/>
</clipPath>
</defs>
</svg>
