<svg width="57" height="56" viewBox="0 0 57 56" fill="none" xmlns="http://www.w3.org/2000/svg">
<g clip-path="url(#clip0_479_4210)">
<rect x="0.333374" width="56" height="56" rx="8" fill="#FFF9ED"/>
<path fill-rule="evenodd" clip-rule="evenodd" d="M35.0279 19.5557C35.0507 19.5738 35.1276 19.6266 35.1661 19.6471C35.2154 19.6759 35.2634 19.6939 35.3043 19.7035C35.4052 19.7288 35.4929 19.7143 35.5662 19.6807C35.6528 19.6398 35.7357 19.5713 35.7777 19.4356C35.8342 19.2469 35.7285 19.0474 35.541 18.9909C35.505 18.9789 35.4689 18.9741 35.4341 18.9741C35.3776 18.9381 35.3055 18.8972 35.267 18.884L34.6506 18.7158C34.2516 18.6208 28.4644 18.2928 24.1385 18.3324C21.9959 18.3517 20.2067 18.4718 19.5638 18.7314C19.3811 18.8059 19.2922 19.0138 19.3667 19.1952C19.44 19.3779 19.6479 19.4656 19.8305 19.3923C20.5828 19.0895 22.9861 19.0246 25.6297 19.045C29.6156 19.0751 34.1387 19.3274 34.4859 19.4091L35.0279 19.5557ZM35.1012 19.2096C35.0988 19.2157 35.0964 19.2205 35.0952 19.2265L35.1012 19.2096Z" fill="#665135"/>
<path fill-rule="evenodd" clip-rule="evenodd" d="M15.9565 9.17339C16.0407 9.04241 17.3204 9.06885 17.7542 9.04962C18.8381 9.00035 19.9256 8.93907 21.0011 9.13374C21.7894 9.27553 22.5224 9.63603 23.3299 9.6829C24.302 9.73937 25.2514 9.44497 26.2115 9.35845C27.1668 9.27313 28.1041 9.38488 29.0582 9.34763C30.4894 9.28995 31.7727 9.06164 33.2231 9.23468C34.0944 9.33682 34.9031 9.53749 35.6217 10.0446C35.6781 10.0855 36.1936 10.4568 36.1864 10.5397C36.1792 10.613 35.4618 10.8521 35.3909 10.8858C34.4969 11.3027 33.6594 11.7534 32.823 12.2773C30.225 13.9031 27.3903 15.0531 24.3057 15.2478C23.0091 15.3295 21.4746 15.249 20.3931 14.4222" fill="#665135" fill-opacity="0.902"/>
<path fill-rule="evenodd" clip-rule="evenodd" d="M21.5499 19.2553C-1.13735 38.042 -3.79061 56.991 28.5147 56.6509C51.9579 56.4046 57.6982 36.0629 33.6314 19.7696C33.2901 17.3579 33.9691 15.2983 36.2354 11.3448C36.7593 9.38132 33.5797 9.53874 29.6058 12.3013C29.1588 11.0817 28.3381 10.4893 26.9958 10.7716C24.7884 10.4292 22.9042 11.0624 21.1834 12.2004C20.8926 9.88482 18.6744 9.31042 15.9947 9.1506C17.3862 13.336 19.2403 16.7006 21.5499 19.2553Z" fill="#F68F27"/>
<mask id="mask0_479_4210" style="mask-type:luminance" maskUnits="userSpaceOnUse" x="11" y="9" width="26" height="12">
<path d="M11.9034 9.01596H36.821V20.7057H11.9034V9.01596Z" fill="white"/>
</mask>
<g mask="url(#mask0_479_4210)">
<mask id="mask1_479_4210" style="mask-type:luminance" maskUnits="userSpaceOnUse" x="-1" y="5" width="53" height="56">
<path d="M-0.44873 11.4265L44.17 5.11295L51.0543 53.8005L6.43676 60.114L-0.44873 11.4265Z" fill="white"/>
</mask>
<g mask="url(#mask1_479_4210)">
<mask id="mask2_479_4210" style="mask-type:luminance" maskUnits="userSpaceOnUse" x="4" y="9" width="46" height="48">
<path fill-rule="evenodd" clip-rule="evenodd" d="M21.5502 19.2552C-1.13711 38.042 -3.79036 56.9909 28.515 56.6508C51.9581 56.4045 57.6984 36.0628 33.6316 19.7696C33.2904 17.3578 33.9693 15.2982 36.2356 11.3447C36.7596 9.38123 33.58 9.53865 29.6061 12.3013C29.1591 11.0816 28.3383 10.4892 26.9961 10.7715C24.7886 10.4291 22.9044 11.0623 21.1837 12.2003C20.8929 9.88473 18.6746 9.31033 15.9949 9.15051C17.3864 13.3359 19.2406 16.7005 21.5502 19.2552Z" fill="white"/>
</mask>
<g mask="url(#mask2_479_4210)">
<path fill-rule="evenodd" clip-rule="evenodd" d="M16.3818 8.51603C16.3289 8.498 16.3866 8.79121 16.3878 8.79601C16.4418 9.11325 16.5404 9.42448 16.6401 9.7297C16.9141 10.5781 17.2518 11.412 17.6099 12.2279C18.588 14.4606 19.8029 16.6056 21.4251 18.4321C21.6907 18.7313 21.9659 19.0233 22.2567 19.2973C22.4369 19.4667 22.6244 19.629 22.819 19.7792C24.6708 21.2079 23.8465 17.9983 23.7071 17.1824C23.6878 17.067 23.4619 15.9495 23.7768 15.9867C24.0471 16.0192 24.2803 16.4698 24.3956 16.6681C24.8234 17.4059 25.1394 18.2242 25.4423 19.0197C25.4867 19.1387 25.7559 20.1445 25.9397 20.1228C26.0839 20.1048 26.0972 19.3165 26.1068 19.218C26.1657 18.5559 26.2378 17.8938 26.3063 17.2328C26.3219 17.0778 26.3038 16.5635 26.4637 16.4602C26.5634 16.3965 26.7184 17.0514 26.7304 17.0971C26.9083 17.8265 26.9828 18.5739 27.1054 19.3117C27.1138 19.361 27.2207 20.1505 27.3793 20.0279C27.7146 19.7707 27.8179 18.7109 27.8828 18.3408C28.2385 16.3184 27.896 14.3092 27.1426 12.425C26.9023 11.8194 26.6391 11.2198 26.3615 10.6297C26.3111 10.5192 26.0467 10.1118 26.1236 9.97964C26.1669 9.90755 26.442 10.2524 26.4601 10.2741C26.8218 10.7259 27.0933 11.245 27.3781 11.7473C28.4019 13.5546 29.0833 15.5686 29.3344 17.6342C29.4161 18.3071 29.4522 18.9885 29.4726 19.6638C29.4738 19.7203 29.5183 20.5698 29.5303 20.5638C29.6336 20.5182 29.6709 19.9846 29.6889 19.8921C29.8079 19.2312 29.91 18.5667 30.0506 17.9106C30.077 17.7844 30.1431 17.1932 30.3366 17.1704C30.4808 17.1535 30.5721 17.6847 30.595 17.77C30.7524 18.3768 30.8665 18.9933 31.0432 19.5941C31.0708 19.6854 31.1778 20.213 31.3436 19.9882C31.614 19.6193 31.6897 19.0029 31.8255 18.5739C32.0898 17.7484 32.395 16.9372 32.8409 16.1898C33.5342 15.0314 34.7743 14.3969 35.4292 13.2409C35.8017 12.5836 35.9904 11.8314 36.1034 11.09C36.143 10.8304 36.1827 10.5709 36.2079 10.3101C36.2115 10.2825 36.2403 9.88351 36.2716 9.89553C36.4074 9.9472 36.4554 10.673 36.4735 10.792C36.6189 11.7365 36.6177 12.7134 36.4086 13.6495C36.018 15.3979 35.0555 16.9877 34.2949 18.5943C34.0882 19.0305 33.944 20.1036 33.5066 20.3932C33.1641 20.6191 32.4828 20.4917 32.1042 20.4893C30.8437 20.4845 29.5832 20.422 28.3238 20.4064C25.4122 20.3704 22.3937 20.0159 19.7644 18.6832C16.1859 16.8699 13.4353 12.8708 12.0414 9.21539" fill="#665135" fill-opacity="0.2118"/>
</g>
</g>
</g>
<mask id="mask3_479_4210" style="mask-type:luminance" maskUnits="userSpaceOnUse" x="31" y="18" width="19" height="39">
<path d="M31.5911 18.2447H49.1256V56.0825H31.5911V18.2447Z" fill="white"/>
</mask>
<g mask="url(#mask3_479_4210)">
<mask id="mask4_479_4210" style="mask-type:luminance" maskUnits="userSpaceOnUse" x="-1" y="5" width="53" height="56">
<path d="M-0.448853 11.4265L44.1699 5.11301L51.0542 53.8005L6.43664 60.114L-0.448853 11.4265Z" fill="white"/>
</mask>
<g mask="url(#mask4_479_4210)">
<mask id="mask5_479_4210" style="mask-type:luminance" maskUnits="userSpaceOnUse" x="4" y="9" width="46" height="48">
<path fill-rule="evenodd" clip-rule="evenodd" d="M21.5501 19.2553C-1.13723 38.042 -3.79049 56.9909 28.5149 56.6508C51.958 56.4045 57.6983 36.0629 33.6315 19.7696C33.2902 17.3579 33.9692 15.2982 36.2355 11.3448C36.7594 9.38126 33.5798 9.53868 29.606 12.3013C29.1589 11.0816 28.3382 10.4892 26.996 10.7716C24.7885 10.4291 22.9043 11.0624 21.1836 12.2003C20.8927 9.88476 18.6745 9.31036 15.9948 9.15054C17.3863 13.3359 19.2405 16.7006 21.5501 19.2553Z" fill="white"/>
</mask>
<g mask="url(#mask5_479_4210)">
<path fill-rule="evenodd" clip-rule="evenodd" d="M31.6801 20.6732C31.6909 20.4557 33.1317 22.3267 33.2686 22.5742C34.2864 24.4079 35.0086 26.3907 36.0072 28.24C36.0325 28.2869 36.3773 29.0079 36.4578 28.9766C37.1404 28.7171 35.7549 22.9107 35.1444 21.7583C34.7347 20.9856 34.1987 20.2875 33.5823 19.6698C33.5811 19.6686 33.4621 19.5545 33.4994 19.5448C33.8502 19.4511 37.5045 23.395 37.8229 23.7494C42.4805 28.9202 46.553 35.6062 46.756 42.7416C46.8486 45.9885 46.148 49.0936 44.551 51.9319C43.8012 53.2657 42.7149 54.3809 41.9638 55.6967C41.9302 55.7544 41.8208 55.9562 41.8905 56.0368C42.0924 56.2699 43.383 54.9949 43.4887 54.894C45.1242 53.339 46.6587 51.6507 47.9216 49.7749C51.4161 44.579 51.9039 37.5649 48.7772 32.0589C47.4133 29.6568 45.4835 27.4782 43.4311 25.6312C41.1671 23.5932 37.2798 21.6477 36.2439 18.5427" fill="#665135" fill-opacity="0.302"/>
</g>
</g>
</g>
<mask id="mask6_479_4210" style="mask-type:luminance" maskUnits="userSpaceOnUse" x="4" y="18" width="25" height="23">
<path d="M4.21252 18.2447H28.8225V40.7013H4.21252V18.2447Z" fill="white"/>
</mask>
<g mask="url(#mask6_479_4210)">
<mask id="mask7_479_4210" style="mask-type:luminance" maskUnits="userSpaceOnUse" x="-1" y="5" width="53" height="56">
<path d="M-0.448242 11.4265L44.1705 5.11301L51.0548 53.8005L6.43725 60.114L-0.448242 11.4265Z" fill="white"/>
</mask>
<g mask="url(#mask7_479_4210)">
<mask id="mask8_479_4210" style="mask-type:luminance" maskUnits="userSpaceOnUse" x="4" y="9" width="46" height="48">
<path fill-rule="evenodd" clip-rule="evenodd" d="M21.5504 19.2553C-1.13686 38.042 -3.79012 56.9909 28.5152 56.6508C51.9584 56.4045 57.6987 36.0629 33.6319 19.7696C33.2906 17.3579 33.9695 15.2982 36.2359 11.3448C36.7598 9.38126 33.5802 9.53868 29.6063 12.3013C29.1593 11.0816 28.3386 10.4892 26.9963 10.7716C24.7889 10.4291 22.9047 11.0624 21.1839 12.2003C20.8931 9.88476 18.6749 9.31036 15.9952 9.15054C17.3867 13.3359 19.2408 16.7006 21.5504 19.2553Z" fill="white"/>
</mask>
<g mask="url(#mask8_479_4210)">
<path fill-rule="evenodd" clip-rule="evenodd" d="M27.917 19.9943C27.4748 20.1325 28.1309 26.0134 27.8942 26.1179C27.5373 26.2753 26.2251 23.3373 25.8922 21.5444C25.8322 21.2176 25.7961 20.8859 25.8045 20.553C25.8045 20.5326 25.8346 20.1108 25.8298 20.1108C25.7829 20.1108 25.6868 20.5458 25.676 20.5807C25.3575 21.6466 25.0259 23.0333 24.4226 23.967C24.3842 24.0246 24.3169 24.1244 24.234 24.116C23.7845 24.0691 23.8494 20.6432 23.9071 19.9907C23.9179 19.8837 23.8675 19.8633 23.7689 19.8897C19.1906 21.1383 10.9484 30.2648 8.32763 33.9011C6.78951 36.0364 4.00887 40.6171 3.77335 40.5823C3.53182 40.5486 3.9524 39.2316 3.98124 39.1343C4.1735 38.4854 4.40542 37.8497 4.65537 37.2212C5.93513 33.9996 7.49969 30.9594 9.52688 28.1403C10.5687 26.6911 11.7343 25.3501 12.9853 24.0787C13.8288 23.2195 14.6808 22.3663 15.5832 21.5696C16.6094 20.666 19.0464 18.0644 20.7263 18.485C21.4581 18.6676 22.119 19.2036 22.8737 19.4103C24.7363 19.9234 26.7707 20.0051 28.6945 20.1241" fill="#665135" fill-opacity="0.302"/>
</g>
</g>
</g>
<path fill-rule="evenodd" clip-rule="evenodd" d="M19.8587 18.8648C19.7602 18.8203 19.6436 18.8203 19.5415 18.8756C19.3684 18.9681 19.3023 19.1844 19.3961 19.3574C19.4381 19.438 19.5583 19.5521 19.759 19.617C19.9969 19.6927 20.4115 19.7468 20.5052 19.7696C20.945 19.8766 21.3872 19.9787 21.8294 20.076C22.2728 20.171 22.7174 20.2611 23.1621 20.3464C24.6689 20.6336 26.2119 20.8715 27.762 20.9857C29.3229 21.0986 30.8911 21.0854 32.4328 20.8679C33.0084 20.7862 33.8051 20.6901 34.5045 20.4558C35.0332 20.2779 35.5055 20.0184 35.8179 19.6494L35.8155 19.6482C35.8588 19.5978 35.8804 19.5473 35.89 19.5149C35.9345 19.3538 35.8612 19.182 35.7146 19.1039C35.6004 19.0438 35.467 19.051 35.3613 19.1147C35.2543 19.1279 34.7508 19.1868 34.7064 19.1916C34.2197 19.2553 33.7294 19.3118 33.2391 19.3622C32.7501 19.4127 32.2598 19.456 31.7683 19.4908C30.2134 19.6014 28.6777 19.5629 27.1492 19.4524C24.8288 19.2841 22.5216 18.9525 20.1868 18.7146C20.0546 18.7001 19.9296 18.7626 19.8587 18.8648ZM25.6495 20.0388C26.3669 20.1397 27.0903 20.2214 27.8137 20.2743C29.3205 20.3837 30.8322 20.3716 32.3211 20.1638C32.1529 20.177 31.9858 20.1902 31.82 20.2022C30.2302 20.314 28.6608 20.2767 27.0975 20.1638C26.6144 20.1289 26.1313 20.0856 25.6495 20.0388Z" fill="#665135"/>
<path fill-rule="evenodd" clip-rule="evenodd" d="M37.1082 34.0321C36.5026 33.8398 35.9583 34.002 35.5004 34.3565C34.9885 34.7531 34.6004 35.4248 34.4009 35.8225C33.9515 36.713 33.5189 38.7101 32.6249 39.9875C32.1875 40.6123 31.6167 41.0413 30.7767 40.777C30.3994 40.6592 29.9956 40.8683 29.8779 41.248C29.7589 41.6253 29.9692 42.0279 30.3465 42.1469C31.541 42.5206 32.4638 42.1961 33.1992 41.51C33.8662 40.8899 34.3661 39.9238 34.7542 38.942C35.1339 37.9831 35.4043 37.0158 35.6807 36.469C35.796 36.2407 35.9895 35.8694 36.2575 35.599C36.3764 35.4789 36.5026 35.3455 36.6744 35.4008C37.0506 35.5197 37.4543 35.3106 37.5745 34.9333C37.6946 34.556 37.4856 34.1522 37.1082 34.0321Z" fill="#665135"/>
<path fill-rule="evenodd" clip-rule="evenodd" d="M25.2164 37.1756C25.6346 36.5556 26.4397 35.6627 27.3121 34.7543C28.813 33.1897 30.5146 31.5855 30.9195 31.1962C31.2043 30.9222 31.2139 30.468 30.9399 30.1808C30.666 29.896 30.2117 29.8876 29.9257 30.1615C29.516 30.5557 27.7952 32.1779 26.2775 33.7605C25.7656 34.294 25.2777 34.824 24.8668 35.3034C24.8584 34.973 24.8499 34.6401 24.8403 34.3097C24.7959 32.8989 24.731 31.4894 24.6565 30.0762C24.6348 29.6809 24.296 29.3781 23.9018 29.3985C23.5053 29.4201 23.2025 29.7578 23.2229 30.1531C23.2986 31.5543 23.3635 32.953 23.4056 34.3529C23.4488 35.7493 23.4704 37.1444 23.4572 38.5443C23.4488 39.5249 23.4416 40.7385 23.9114 41.4595C24.2155 41.921 24.6721 42.2454 25.3835 42.2995C25.6635 42.3211 25.9459 42.3175 26.2246 42.2851C26.5094 42.2526 26.7906 42.1889 27.0658 42.0928C27.2412 42.0303 27.4155 41.957 27.5849 41.8717C27.7568 41.7852 27.9238 41.6866 28.0824 41.5725C28.2014 41.4884 28.3143 41.3958 28.4213 41.2949C28.527 41.1964 28.6268 41.0894 28.7193 40.9741C29.4054 40.1269 29.3345 39.4708 29.0125 38.9721C28.8106 38.6597 28.4501 38.3845 27.9779 38.1694C27.371 37.893 26.5527 37.6947 25.875 37.4676C25.7548 37.428 25.6394 37.3859 25.5325 37.3439C25.4291 37.3006 25.3018 37.2273 25.2164 37.1756ZM24.8908 38.6284C24.8848 39.1463 24.8572 39.7412 24.9581 40.241C25.0206 40.5559 25.1299 40.8407 25.4928 40.8683C25.6815 40.8839 25.8714 40.8815 26.0588 40.8599C26.2379 40.8383 26.4157 40.7998 26.5899 40.7385C26.7089 40.6977 26.8255 40.6484 26.9396 40.5919C27.0466 40.5367 27.1511 40.4754 27.2509 40.4045L27.6053 40.0704C27.6774 39.9827 27.7315 39.901 27.77 39.8241C27.782 39.8 27.7928 39.764 27.7988 39.7436C27.7628 39.7123 27.6258 39.597 27.5152 39.5405C27.3145 39.4347 27.0766 39.3458 26.8231 39.2617C26.167 39.0442 25.4303 38.8615 24.8908 38.6284Z" fill="#665135"/>
<path fill-rule="evenodd" clip-rule="evenodd" d="M19.3906 34.7627C19.2945 34.7519 19.1852 34.7603 19.0626 34.8011C18.9713 34.8324 18.7189 34.9994 18.6937 35.0174L18.2431 35.3719C18.0388 35.5474 17.8405 35.7336 17.6506 35.9295C17.4632 36.123 17.2817 36.326 17.1099 36.5375C16.4574 37.3462 15.6559 38.7618 15.5718 39.9671C15.4985 41.0353 15.8938 41.975 17.1471 42.4389C18.1037 42.7921 19.339 42.6612 20.3159 42.0868C21.2592 41.5304 21.9598 40.5823 21.985 39.3146C21.9994 38.644 21.8528 37.9879 21.6053 37.3655C21.2544 36.4786 20.6956 35.6651 20.1525 34.997C19.9638 34.7663 19.6598 34.6822 19.3906 34.7627ZM19.3606 36.3152L19.1779 36.4594C19.0061 36.6072 18.8391 36.7634 18.6793 36.9281C18.5218 37.0915 18.3704 37.2621 18.2262 37.44C17.7215 38.0636 17.0678 39.1379 17.0029 40.0668C16.9717 40.5078 17.1267 40.9007 17.6446 41.093C18.2322 41.3105 18.9881 41.2024 19.5877 40.8491C20.1237 40.5342 20.537 40.0055 20.5514 39.2857C20.5647 38.6813 20.3832 38.0937 20.1212 37.5493C19.9086 37.1059 19.6394 36.6913 19.3606 36.3152ZM18.5915 35.4693C18.5855 35.6531 18.6408 35.7913 18.7189 35.897C18.6348 35.7745 18.5879 35.6267 18.5915 35.4693Z" fill="#665135"/>
<path fill-rule="evenodd" clip-rule="evenodd" d="M36.7394 33.3591L36.7514 33.3687L36.7562 33.3699L36.7634 33.3735L36.7683 33.3784L36.7707 33.3796C37.0182 33.5214 37.339 33.5093 37.577 33.3183C37.8858 33.0731 37.9363 32.6201 37.6899 32.3101C37.5746 32.1671 37.4604 32.1118 37.3727 32.0806C37.3535 32.0734 37.3318 32.0661 37.3114 32.0625C37.0687 31.9892 36.7971 32.0493 36.6036 32.238C36.3212 32.5156 36.3176 32.971 36.5952 33.251C36.6397 33.2978 36.6889 33.3339 36.7394 33.3591ZM36.7454 33.3627C36.6793 33.3219 36.6204 33.269 36.5688 33.2041C36.6265 33.2786 36.6853 33.3255 36.7394 33.3591L36.7454 33.3627L36.7514 33.3687L36.7634 33.3735L36.7707 33.3796C36.8067 33.3988 36.8416 33.412 36.8728 33.424C36.9629 33.4577 37.0927 33.4625 37.1756 33.4601C37.0771 33.4601 36.904 33.448 36.7454 33.3627ZM37.011 32.0445C36.9906 32.0469 36.9785 32.0481 36.9785 32.0481L37.011 32.0445Z" fill="#665135"/>
<path fill-rule="evenodd" clip-rule="evenodd" d="M17.7854 32.9037C17.658 33.0755 17.61 33.305 17.6737 33.5273C17.783 33.9071 18.1808 34.127 18.5605 34.0176C18.6362 33.996 18.7143 33.9599 18.7876 33.9071C18.8597 33.853 19.0051 33.6523 19.0051 33.6523C19.0051 33.6523 18.9931 33.6739 18.9883 33.6824C19.1901 33.3423 19.0784 32.9025 18.7383 32.6994C18.4139 32.5071 17.9993 32.5997 17.7854 32.9037ZM18.0522 32.6826L18.045 32.685L18.0546 32.6802L18.0522 32.6826ZM18.0798 32.6694L18.0714 32.673L18.087 32.6658L18.0798 32.6694ZM18.1075 32.6573L18.1014 32.6609L18.1207 32.6525L18.1075 32.6573ZM18.1315 32.6489L18.1639 32.6393C18.1543 32.6417 18.1423 32.6453 18.1315 32.6489Z" fill="#665135"/>
<path fill-rule="evenodd" clip-rule="evenodd" d="M20.9279 33.6463H20.9291L20.9327 33.6379L20.9375 33.6307C21.0973 33.3123 21.0024 32.9181 20.7008 32.7126C20.3727 32.4903 19.9257 32.5756 19.7034 32.9037C19.6758 32.9458 19.6517 32.9878 19.6337 33.0323C19.6097 33.0876 19.5917 33.1476 19.5808 33.2149C19.5232 33.6067 19.7947 33.9708 20.1865 34.0297C20.4977 34.0753 20.7921 33.9131 20.9279 33.6463Z" fill="#665135"/>
<path fill-rule="evenodd" clip-rule="evenodd" d="M20.1825 19.4571C20.2931 19.5401 20.4481 19.5545 20.5755 19.4788C20.7461 19.379 20.8026 19.1615 20.7029 18.9909C20.5166 18.6713 20.3292 18.3624 20.1213 18.0596C19.9831 17.8565 19.8353 17.6571 19.6742 17.4612C19.3919 17.1187 19.0854 16.769 18.7285 16.4999C18.4678 16.3016 18.1806 16.1466 17.8561 16.0613C17.3551 15.9279 16.9849 16.0901 16.7446 16.3773C16.425 16.757 16.3517 17.4131 16.5776 17.9214C16.7951 18.4093 17.206 18.7878 17.7059 19.0582C18.3813 19.4235 19.2176 19.5929 19.8821 19.6098C20.0059 19.6122 20.1165 19.5521 20.1825 19.4571ZM19.8124 18.8936C19.7536 18.7962 19.6923 18.7001 19.6286 18.6052C19.4736 18.3709 19.3089 18.1389 19.1239 17.9154C18.8763 17.615 18.612 17.305 18.2996 17.0683C18.1109 16.9265 17.9054 16.8123 17.6723 16.7498C17.4536 16.6909 17.301 16.7811 17.2277 16.9349C17.1291 17.1367 17.1303 17.4107 17.2289 17.6318C17.4247 18.0704 17.8513 18.366 18.3284 18.5667C18.8127 18.7698 19.3546 18.8719 19.8124 18.8936Z" fill="#665135"/>
<path fill-rule="evenodd" clip-rule="evenodd" d="M20.4557 19.3862C21.0361 19.3826 21.661 19.3093 22.2138 19.0906C22.6344 18.926 23.0141 18.6797 23.3121 18.3252C23.6389 17.937 23.7928 17.2593 23.6209 16.775C23.4851 16.3905 23.1799 16.0997 22.6307 16.0937C22.1693 16.0901 21.7295 16.3196 21.3486 16.6705C20.8727 17.1079 20.4822 17.7304 20.2358 18.163C20.201 18.2254 19.8477 18.7998 19.784 19.0438C19.7131 19.3153 19.8501 19.4752 19.9619 19.5376C20.1337 19.635 20.35 19.5737 20.4473 19.4019L20.4557 19.3862ZM20.7742 18.6628C21.0866 18.6448 21.4039 18.5992 21.7055 18.5114C22.1116 18.3925 22.4902 18.1954 22.7665 17.8661C22.9203 17.6847 23.0057 17.3915 22.9768 17.1403C22.966 17.0418 22.9384 16.9493 22.8723 16.8856C22.8146 16.8315 22.7317 16.8087 22.6235 16.8075C22.3339 16.8039 22.0708 16.9757 21.8304 17.1956C21.4111 17.5801 21.0722 18.1341 20.8559 18.5162C20.8475 18.5295 20.8162 18.5871 20.7742 18.6628Z" fill="#665135"/>
<path fill-rule="evenodd" clip-rule="evenodd" d="M20.0732 19.6338C20.1994 19.6062 20.3051 19.5101 20.3412 19.3767C20.4012 19.1496 20.3315 19.0258 20.2991 18.9777C20.2474 18.9008 20.1777 18.8564 20.0996 18.8335C20.0203 18.8095 19.8917 18.7987 19.7535 18.8996C19.6778 18.9549 19.5397 19.1219 19.4375 19.2866C19.3534 19.4199 19.2933 19.5533 19.2801 19.6158C19.2296 19.8381 19.2104 20.0724 19.2104 20.3104C19.2104 20.6384 19.2464 20.9713 19.2825 21.2801C19.3246 21.6514 19.3882 22.0179 19.4219 22.3892C19.4435 22.6187 19.4543 22.8483 19.4387 23.0814C19.4159 23.4515 19.3498 23.8156 19.2621 24.1761C19.1251 24.7349 18.9328 25.284 18.7478 25.826C18.6853 26.011 18.785 26.2141 18.9713 26.2778C19.1563 26.3403 19.3594 26.2405 19.4231 26.0555C19.6142 25.4943 19.8124 24.9247 19.9554 24.3455C20.0528 23.9454 20.1249 23.5392 20.1513 23.127C20.1681 22.8567 20.1561 22.5899 20.1321 22.3219C20.0972 21.947 20.0335 21.5745 19.9915 21.1984C19.9578 20.916 19.923 20.6108 19.923 20.3116C19.923 20.1265 19.9374 19.9439 19.9759 19.7708C19.9746 19.7744 19.9734 19.7864 19.9734 19.7864L20.0732 19.6338Z" fill="#665135"/>
<path fill-rule="evenodd" clip-rule="evenodd" d="M20.1282 19.0354C20.139 18.884 20.0549 18.7374 19.9083 18.6773C19.7268 18.6016 19.519 18.6893 19.4433 18.8708C19.412 18.9453 19.3964 19.0823 19.4457 19.2469C19.4997 19.4343 19.6451 19.7191 19.6728 19.796C19.7833 20.1121 19.8819 20.4317 19.9708 20.7538C20.0597 21.0782 20.139 21.4063 20.2147 21.7379C20.4995 22.9864 20.8384 24.408 20.9153 25.8019C20.9658 26.7116 20.9057 27.6068 20.6365 28.4335C20.574 28.6198 20.6762 28.8217 20.8636 28.883C21.0511 28.9443 21.2517 28.8421 21.313 28.6547C21.611 27.7474 21.6831 26.7608 21.6279 25.7635C21.5474 24.3275 21.2013 22.8651 20.9105 21.5793C20.8324 21.238 20.7495 20.9004 20.6569 20.5651C20.5656 20.2274 20.4623 19.891 20.3445 19.5581C20.3193 19.4896 20.1594 19.1099 20.1282 19.0354Z" fill="#665135"/>
<path fill-rule="evenodd" clip-rule="evenodd" d="M23.6436 47.177C23.646 47.1758 23.6497 47.1746 23.6533 47.1746C23.6605 47.1746 23.6677 47.177 23.6713 47.183C23.7169 47.2972 23.6953 47.4174 23.6533 47.5303C23.5944 47.6853 23.4934 47.8295 23.3913 47.9461C23.354 47.9893 23.0548 48.2429 22.9803 48.3715C22.8746 48.5541 22.919 48.7091 22.9815 48.8029C23.0416 48.893 23.157 48.9795 23.3252 49.0168C23.5139 49.0588 23.8299 49.0348 23.9344 49.0456L24.3995 49.1201C24.593 49.1574 24.7804 49.03 24.8165 48.8365C24.8537 48.643 24.7251 48.4568 24.5329 48.4195L24.0053 48.3354L23.9957 48.3342C24.1568 48.1311 24.3034 47.8824 24.3694 47.624C24.4283 47.3897 24.4247 47.147 24.331 46.9139C24.224 46.6543 24.0017 46.5029 23.7602 46.4693C23.5247 46.4356 23.2711 46.5149 23.0945 46.7156C23.0068 46.8141 22.8974 47.034 22.8998 47.2071C22.9034 47.3669 22.9707 47.5051 23.1137 47.5976C23.2783 47.7058 23.4994 47.6589 23.6064 47.4943C23.6701 47.3969 23.6797 47.2792 23.6436 47.177Z" fill="#665135"/>
<path fill-rule="evenodd" clip-rule="evenodd" d="M24.6947 48.5818C24.625 48.7572 24.7031 48.9579 24.8773 49.0384C25.0564 49.1201 25.2679 49.042 25.3496 48.863C25.3724 48.8137 25.3904 48.762 25.4025 48.7092C25.4133 48.6635 25.4181 48.6166 25.4169 48.5698C25.4169 48.5157 25.3832 48.3883 25.3688 48.3583C25.3207 48.2621 25.2559 48.2213 25.221 48.2009C25.0636 48.1143 24.9242 48.1372 24.8004 48.2549C24.7728 48.2802 24.6923 48.3487 24.6899 48.5097C24.6887 48.5349 24.6911 48.559 24.6947 48.5818ZM25.2186 48.8281C25.1453 48.875 25.0648 48.8882 24.9783 48.8666C24.9975 48.8702 25.0179 48.8726 25.0384 48.8726C25.1044 48.875 25.1657 48.8582 25.2186 48.8281ZM25.4013 48.5445C25.3952 48.6178 25.3664 48.6863 25.3231 48.7404C25.3544 48.7056 25.394 48.6455 25.4013 48.5445Z" fill="#665135"/>
<path fill-rule="evenodd" clip-rule="evenodd" d="M26.0912 47.3392C26.09 47.3284 26.0876 47.3079 26.0876 47.2959C26.0876 47.2611 26.0876 47.225 26.0888 47.1854L26.0876 47.0664C26.0936 47.022 26.09 46.9763 26.078 46.9294C26.0263 46.7396 25.8304 46.6278 25.6405 46.6795C25.6057 46.6879 25.3882 46.7648 25.375 47.0208C25.3738 47.0604 25.3762 47.1613 25.3762 47.1698C25.3726 47.3464 25.3798 47.4918 25.4327 47.6204C25.4783 47.7297 25.5528 47.8331 25.6874 47.928C25.7715 47.9869 25.8617 48.0289 25.9578 48.059C26.0647 48.0926 26.1789 48.1095 26.2894 48.1323C26.3555 48.1455 26.4252 48.1503 26.4709 48.2104L26.4276 48.2525C26.3327 48.3089 26.2258 48.3342 26.1176 48.345C25.9806 48.3594 25.8412 48.351 25.7078 48.3378C25.512 48.3185 25.3377 48.4615 25.3185 48.6574C25.2993 48.8533 25.4423 49.0287 25.6381 49.0467C25.8568 49.0696 26.0888 49.0768 26.3087 49.0383C26.4793 49.0095 26.6427 48.9542 26.7929 48.8653C26.9708 48.7583 27.1006 48.5913 27.1546 48.4087C27.2147 48.2032 27.1895 47.9773 27.0369 47.7778C26.9287 47.636 26.7977 47.5507 26.6523 47.4954C26.5514 47.457 26.4433 47.4353 26.3327 47.4149C26.2522 47.3993 26.1669 47.3933 26.0996 47.3464L26.0912 47.3392Z" fill="#665135"/>
<path fill-rule="evenodd" clip-rule="evenodd" d="M25.8381 47.29C25.8597 47.2912 25.8862 47.2924 25.891 47.2924L26.1421 47.2984L26.9749 47.3428C27.1719 47.3525 27.339 47.2011 27.3498 47.0052C27.3606 46.8081 27.2092 46.6399 27.0121 46.6303L26.1649 46.5858L25.903 46.5798C25.8826 46.5798 25.7468 46.5738 25.7035 46.5834C25.4932 46.6243 25.4319 46.7793 25.4139 46.8658C25.3971 46.9547 25.3959 47.0713 25.51 47.189C25.5978 47.2792 25.7227 47.3128 25.8381 47.29ZM26.0364 46.7084C26.0928 46.7745 26.1205 46.8562 26.1217 46.9379C26.1241 46.8682 26.1073 46.7877 26.0364 46.7084Z" fill="#665135"/>
<path fill-rule="evenodd" clip-rule="evenodd" d="M28.4272 46.9199C28.4164 46.9595 28.4056 47.004 28.4032 47.028L28.3695 47.5051L28.2758 48.762L28.2373 49.2234L28.2265 49.3412C28.2241 49.3628 28.2157 49.4169 28.2145 49.4325C28.2109 49.4806 28.2169 49.5142 28.2193 49.5287C28.2421 49.6464 28.3046 49.7065 28.3443 49.7377C28.432 49.8098 28.5281 49.8327 28.6339 49.8134C28.6543 49.8098 28.8478 49.799 28.9163 49.5527C29.0028 49.233 29.1133 48.7932 29.2948 48.4207C29.3969 48.2128 29.5159 48.023 29.6829 47.9172C29.85 47.8103 29.898 47.5904 29.7923 47.4246C29.6865 47.2587 29.4666 47.2095 29.3008 47.3152C29.2239 47.3633 29.153 47.4209 29.0845 47.487L29.1121 47.1049C29.1254 47.0568 29.1626 46.9211 29.1602 46.873C29.1566 46.7757 29.1218 46.7 29.0713 46.6411C29.0136 46.5726 28.9319 46.5149 28.8021 46.5053C28.6062 46.4933 28.4368 46.6423 28.4236 46.8381C28.4212 46.8658 28.4236 46.8934 28.4272 46.9199ZM28.6002 47.1698C28.6363 47.1926 28.6807 47.2095 28.7348 47.2155C28.6868 47.2095 28.6411 47.1938 28.6002 47.1698Z" fill="#665135"/>
<path fill-rule="evenodd" clip-rule="evenodd" d="M28.4739 48.4604L28.4763 48.4784L28.5052 48.6009L28.6337 48.9254C28.7383 49.1417 28.8681 49.3484 29.0447 49.4878C29.1889 49.6019 29.3631 49.6776 29.5782 49.6884C29.7753 49.6993 29.9435 49.5479 29.9532 49.352C29.964 49.1561 29.8126 48.9879 29.6167 48.9771C29.547 48.9735 29.4953 48.941 29.4533 48.8978C29.3776 48.8221 29.3259 48.7187 29.2754 48.6166L29.1925 48.4123L29.1769 48.3438C29.1697 48.3089 29.1517 48.2236 29.1432 48.2044C29.0868 48.0782 28.9942 48.0326 28.939 48.0121C28.8476 47.9785 28.7563 47.9797 28.6638 48.0229C28.6217 48.0434 28.5088 48.0902 28.4667 48.2657C28.4499 48.333 28.4535 48.3991 28.4739 48.4604ZM29.1541 48.4531C29.1384 48.5048 29.112 48.5505 29.0772 48.5889C29.1048 48.5613 29.1348 48.5192 29.1541 48.4531Z" fill="#665135"/>
<path fill-rule="evenodd" clip-rule="evenodd" d="M30.5673 49.1345C30.5541 49.2318 30.5349 49.3388 30.5036 49.4397C30.4856 49.501 30.464 49.5587 30.4351 49.6091C30.4255 49.626 30.4063 49.6488 30.3979 49.6584C30.3871 49.656 30.3703 49.6512 30.3582 49.6476C30.1768 49.5707 29.9677 49.6572 29.892 49.8387C29.8151 50.0201 29.9016 50.2292 30.0831 50.3049C30.4243 50.4467 30.6791 50.3662 30.8726 50.1919C31.0059 50.0718 31.1093 49.8879 31.1766 49.68C31.2535 49.4385 31.2859 49.1657 31.3003 48.9915L31.3244 48.6418L31.3424 48.2621C31.3448 48.2128 31.3436 48.1143 31.3412 48.029L31.3628 47.898L31.3724 47.7958C31.3748 47.7538 31.3664 47.6504 31.3592 47.6276C31.3112 47.4678 31.1982 47.4113 31.1177 47.3873C31.1009 47.3825 31.084 47.3789 31.066 47.3765C30.9831 47.32 30.8834 47.3032 30.774 47.3188C30.7067 47.3284 30.6274 47.3584 30.5505 47.4077C30.4508 47.4726 30.351 47.5783 30.3222 47.612C30.1876 47.7706 29.9785 48.1419 29.9533 48.4459C29.9341 48.6791 30.005 48.8809 30.1684 49.0215C30.2873 49.1225 30.4207 49.1525 30.5541 49.1369L30.5673 49.1345ZM30.5986 47.9052L30.589 47.892C30.5926 47.8968 30.595 47.9016 30.5986 47.9052Z" fill="#665135"/>
<path fill-rule="evenodd" clip-rule="evenodd" d="M30.6284 69.4581C30.0408 57.3731 35.8881 46.5425 43.7902 38.1526C45.9796 40.1209 44.2961 43.9794 41.7281 48.768L49.2697 45.8131C50.0424 44.2702 50.4582 42.7753 50.451 41.3369C49.2529 38.8051 48.9141 36.7262 50.5087 35.6639L52.8819 39.4768C52.5298 35.8297 52.3604 32.4206 54.5342 32.0914L56.005 36.7262C56.7489 33.382 58.1788 31.2959 60.587 31.0147L59.5079 37.6731C59.2964 35.3226 65.39 32.7799 65.265 33.0743C62.8208 38.8639 57.9433 49.6728 52.2895 53.8991C42.174 60.3592 39.2239 65.9793 39.1914 71.9564L30.6284 69.4581Z" fill="#F4E8E0"/>
<mask id="mask9_479_4210" style="mask-type:luminance" maskUnits="userSpaceOnUse" x="43" y="30" width="21" height="18">
<path d="M43.2809 30.8573H63.2765V47.1614H43.2809V30.8573Z" fill="white"/>
</mask>
<g mask="url(#mask9_479_4210)">
<mask id="mask10_479_4210" style="mask-type:luminance" maskUnits="userSpaceOnUse" x="20" y="26" width="55" height="50">
<path d="M60.2268 26.1011L20.208 55.3518L34.7673 75.2837L74.7873 46.033L60.2268 26.1011Z" fill="white"/>
</mask>
<g mask="url(#mask10_479_4210)">
<mask id="mask11_479_4210" style="mask-type:luminance" maskUnits="userSpaceOnUse" x="30" y="31" width="36" height="41">
<path fill-rule="evenodd" clip-rule="evenodd" d="M30.6283 69.4581C30.0407 57.373 35.888 46.5425 43.7901 38.1525C45.9795 40.1208 44.296 43.9793 41.728 48.7679L49.2696 45.8131C50.0423 44.2701 50.4581 42.7753 50.4509 41.3369C49.2528 38.805 48.9139 36.7261 50.5085 35.6639L52.8818 39.4767C52.5297 35.8297 52.3603 32.4206 54.5341 32.0913L56.0049 36.7261C56.7487 33.3819 58.1787 31.2958 60.5868 31.0146L59.5077 37.673C59.2963 35.3226 65.3899 32.7799 65.2649 33.0743C62.8207 38.8639 57.9432 49.6728 52.2894 53.899C42.1738 60.3591 39.2238 65.9793 39.1913 71.9563L30.6283 69.4581Z" fill="white"/>
</mask>
<g mask="url(#mask11_479_4210)">
<path fill-rule="evenodd" clip-rule="evenodd" d="M43.5645 47.0868C53.0311 44.8469 56.2479 43.5984 63.0073 31.1745C63.0073 31.1745 56.1254 27.7185 49.0008 32.2992C48.5453 32.5924 44.1004 47.5134 43.5645 47.0868Z" fill="#665135" fill-opacity="0.2784"/>
</g>
</g>
</g>
<mask id="mask12_479_4210" style="mask-type:luminance" maskUnits="userSpaceOnUse" x="50" y="31" width="5" height="15">
<path d="M50.9713 31.7802H54.3552V45.008H50.9713V31.7802Z" fill="white"/>
</mask>
<g mask="url(#mask12_479_4210)">
<mask id="mask13_479_4210" style="mask-type:luminance" maskUnits="userSpaceOnUse" x="20" y="26" width="55" height="50">
<path d="M60.2268 26.1011L20.208 55.3518L34.7673 75.2837L74.7873 46.033L60.2268 26.1011Z" fill="white"/>
</mask>
<g mask="url(#mask13_479_4210)">
<mask id="mask14_479_4210" style="mask-type:luminance" maskUnits="userSpaceOnUse" x="30" y="31" width="36" height="41">
<path fill-rule="evenodd" clip-rule="evenodd" d="M30.6283 69.4581C30.0407 57.373 35.888 46.5425 43.7901 38.1525C45.9795 40.1208 44.296 43.9793 41.728 48.7679L49.2696 45.8131C50.0423 44.2701 50.4581 42.7753 50.4509 41.3369C49.2528 38.805 48.9139 36.7261 50.5085 35.6639L52.8818 39.4767C52.5297 35.8297 52.3603 32.4206 54.5341 32.0913L56.0049 36.7261C56.7487 33.3819 58.1787 31.2958 60.5868 31.0146L59.5077 37.673C59.2963 35.3226 65.3899 32.7799 65.2649 33.0743C62.8207 38.8639 57.9432 49.6728 52.2894 53.899C42.1738 60.3591 39.2238 65.9793 39.1913 71.9563L30.6283 69.4581Z" fill="white"/>
</mask>
<g mask="url(#mask14_479_4210)">
<path fill-rule="evenodd" clip-rule="evenodd" d="M51.3365 44.7664C51.9012 44.0623 52.323 43.3641 52.6295 42.6672C52.8626 42.1348 53.0296 41.6073 53.145 41.0858C53.2892 40.4285 53.3553 39.7844 53.3637 39.1607C53.3733 38.4974 53.3156 37.8581 53.2495 37.2501C53.1642 36.445 53.0512 35.6963 53.0212 35.0102C52.9683 33.8121 53.157 32.8124 54.1375 32.0517C54.1495 32.0433 54.1532 32.0265 54.1447 32.0145C54.1351 32.0025 54.1195 32 54.1063 32.0085C53.2147 32.5708 52.8457 33.3519 52.7076 34.294C52.5682 35.2373 52.6667 36.3428 52.7148 37.5589C52.728 37.905 52.7364 38.2607 52.7388 38.6224C52.7412 38.9673 52.7364 39.3181 52.7172 39.6762C52.6991 40.0175 52.6691 40.3648 52.6198 40.7193C52.5501 41.218 52.4444 41.7287 52.2846 42.2514C52.0466 43.0265 51.7006 43.8268 51.1718 44.6475C51.1394 44.6931 51.149 44.7568 51.1947 44.7893C51.2403 44.8217 51.3028 44.8121 51.3365 44.7664Z" fill="#665135" fill-opacity="0.5608"/>
</g>
</g>
</g>
<mask id="mask15_479_4210" style="mask-type:luminance" maskUnits="userSpaceOnUse" x="54" y="30" width="7" height="13">
<path d="M54.3553 30.8573H60.8155V42.8546H54.3553V30.8573Z" fill="white"/>
</mask>
<g mask="url(#mask15_479_4210)">
<mask id="mask16_479_4210" style="mask-type:luminance" maskUnits="userSpaceOnUse" x="20" y="26" width="55" height="50">
<path d="M60.2268 26.1011L20.208 55.3518L34.7673 75.2837L74.7873 46.033L60.2268 26.1011Z" fill="white"/>
</mask>
<g mask="url(#mask16_479_4210)">
<mask id="mask17_479_4210" style="mask-type:luminance" maskUnits="userSpaceOnUse" x="30" y="31" width="36" height="41">
<path fill-rule="evenodd" clip-rule="evenodd" d="M30.6283 69.4581C30.0407 57.373 35.888 46.5425 43.7901 38.1525C45.9795 40.1208 44.296 43.9793 41.728 48.7679L49.2696 45.8131C50.0423 44.2701 50.4581 42.7753 50.4509 41.3369C49.2528 38.805 48.9139 36.7261 50.5085 35.6639L52.8818 39.4767C52.5297 35.8297 52.3603 32.4206 54.5341 32.0913L56.0049 36.7261C56.7487 33.3819 58.1787 31.2958 60.5868 31.0146L59.5077 37.673C59.2963 35.3226 65.3899 32.7799 65.2649 33.0743C62.8207 38.8639 57.9432 49.6728 52.2894 53.899C42.1738 60.3591 39.2238 65.9793 39.1913 71.9563L30.6283 69.4581Z" fill="white"/>
</mask>
<g mask="url(#mask17_479_4210)">
<path fill-rule="evenodd" clip-rule="evenodd" d="M54.7542 42.6407C54.9032 41.6613 55.1038 40.682 55.3285 39.7195C55.48 39.0694 55.6458 38.4301 55.8248 37.8088C55.9798 37.2729 56.1433 36.7514 56.3163 36.2491C56.5014 35.7167 56.6912 35.206 56.9051 34.7278C57.3041 33.8325 57.7655 33.0479 58.3123 32.429C58.9527 31.7044 59.6978 31.2033 60.5738 31.0111C60.5882 31.0099 60.5978 30.9954 60.5954 30.981C60.593 30.9666 60.5798 30.957 60.5654 30.9594C59.4671 31.0928 58.5117 31.6936 57.6898 32.6201C57.2224 33.1476 56.8006 33.7809 56.4245 34.4947C56.1721 34.9765 55.9378 35.492 55.7347 36.04C55.5436 36.5531 55.3778 37.0926 55.2372 37.6502C55.0738 38.2895 54.944 38.9516 54.8407 39.6257C54.6893 40.6123 54.6051 41.6205 54.5523 42.6203C54.5475 42.6767 54.5871 42.726 54.6424 42.732C54.6989 42.7368 54.7481 42.6972 54.7542 42.6407Z" fill="#665135" fill-opacity="0.5608"/>
</g>
</g>
</g>
<path fill-rule="evenodd" clip-rule="evenodd" d="M24.6385 69.2875C25.2261 57.2024 19.3788 46.3719 11.4767 37.9819C9.28729 39.9502 10.9708 43.8087 13.5388 48.5973L5.99715 45.6425C5.22449 44.0995 4.80871 42.6047 4.81593 41.1663C6.01398 38.6344 6.35284 36.5555 4.75825 35.4933L2.38617 39.3061C2.73706 35.6603 2.90649 32.2512 0.732695 31.9207L-0.738134 36.5555C-1.48196 33.2113 -2.91193 31.1264 -5.32005 30.8441L-4.24096 37.5024C-4.02947 35.152 -10.1231 32.6093 -9.9981 32.9037C-7.55393 38.6933 -2.67641 49.5022 2.97739 53.7284C13.0929 60.1885 16.043 65.8087 16.0755 71.7857L24.6385 69.2875Z" fill="#F4E8E0"/>
<mask id="mask18_479_4210" style="mask-type:luminance" maskUnits="userSpaceOnUse" x="-8" y="30" width="20" height="18">
<path d="M-7.78455 30.5497H11.9034V47.1614H-7.78455V30.5497Z" fill="white"/>
</mask>
<g mask="url(#mask18_479_4210)">
<mask id="mask19_479_4210" style="mask-type:luminance" maskUnits="userSpaceOnUse" x="-20" y="25" width="56" height="51">
<path d="M-4.95964 25.9305L35.0591 55.1812L20.4987 75.1131L-19.5189 45.8624L-4.95964 25.9305Z" fill="white"/>
</mask>
<g mask="url(#mask19_479_4210)">
<mask id="mask20_479_4210" style="mask-type:luminance" maskUnits="userSpaceOnUse" x="-11" y="30" width="36" height="42">
<path fill-rule="evenodd" clip-rule="evenodd" d="M24.6383 69.2875C25.2259 57.2024 19.3787 46.3719 11.4766 37.9819C9.28717 39.9502 10.9707 43.8087 13.5386 48.5973L5.99703 45.6425C5.22437 44.0995 4.80859 42.6047 4.8158 41.1663C6.01385 38.6344 6.35272 36.5555 4.75812 35.4933L2.38605 39.3061C2.73694 35.6603 2.90637 32.2512 0.732573 31.9207L-0.738256 36.5555C-1.48208 33.2113 -2.91205 31.1264 -5.32017 30.8441L-4.24109 37.5024C-4.02959 35.152 -10.1232 32.6093 -9.99823 32.9037C-7.55406 38.6933 -2.67653 49.5022 2.97727 53.7284C13.0928 60.1885 16.0429 65.8087 16.0753 71.7857L24.6383 69.2875Z" fill="white"/>
</mask>
<g mask="url(#mask20_479_4210)">
<path fill-rule="evenodd" clip-rule="evenodd" d="M11.7027 46.9162C2.23606 44.6763 -0.980774 43.4278 -7.73889 31.0051C-7.73889 31.0051 -0.858205 27.5491 6.26642 32.1286C6.72185 32.4218 11.1668 47.3428 11.7027 46.9162Z" fill="#665135" fill-opacity="0.2784"/>
</g>
</g>
</g>
<mask id="mask21_479_4210" style="mask-type:luminance" maskUnits="userSpaceOnUse" x="0" y="31" width="5" height="14">
<path d="M0.828735 31.7802H4.2126V44.7004H0.828735V31.7802Z" fill="white"/>
</mask>
<g mask="url(#mask21_479_4210)">
<mask id="mask22_479_4210" style="mask-type:luminance" maskUnits="userSpaceOnUse" x="-20" y="25" width="56" height="51">
<path d="M-4.95952 25.9305L35.0593 55.1812L20.4988 75.1131L-19.5188 45.8624L-4.95952 25.9305Z" fill="white"/>
</mask>
<g mask="url(#mask22_479_4210)">
<mask id="mask23_479_4210" style="mask-type:luminance" maskUnits="userSpaceOnUse" x="-10" y="30" width="35" height="42">
<path fill-rule="evenodd" clip-rule="evenodd" d="M24.6385 69.2875C25.2261 57.2024 19.3788 46.3719 11.4767 37.9819C9.28729 39.9502 10.9708 43.8087 13.5388 48.5973L5.99715 45.6425C5.22449 44.0995 4.80871 42.6047 4.81593 41.1663C6.01398 38.6344 6.35284 36.5555 4.75825 35.4933L2.38617 39.3061C2.73706 35.6603 2.90649 32.2512 0.732695 31.9207L-0.738134 36.5555C-1.48196 33.2113 -2.91193 31.1264 -5.32005 30.8441L-4.24096 37.5024C-4.02947 35.152 -10.1231 32.6093 -9.9981 32.9037C-7.55393 38.6933 -2.67641 49.5022 2.97739 53.7284C13.0929 60.1885 16.043 65.8087 16.0755 71.7857L24.6385 69.2875Z" fill="white"/>
</mask>
<g mask="url(#mask23_479_4210)">
<path fill-rule="evenodd" clip-rule="evenodd" d="M4.09528 44.4769C3.56655 43.6562 3.22048 42.8559 2.98255 42.0808C2.82273 41.5581 2.71698 41.0474 2.64728 40.5487C2.59802 40.1942 2.56798 39.8469 2.54995 39.5056C2.53193 39.1475 2.52712 38.7967 2.52832 38.453C2.53072 38.0901 2.53914 37.7344 2.55235 37.3883C2.60042 36.1722 2.69896 35.0667 2.55956 34.1246C2.42137 33.1825 2.05246 32.4014 1.16084 31.8379C1.14762 31.8295 1.132 31.8319 1.12238 31.8439C1.11397 31.8559 1.11758 31.8727 1.12959 31.8811C2.11014 32.6418 2.30001 33.6416 2.24593 34.8396C2.21589 35.5258 2.10293 36.2744 2.01762 37.0795C1.95153 37.6875 1.89505 38.3268 1.90346 38.9901C1.91187 39.6138 1.97796 40.2591 2.12216 40.9152C2.23752 41.4367 2.40455 41.9642 2.63767 42.4966C2.94409 43.1935 3.36588 43.8917 3.93065 44.5959C3.9643 44.6415 4.02679 44.6511 4.07245 44.6187C4.11811 44.5862 4.12773 44.5226 4.09528 44.4769Z" fill="#665135" fill-opacity="0.5608"/>
</g>
</g>
</g>
<mask id="mask24_479_4210" style="mask-type:luminance" maskUnits="userSpaceOnUse" x="-6" y="30" width="7" height="13">
<path d="M-5.63159 30.5497H0.828516V42.8547H-5.63159V30.5497Z" fill="white"/>
</mask>
<g mask="url(#mask24_479_4210)">
<mask id="mask25_479_4210" style="mask-type:luminance" maskUnits="userSpaceOnUse" x="-20" y="25" width="56" height="51">
<path d="M-4.95964 25.9305L35.0591 55.1812L20.4987 75.1131L-19.5189 45.8624L-4.95964 25.9305Z" fill="white"/>
</mask>
<g mask="url(#mask25_479_4210)">
<mask id="mask26_479_4210" style="mask-type:luminance" maskUnits="userSpaceOnUse" x="-11" y="30" width="36" height="42">
<path fill-rule="evenodd" clip-rule="evenodd" d="M24.6383 69.2875C25.2259 57.2024 19.3787 46.3719 11.4766 37.9819C9.28717 39.9502 10.9707 43.8087 13.5386 48.5973L5.99703 45.6425C5.22437 44.0995 4.80859 42.6047 4.8158 41.1663C6.01385 38.6344 6.35272 36.5555 4.75812 35.4933L2.38605 39.3061C2.73694 35.6603 2.90637 32.2512 0.732573 31.9207L-0.738256 36.5555C-1.48208 33.2113 -2.91205 31.1264 -5.32017 30.8441L-4.24109 37.5024C-4.02959 35.152 -10.1232 32.6093 -9.99823 32.9037C-7.55406 38.6933 -2.67653 49.5022 2.97727 53.7284C13.0928 60.1885 16.0429 65.8087 16.0753 71.7857L24.6383 69.2875Z" fill="white"/>
</mask>
<g mask="url(#mask26_479_4210)">
<path fill-rule="evenodd" clip-rule="evenodd" d="M0.714399 42.4496C0.661526 41.4499 0.57741 40.4417 0.426001 39.4551C0.322659 38.781 0.19288 38.1189 0.0306559 37.4796C-0.11114 36.922 -0.276968 36.3825 -0.468031 35.8694C-0.671111 35.3214 -0.905435 34.8059 -1.15778 34.324C-1.5339 33.6102 -1.95568 32.977 -2.42313 32.4494C-3.24506 31.523 -4.20038 30.9221 -5.29869 30.7888C-5.31311 30.7864 -5.32633 30.796 -5.32873 30.8104C-5.33114 30.8248 -5.32152 30.8392 -5.3071 30.8404C-4.4311 31.0327 -3.68607 31.5338 -3.04438 32.2596C-2.49883 32.8772 -2.0374 33.6619 -1.63845 34.5572C-1.42455 35.0354 -1.23469 35.5461 -1.04963 36.0785C-0.876595 36.5807 -0.71317 37.1023 -0.558156 37.6394C-0.379109 38.2607 -0.213281 38.8987 -0.0618715 39.5488C0.162838 40.5114 0.363515 41.4907 0.51252 42.4701C0.518529 42.5265 0.567797 42.5674 0.624275 42.5614C0.679551 42.5554 0.719205 42.5061 0.714399 42.4496Z" fill="#665135" fill-opacity="0.5608"/>
</g>
</g>
</g>
</g>
<defs>
<clipPath id="clip0_479_4210">
<rect x="0.333374" width="56" height="56" rx="8" fill="white"/>
</clipPath>
</defs>
</svg>
