<svg width="40" height="40" viewBox="0 0 40 40" fill="none" xmlns="http://www.w3.org/2000/svg">
<g clip-path="url(#clip0_221_47)">
<path d="M40 20.0004C40 31.0454 31.0454 40 20 40C8.95417 40 0 31.0454 0 20.0004C0 8.95458 8.95417 0 20 0C31.0458 0 40 8.95458 40 20.0004Z" fill="#FFF9ED"/>
<path fill-rule="evenodd" clip-rule="evenodd" d="M23.3175 9.13403C23.3273 9.14179 23.3604 9.16455 23.377 9.17334C23.3982 9.18576 23.4189 9.19351 23.4365 9.19765C23.4799 9.20852 23.5177 9.20231 23.5492 9.18782C23.5865 9.17024 23.6222 9.14075 23.6403 9.0823C23.6646 9.00109 23.6191 8.91522 23.5384 8.89091C23.5228 8.88574 23.5073 8.88367 23.4923 8.88367C23.468 8.86815 23.437 8.85056 23.4204 8.84487L23.1551 8.77245C22.9833 8.73159 20.4921 8.59037 18.6299 8.60744C17.7076 8.61572 16.9374 8.66745 16.6607 8.77918C16.5821 8.81125 16.5438 8.90074 16.5758 8.97885C16.6074 9.05747 16.6969 9.09523 16.7755 9.06368C17.0993 8.93333 18.1339 8.90539 19.2719 8.91419C20.9877 8.92712 22.9347 9.03575 23.0842 9.07092L23.3175 9.13403ZM23.349 8.98505C23.348 8.98764 23.347 8.98971 23.3465 8.99229L23.349 8.98505Z" fill="#665135"/>
<path fill-rule="evenodd" clip-rule="evenodd" d="M15.1078 4.66479C15.1441 4.60841 15.695 4.61979 15.8817 4.61151C16.3483 4.5903 16.8164 4.56392 17.2794 4.64772C17.6187 4.70876 17.9342 4.86394 18.2818 4.88411C18.7003 4.90843 19.109 4.78169 19.5223 4.74445C19.9335 4.70772 20.337 4.75583 20.7477 4.73979C21.3638 4.71496 21.9162 4.61668 22.5406 4.69117C22.9156 4.73514 23.2637 4.82152 23.573 5.03981C23.5974 5.0574 23.8193 5.21724 23.8162 5.25293C23.8131 5.28448 23.5043 5.38742 23.4737 5.40191C23.0889 5.5814 22.7283 5.77538 22.3683 6.00091C21.25 6.70078 20.0297 7.19581 18.7019 7.27961C18.1437 7.31479 17.4832 7.28013 17.0176 6.92424" fill="#665135" fill-opacity="0.902"/>
<path fill-rule="evenodd" clip-rule="evenodd" d="M17.5156 9.00473C7.7495 17.0918 6.60736 25.2487 20.5138 25.1023C30.6053 24.9963 33.0763 16.2399 22.7163 9.22612C22.5694 8.18795 22.8617 7.30135 23.8373 5.59951C24.0628 4.75429 22.6941 4.82205 20.9835 6.01126C20.791 5.48623 20.4377 5.23121 19.8599 5.35277C18.9097 5.20535 18.0986 5.47795 17.3579 5.96781C17.2327 4.97102 16.2778 4.72377 15.1243 4.65497C15.7233 6.45664 16.5214 7.905 17.5156 9.00473Z" fill="#F68F27"/>
<mask id="mask0_221_47" style="mask-type:luminance" maskUnits="userSpaceOnUse" x="13" y="4" width="12" height="6">
<path d="M13.3631 4.59705H24.0893V9.62909H13.3631V4.59705Z" fill="white"/>
</mask>
<g mask="url(#mask0_221_47)">
<mask id="mask1_221_47" style="mask-type:luminance" maskUnits="userSpaceOnUse" x="8" y="2" width="23" height="25">
<path d="M8.04588 5.63469L27.2528 2.91693L30.2163 23.8753L11.0099 26.5931L8.04588 5.63469Z" fill="white"/>
</mask>
<g mask="url(#mask1_221_47)">
<mask id="mask2_221_47" style="mask-type:luminance" maskUnits="userSpaceOnUse" x="10" y="4" width="20" height="22">
<path fill-rule="evenodd" clip-rule="evenodd" d="M17.5157 9.00473C7.74953 17.0918 6.60739 25.2487 20.5138 25.1023C30.6053 24.9963 33.0763 16.2399 22.7164 9.22612C22.5695 8.18795 22.8617 7.30135 23.8373 5.59951C24.0628 4.75429 22.6941 4.82205 20.9835 6.01126C20.7911 5.48623 20.4378 5.23121 19.86 5.35277C18.9097 5.20535 18.0986 5.47795 17.3579 5.96781C17.2327 4.97102 16.2778 4.72377 15.1243 4.65497C15.7233 6.45664 16.5215 7.905 17.5157 9.00473Z" fill="white"/>
</mask>
<g mask="url(#mask2_221_47)">
<path fill-rule="evenodd" clip-rule="evenodd" d="M15.2908 4.38187C15.268 4.37412 15.2929 4.50033 15.2934 4.5024C15.3167 4.63896 15.3591 4.77293 15.402 4.90432C15.52 5.26952 15.6653 5.62851 15.8195 5.97974C16.2405 6.94083 16.7635 7.86417 17.4618 8.65042C17.5761 8.77923 17.6946 8.90492 17.8198 9.02286C17.8974 9.0958 17.978 9.16563 18.0618 9.23029C18.859 9.84533 18.5041 8.46369 18.4441 8.11246C18.4358 8.0628 18.3386 7.58173 18.4741 7.59777C18.5905 7.61174 18.6909 7.80571 18.7405 7.89107C18.9247 8.20867 19.0607 8.56094 19.1911 8.90337C19.2102 8.95458 19.3261 9.38754 19.4052 9.37823C19.4673 9.37047 19.473 9.03114 19.4771 8.98872C19.5025 8.7037 19.5335 8.41868 19.563 8.13418C19.5697 8.06746 19.5619 7.84606 19.6307 7.80158C19.6737 7.77416 19.7404 8.05608 19.7456 8.07573C19.8221 8.38972 19.8542 8.71146 19.907 9.02907C19.9106 9.05028 19.9566 9.39013 20.0249 9.33737C20.1692 9.22667 20.2137 8.77043 20.2416 8.61111C20.3948 7.74054 20.2473 6.87566 19.923 6.06457C19.8195 5.80386 19.7063 5.54574 19.5868 5.29176C19.565 5.24417 19.4512 5.06882 19.4844 5.01191C19.503 4.98088 19.6214 5.12934 19.6292 5.13865C19.7849 5.33314 19.9018 5.55661 20.0244 5.77283C20.4651 6.55081 20.7584 7.41776 20.8665 8.30695C20.9017 8.59663 20.9172 8.88992 20.926 9.18063C20.9265 9.20494 20.9457 9.57066 20.9508 9.56807C20.9953 9.54841 21.0113 9.31874 21.0191 9.27891C21.0703 8.99441 21.1143 8.70836 21.1748 8.42593C21.1862 8.37161 21.2146 8.11711 21.2979 8.10729C21.36 8.10004 21.3993 8.32868 21.4091 8.36541C21.4769 8.62663 21.526 8.89199 21.6021 9.15063C21.614 9.18994 21.66 9.41703 21.7314 9.32029C21.8478 9.16149 21.8804 8.89613 21.9388 8.71146C22.0526 8.3561 22.184 8.00693 22.3759 7.68519C22.6744 7.18654 23.2082 6.91342 23.4901 6.4158C23.6505 6.13285 23.7317 5.80903 23.7803 5.48988C23.7974 5.37815 23.8145 5.26641 23.8253 5.15417C23.8269 5.14227 23.8393 4.97053 23.8527 4.97571C23.9112 4.99795 23.9319 5.31038 23.9396 5.36159C24.0022 5.76817 24.0017 6.18871 23.9117 6.59167C23.7436 7.34431 23.3293 8.02866 23.0018 8.72026C22.9128 8.90803 22.8508 9.36995 22.6625 9.49462C22.5151 9.59186 22.2218 9.53703 22.0588 9.536C21.5162 9.53393 20.9736 9.50703 20.4315 9.50031C19.1781 9.48479 17.8787 9.33219 16.7469 8.75853C15.2065 7.97797 14.0224 6.25648 13.4224 4.68293" fill="#665135" fill-opacity="0.2118"/>
</g>
</g>
</g>
<mask id="mask3_221_47" style="mask-type:luminance" maskUnits="userSpaceOnUse" x="21" y="8" width="9" height="17">
<path d="M21.838 8.5697H29.3861V24.8576H21.838V8.5697Z" fill="white"/>
</mask>
<g mask="url(#mask3_221_47)">
<mask id="mask4_221_47" style="mask-type:luminance" maskUnits="userSpaceOnUse" x="8" y="2" width="23" height="25">
<path d="M8.04587 5.63469L27.2528 2.91693L30.2163 23.8753L11.0099 26.5931L8.04587 5.63469Z" fill="white"/>
</mask>
<g mask="url(#mask4_221_47)">
<mask id="mask5_221_47" style="mask-type:luminance" maskUnits="userSpaceOnUse" x="10" y="4" width="20" height="22">
<path fill-rule="evenodd" clip-rule="evenodd" d="M17.5157 9.00473C7.74952 17.0918 6.60738 25.2487 20.5138 25.1023C30.6053 24.9963 33.0763 16.2399 22.7163 9.22612C22.5694 8.18795 22.8617 7.30135 23.8373 5.59951C24.0628 4.75429 22.6941 4.82205 20.9835 6.01126C20.791 5.48623 20.4377 5.23121 19.86 5.35277C18.9097 5.20535 18.0986 5.47795 17.3579 5.96781C17.2327 4.97102 16.2778 4.72377 15.1243 4.65497C15.7233 6.45664 16.5215 7.905 17.5157 9.00473Z" fill="white"/>
</mask>
<g mask="url(#mask5_221_47)">
<path fill-rule="evenodd" clip-rule="evenodd" d="M21.8763 9.61513C21.881 9.5215 22.5012 10.3269 22.5602 10.4335C22.9983 11.2228 23.3092 12.0763 23.739 12.8724C23.7499 12.8926 23.8984 13.2029 23.933 13.1895C24.2268 13.0778 23.6304 10.5783 23.3676 10.0822C23.1912 9.74962 22.9605 9.44908 22.6952 9.1832C22.6947 9.18268 22.6434 9.13354 22.6595 9.12941C22.8105 9.08906 24.3836 10.7868 24.5206 10.9393C26.5256 13.1652 28.2786 16.0433 28.3661 19.1149C28.4059 20.5126 28.1043 21.8492 27.4169 23.071C27.0941 23.6452 26.6265 24.1252 26.3032 24.6916C26.2887 24.7164 26.2416 24.8033 26.2716 24.838C26.3585 24.9384 26.9141 24.3895 26.9596 24.3461C27.6636 23.6767 28.3242 22.9499 28.8678 22.1425C30.372 19.9058 30.5821 16.8865 29.2361 14.5163C28.649 13.4823 27.8183 12.5445 26.9348 11.7494C25.9602 10.8721 24.2868 10.0346 23.8409 8.698" fill="#665135" fill-opacity="0.302"/>
</g>
</g>
</g>
<mask id="mask6_221_47" style="mask-type:luminance" maskUnits="userSpaceOnUse" x="10" y="8" width="11" height="11">
<path d="M10.0525 8.5697H20.6463V18.2365H10.0525V8.5697Z" fill="white"/>
</mask>
<g mask="url(#mask6_221_47)">
<mask id="mask7_221_47" style="mask-type:luminance" maskUnits="userSpaceOnUse" x="8" y="2" width="23" height="25">
<path d="M8.04623 5.63469L27.2532 2.91693L30.2166 23.8753L11.0102 26.5931L8.04623 5.63469Z" fill="white"/>
</mask>
<g mask="url(#mask7_221_47)">
<mask id="mask8_221_47" style="mask-type:luminance" maskUnits="userSpaceOnUse" x="10" y="4" width="20" height="22">
<path fill-rule="evenodd" clip-rule="evenodd" d="M17.516 9.00473C7.74982 17.0918 6.60768 25.2487 20.5141 25.1023C30.6056 24.9963 33.0766 16.2399 22.7166 9.22612C22.5697 8.18795 22.862 7.30135 23.8376 5.59951C24.0631 4.75429 22.6944 4.82205 20.9838 6.01126C20.7914 5.48623 20.4381 5.23121 19.8603 5.35277C18.91 5.20535 18.0989 5.47795 17.3582 5.96781C17.233 4.97102 16.2781 4.72377 15.1246 4.65497C15.7236 6.45664 16.5218 7.905 17.516 9.00473Z" fill="white"/>
</mask>
<g mask="url(#mask8_221_47)">
<path fill-rule="evenodd" clip-rule="evenodd" d="M20.2566 9.32284C20.0662 9.38233 20.3486 11.9139 20.2467 11.9589C20.0931 12.0266 19.5282 10.7619 19.385 9.99013C19.3591 9.84943 19.3436 9.70666 19.3472 9.56338C19.3472 9.55458 19.3601 9.37302 19.3581 9.37302C19.3379 9.37302 19.2965 9.56027 19.2919 9.57527C19.1548 10.0341 19.012 10.631 18.7523 11.033C18.7358 11.0578 18.7068 11.1007 18.6711 11.0971C18.4777 11.0769 18.5056 9.60217 18.5304 9.32129C18.5351 9.27525 18.5134 9.26646 18.4709 9.27784C16.5001 9.81529 12.9521 13.744 11.824 15.3093C11.1618 16.2285 9.96488 18.2003 9.86349 18.1853C9.75952 18.1708 9.94056 17.6039 9.95298 17.562C10.0357 17.2827 10.1356 17.009 10.2432 16.7385C10.7941 15.3517 11.4676 14.043 12.3402 12.8294C12.7887 12.2056 13.2904 11.6283 13.8289 11.0811C14.192 10.7112 14.5588 10.3439 14.9473 10.001C15.389 9.612 16.438 8.4921 17.1612 8.67315C17.4762 8.75177 17.7607 8.98248 18.0856 9.07145C18.8873 9.29232 19.7631 9.3275 20.5912 9.37871" fill="#665135" fill-opacity="0.302"/>
</g>
</g>
</g>
<path fill-rule="evenodd" clip-rule="evenodd" d="M16.7876 8.8366C16.7452 8.81746 16.695 8.81746 16.651 8.84126C16.5765 8.88109 16.5481 8.9742 16.5884 9.04869C16.6065 9.08334 16.6583 9.13248 16.7446 9.16042C16.8471 9.19301 17.0255 9.21628 17.0659 9.22611C17.2552 9.27215 17.4455 9.31612 17.6359 9.35802C17.8268 9.39888 18.0182 9.43768 18.2096 9.4744C18.8582 9.59803 19.5224 9.70045 20.1897 9.74959C20.8616 9.79822 21.5367 9.79253 22.2003 9.6989C22.4481 9.66373 22.7911 9.62234 23.0921 9.52147C23.3197 9.44492 23.523 9.33319 23.6575 9.17438L23.6565 9.17387C23.6751 9.15214 23.6844 9.13041 23.6885 9.11645C23.7077 9.04713 23.6761 8.97316 23.613 8.93954C23.5639 8.91368 23.5065 8.91678 23.4609 8.9442C23.4149 8.94989 23.1982 8.97523 23.179 8.9773C22.9695 9.00472 22.7585 9.02903 22.5474 9.05075C22.3369 9.07248 22.1258 9.0911 21.9143 9.1061C21.2449 9.15369 20.5838 9.13714 19.9259 9.08955C18.927 9.01713 17.9339 8.87436 16.9288 8.77194C16.8719 8.76574 16.8181 8.79263 16.7876 8.8366ZM19.2803 9.34198C19.5891 9.38543 19.9005 9.42061 20.2119 9.44337C20.8606 9.49044 21.5113 9.48527 22.1522 9.39578C22.0798 9.40147 22.0079 9.40716 21.9365 9.41233C21.2522 9.46044 20.5766 9.4444 19.9036 9.39578C19.6957 9.38078 19.4877 9.36215 19.2803 9.34198Z" fill="#665135"/>
<path fill-rule="evenodd" clip-rule="evenodd" d="M24.213 15.3657C23.9523 15.2829 23.718 15.3527 23.5209 15.5053C23.3005 15.676 23.1334 15.9652 23.0476 16.1364C22.8541 16.5197 22.6679 17.3794 22.283 17.9293C22.0947 18.1982 21.849 18.3829 21.4875 18.2691C21.325 18.2184 21.1512 18.3084 21.1005 18.4719C21.0493 18.6343 21.1399 18.8076 21.3023 18.8588C21.8165 19.0197 22.2137 18.88 22.5303 18.5847C22.8174 18.3177 23.0326 17.9018 23.1996 17.4792C23.3631 17.0665 23.4795 16.65 23.5985 16.4147C23.6481 16.3164 23.7314 16.1566 23.8468 16.0402C23.898 15.9885 23.9523 15.931 24.0263 15.9548C24.1882 16.006 24.362 15.916 24.4137 15.7536C24.4654 15.5912 24.3754 15.4174 24.213 15.3657Z" fill="#665135"/>
<path fill-rule="evenodd" clip-rule="evenodd" d="M19.0939 16.7188C19.2739 16.4519 19.6205 16.0676 19.9961 15.6765C20.6421 15.003 21.3746 14.3125 21.5489 14.1449C21.6715 14.0269 21.6756 13.8314 21.5577 13.7078C21.4398 13.5852 21.2442 13.5816 21.1211 13.6995C20.9447 13.8692 20.204 14.5675 19.5507 15.2487C19.3303 15.4784 19.1203 15.7065 18.9434 15.9129C18.9398 15.7707 18.9362 15.6274 18.932 15.4851C18.9129 14.8778 18.885 14.2711 18.8529 13.6628C18.8436 13.4926 18.6977 13.3622 18.528 13.371C18.3573 13.3803 18.227 13.5257 18.2358 13.6959C18.2684 14.299 18.2963 14.9011 18.3144 15.5037C18.333 16.1048 18.3423 16.7054 18.3366 17.308C18.333 17.7301 18.3299 18.2525 18.5322 18.5629C18.663 18.7615 18.8596 18.9012 19.1658 18.9245C19.2864 18.9338 19.4079 18.9322 19.5279 18.9183C19.6505 18.9043 19.7716 18.8769 19.89 18.8355C19.9655 18.8086 20.0405 18.7771 20.1135 18.7403C20.1874 18.7031 20.2593 18.6607 20.3276 18.6115C20.3788 18.5753 20.4275 18.5355 20.4735 18.492C20.519 18.4496 20.562 18.4036 20.6018 18.3539C20.8971 17.9893 20.8666 17.7068 20.728 17.4922C20.6411 17.3577 20.4859 17.2392 20.2826 17.1466C20.0214 17.0276 19.6691 16.9423 19.3774 16.8445C19.3257 16.8275 19.276 16.8093 19.23 16.7912C19.1855 16.7726 19.1307 16.7411 19.0939 16.7188ZM18.9537 17.3442C18.9512 17.5672 18.9393 17.8232 18.9827 18.0384C19.0096 18.1739 19.0567 18.2965 19.2129 18.3084C19.2941 18.3151 19.3758 18.3141 19.4565 18.3048C19.5336 18.2955 19.6102 18.2789 19.6852 18.2525C19.7364 18.235 19.7866 18.2137 19.8357 18.1894C19.8817 18.1656 19.9267 18.1393 19.9697 18.1087L20.1223 17.9649C20.1533 17.9272 20.1766 17.892 20.1931 17.8589C20.1983 17.8486 20.203 17.833 20.2056 17.8242C20.19 17.8108 20.1311 17.7611 20.0835 17.7368C19.9971 17.6913 19.8947 17.653 19.7855 17.6168C19.5031 17.5232 19.186 17.4446 18.9537 17.3442Z" fill="#665135"/>
<path fill-rule="evenodd" clip-rule="evenodd" d="M16.5862 15.6802C16.5448 15.6755 16.4977 15.6792 16.445 15.6967C16.4056 15.7102 16.297 15.7821 16.2861 15.7898L16.0922 15.9424C16.0042 16.018 15.9189 16.0981 15.8372 16.1825C15.7565 16.2657 15.6784 16.3532 15.6044 16.4442C15.3235 16.7923 14.9785 17.4017 14.9423 17.9205C14.9107 18.3804 15.0809 18.7849 15.6204 18.9845C16.0322 19.1366 16.5639 19.0802 16.9845 18.833C17.3905 18.5935 17.6921 18.1853 17.703 17.6396C17.7092 17.351 17.6461 17.0686 17.5395 16.8006C17.3885 16.4189 17.1479 16.0687 16.9141 15.7811C16.8329 15.6817 16.702 15.6455 16.5862 15.6802ZM16.5732 16.3485L16.4946 16.4106C16.4206 16.4742 16.3487 16.5414 16.2799 16.6123C16.2122 16.6827 16.147 16.7561 16.0849 16.8327C15.8677 17.1011 15.5863 17.5636 15.5583 17.9634C15.5449 18.1533 15.6116 18.3224 15.8346 18.4052C16.0875 18.4988 16.4129 18.4523 16.671 18.3002C16.9017 18.1647 17.0796 17.9371 17.0859 17.6272C17.0915 17.367 17.0134 17.1141 16.9007 16.8797C16.8091 16.6889 16.6932 16.5104 16.5732 16.3485ZM16.2422 15.9843C16.2396 16.0635 16.2634 16.123 16.297 16.1685C16.2608 16.1157 16.2406 16.0521 16.2422 15.9843Z" fill="#665135"/>
<path fill-rule="evenodd" clip-rule="evenodd" d="M24.0542 15.0759L24.0594 15.0801L24.0614 15.0806L24.0645 15.0822L24.0666 15.0842L24.0676 15.0847C24.1742 15.1458 24.3123 15.1406 24.4147 15.0584C24.5477 14.9528 24.5694 14.7578 24.4634 14.6244C24.4137 14.5628 24.3646 14.539 24.3268 14.5256C24.3185 14.5225 24.3092 14.5194 24.3004 14.5178C24.1959 14.4863 24.079 14.5121 23.9957 14.5933C23.8742 14.7128 23.8726 14.9089 23.9921 15.0294C24.0113 15.0496 24.0325 15.0651 24.0542 15.0759ZM24.0568 15.0775C24.0283 15.0599 24.003 15.0372 23.9807 15.0092C24.0056 15.0413 24.0309 15.0615 24.0542 15.0759L24.0568 15.0775L24.0594 15.0801L24.0645 15.0822L24.0676 15.0847C24.0832 15.093 24.0982 15.0987 24.1116 15.1039C24.1504 15.1184 24.2063 15.1204 24.242 15.1194C24.1996 15.1194 24.1251 15.1142 24.0568 15.0775ZM24.1711 14.5101C24.1623 14.5111 24.1571 14.5116 24.1571 14.5116L24.1711 14.5101Z" fill="#665135"/>
<path fill-rule="evenodd" clip-rule="evenodd" d="M15.8951 14.8799C15.8403 14.9539 15.8196 15.0527 15.847 15.1484C15.8941 15.3118 16.0653 15.4065 16.2288 15.3594C16.2613 15.3501 16.295 15.3346 16.3265 15.3118C16.3576 15.2886 16.4201 15.2022 16.4201 15.2022C16.4201 15.2022 16.415 15.2115 16.4129 15.2151C16.4998 15.0687 16.4517 14.8794 16.3053 14.792C16.1656 14.7092 15.9872 14.7491 15.8951 14.8799ZM16.01 14.7847L16.0068 14.7858L16.011 14.7837L16.01 14.7847ZM16.0218 14.7791L16.0182 14.7806L16.025 14.7775L16.0218 14.7791ZM16.0337 14.7739L16.0312 14.7754L16.0394 14.7718L16.0337 14.7739ZM16.0441 14.7703L16.0581 14.7661C16.0539 14.7672 16.0487 14.7687 16.0441 14.7703Z" fill="#665135"/>
<path fill-rule="evenodd" clip-rule="evenodd" d="M17.2478 15.1996H17.2484L17.2499 15.196L17.252 15.1929C17.3208 15.0558 17.2799 14.8862 17.1501 14.7977C17.0089 14.702 16.8164 14.7387 16.7207 14.88C16.7088 14.8981 16.6985 14.9162 16.6907 14.9353C16.6804 14.9591 16.6726 14.985 16.668 15.0139C16.6432 15.1826 16.7601 15.3393 16.9287 15.3646C17.0627 15.3843 17.1894 15.3145 17.2478 15.1996Z" fill="#665135"/>
<path fill-rule="evenodd" clip-rule="evenodd" d="M16.927 9.09162C16.9746 9.12732 17.0414 9.13352 17.0962 9.10093C17.1696 9.058 17.194 8.96437 17.151 8.89092C17.0708 8.75333 16.9902 8.62039 16.9007 8.49003C16.8412 8.40261 16.7776 8.31675 16.7082 8.23243C16.5867 8.08501 16.4548 7.93448 16.3011 7.81861C16.1889 7.73326 16.0653 7.66653 15.9256 7.62981C15.7099 7.57239 15.5506 7.64222 15.4471 7.76585C15.3095 7.92931 15.278 8.21174 15.3752 8.43055C15.4688 8.64056 15.6458 8.8035 15.8609 8.91989C16.1517 9.07714 16.5117 9.15008 16.7977 9.15732C16.851 9.15835 16.8986 9.13249 16.927 9.09162ZM16.7677 8.84902C16.7424 8.80712 16.716 8.76574 16.6886 8.72488C16.6219 8.62401 16.551 8.52417 16.4713 8.42796C16.3648 8.29864 16.251 8.16518 16.1165 8.06328C16.0353 8.00224 15.9468 7.9531 15.8465 7.9262C15.7523 7.90086 15.6866 7.93965 15.6551 8.00586C15.6126 8.09277 15.6132 8.2107 15.6556 8.30588C15.7399 8.49469 15.9235 8.62194 16.1289 8.70832C16.3374 8.79574 16.5706 8.83971 16.7677 8.84902Z" fill="#665135"/>
<path fill-rule="evenodd" clip-rule="evenodd" d="M17.0446 9.06109C17.2945 9.05954 17.5634 9.02798 17.8014 8.93384C17.9824 8.86297 18.1459 8.75693 18.2742 8.60433C18.4149 8.43726 18.4811 8.14551 18.4071 7.93705C18.3487 7.77152 18.2173 7.64634 17.9809 7.64376C17.7823 7.6422 17.5929 7.741 17.429 7.89205C17.2241 8.08034 17.056 8.34828 16.95 8.5345C16.935 8.5614 16.7829 8.80866 16.7555 8.91367C16.7249 9.03057 16.7839 9.09937 16.832 9.12626C16.906 9.16816 16.9991 9.14178 17.041 9.06781L17.0446 9.06109ZM17.1817 8.74969C17.3162 8.74193 17.4527 8.72227 17.5826 8.68451C17.7574 8.6333 17.9204 8.54847 18.0393 8.40674C18.1055 8.32863 18.1423 8.20241 18.1299 8.0943C18.1252 8.05189 18.1133 8.01206 18.0849 7.98464C18.06 7.96136 18.0243 7.95153 17.9778 7.95102C17.8531 7.94947 17.7398 8.02344 17.6364 8.1181C17.4559 8.28362 17.31 8.52209 17.2169 8.68658C17.2133 8.69227 17.1998 8.7171 17.1817 8.74969Z" fill="#665135"/>
<path fill-rule="evenodd" clip-rule="evenodd" d="M16.8799 9.16767C16.9342 9.15577 16.9797 9.11439 16.9952 9.05697C17.0211 8.95921 16.9911 8.90593 16.9771 8.88524C16.9549 8.85213 16.9249 8.83299 16.8913 8.82316C16.8571 8.81282 16.8018 8.80816 16.7423 8.85161C16.7097 8.87541 16.6502 8.94731 16.6063 9.01818C16.57 9.07559 16.5442 9.13301 16.5385 9.15991C16.5168 9.25561 16.5085 9.35647 16.5085 9.45889C16.5085 9.60011 16.524 9.7434 16.5395 9.87633C16.5576 10.0362 16.585 10.1939 16.5995 10.3538C16.6088 10.4526 16.6135 10.5514 16.6068 10.6517C16.5969 10.811 16.5685 10.9678 16.5307 11.123C16.4718 11.3635 16.389 11.5999 16.3093 11.8332C16.2824 11.9128 16.3254 12.0003 16.4055 12.0277C16.4852 12.0546 16.5726 12.0116 16.6 11.932C16.6823 11.6904 16.7676 11.4452 16.8292 11.1959C16.8711 11.0236 16.9021 10.8488 16.9135 10.6714C16.9208 10.555 16.9156 10.4402 16.9052 10.3248C16.8902 10.1634 16.8628 10.0031 16.8447 9.84116C16.8302 9.7196 16.8152 9.58821 16.8152 9.45941C16.8152 9.37975 16.8214 9.30113 16.838 9.22664C16.8375 9.22819 16.837 9.23336 16.837 9.23336L16.8799 9.16767Z" fill="#665135"/>
<path fill-rule="evenodd" clip-rule="evenodd" d="M16.9036 8.91008C16.9083 8.8449 16.8721 8.78179 16.809 8.75593C16.7309 8.72334 16.6414 8.7611 16.6088 8.83921C16.5954 8.87128 16.5886 8.93025 16.6098 9.00112C16.6331 9.08181 16.6957 9.2044 16.7076 9.23751C16.7552 9.37355 16.7976 9.51115 16.8359 9.64978C16.8742 9.78944 16.9083 9.93066 16.9409 10.0734C17.0635 10.6109 17.2094 11.2228 17.2425 11.8228C17.2642 12.2144 17.2383 12.5998 17.1225 12.9557C17.0956 13.0359 17.1395 13.1228 17.2202 13.1491C17.3009 13.1755 17.3873 13.1316 17.4137 13.0509C17.542 12.6603 17.573 12.2356 17.5492 11.8063C17.5146 11.1882 17.3656 10.5586 17.2404 10.0051C17.2068 9.85824 17.1711 9.71289 17.1312 9.56857C17.0919 9.42321 17.0475 9.27837 16.9968 9.13509C16.9859 9.1056 16.9171 8.94215 16.9036 8.91008Z" fill="#665135"/>
<path fill-rule="evenodd" clip-rule="evenodd" d="M18.4169 21.0241C18.418 21.0236 18.4195 21.0231 18.4211 21.0231C18.4242 21.0231 18.4273 21.0241 18.4288 21.0267C18.4485 21.0759 18.4392 21.1276 18.4211 21.1762C18.3957 21.243 18.3523 21.305 18.3083 21.3552C18.2923 21.3738 18.1635 21.483 18.1314 21.5383C18.0859 21.6169 18.105 21.6837 18.1319 21.724C18.1578 21.7628 18.2074 21.8001 18.2798 21.8161C18.3611 21.8342 18.4971 21.8239 18.5421 21.8285L18.7423 21.8606C18.8256 21.8766 18.9063 21.8218 18.9218 21.7385C18.9378 21.6552 18.8825 21.575 18.7997 21.559L18.5726 21.5228L18.5685 21.5223C18.6378 21.4349 18.7009 21.3278 18.7294 21.2166C18.7547 21.1157 18.7531 21.0112 18.7128 20.9109C18.6668 20.7991 18.5711 20.734 18.4671 20.7195C18.3657 20.705 18.2566 20.7391 18.1805 20.8255C18.1428 20.8679 18.0957 20.9626 18.0967 21.0371C18.0983 21.1059 18.1272 21.1654 18.1888 21.2052C18.2597 21.2517 18.3548 21.2316 18.4009 21.1607C18.4283 21.1188 18.4324 21.0681 18.4169 21.0241Z" fill="#665135"/>
<path fill-rule="evenodd" clip-rule="evenodd" d="M18.8694 21.6288C18.8394 21.7043 18.873 21.7907 18.948 21.8254C19.0251 21.8605 19.1161 21.8269 19.1513 21.7498C19.1611 21.7286 19.1689 21.7064 19.174 21.6836C19.1787 21.664 19.1808 21.6438 19.1802 21.6236C19.1802 21.6003 19.1658 21.5455 19.1596 21.5326C19.1389 21.4912 19.1109 21.4736 19.0959 21.4648C19.0282 21.4276 18.9682 21.4374 18.9149 21.4881C18.903 21.499 18.8683 21.5284 18.8673 21.5978C18.8668 21.6086 18.8678 21.619 18.8694 21.6288ZM19.0949 21.7348C19.0633 21.755 19.0287 21.7607 18.9914 21.7514C18.9997 21.7529 19.0085 21.754 19.0173 21.754C19.0458 21.755 19.0721 21.7478 19.0949 21.7348ZM19.1735 21.6128C19.1709 21.6443 19.1585 21.6738 19.1399 21.6971C19.1533 21.6821 19.1704 21.6562 19.1735 21.6128Z" fill="#665135"/>
<path fill-rule="evenodd" clip-rule="evenodd" d="M19.4705 21.094C19.47 21.0893 19.4689 21.0805 19.4689 21.0754C19.4689 21.0604 19.4689 21.0448 19.4694 21.0278L19.4689 20.9766C19.4715 20.9574 19.47 20.9378 19.4648 20.9176C19.4425 20.8359 19.3582 20.7878 19.2765 20.81C19.2615 20.8136 19.1679 20.8467 19.1622 20.9569C19.1617 20.974 19.1627 21.0174 19.1627 21.021C19.1611 21.0971 19.1642 21.1597 19.187 21.215C19.2067 21.2621 19.2387 21.3066 19.2967 21.3474C19.3329 21.3728 19.3717 21.3909 19.4131 21.4038C19.4591 21.4183 19.5082 21.4256 19.5558 21.4354C19.5843 21.4411 19.6143 21.4431 19.6339 21.469L19.6153 21.4871C19.5744 21.5114 19.5284 21.5223 19.4818 21.5269C19.4229 21.5331 19.3629 21.5295 19.3055 21.5238C19.2211 21.5156 19.1461 21.5771 19.1379 21.6614C19.1296 21.7457 19.1911 21.8213 19.2755 21.829C19.3696 21.8389 19.4694 21.842 19.5641 21.8254C19.6375 21.813 19.7079 21.7892 19.7726 21.7509C19.8491 21.7049 19.905 21.633 19.9283 21.5544C19.9541 21.4659 19.9433 21.3687 19.8776 21.2828C19.831 21.2217 19.7746 21.185 19.712 21.1612C19.6686 21.1447 19.622 21.1354 19.5744 21.1266C19.5398 21.1198 19.5031 21.1173 19.4741 21.0971L19.4705 21.094Z" fill="#665135"/>
<path fill-rule="evenodd" clip-rule="evenodd" d="M19.3615 21.0727C19.3709 21.0733 19.3822 21.0738 19.3843 21.0738L19.4924 21.0764L19.8509 21.0955C19.9357 21.0996 20.0076 21.0345 20.0123 20.9501C20.0169 20.8653 19.9518 20.7929 19.8669 20.7888L19.5022 20.7696L19.3895 20.767C19.3807 20.767 19.3222 20.7644 19.3036 20.7686C19.2131 20.7862 19.1867 20.8529 19.1789 20.8901C19.1717 20.9284 19.1712 20.9786 19.2203 21.0293C19.2581 21.0681 19.3119 21.0826 19.3615 21.0727ZM19.4469 20.8224C19.4712 20.8508 19.4831 20.886 19.4836 20.9212C19.4847 20.8912 19.4774 20.8565 19.4469 20.8224Z" fill="#665135"/>
<path fill-rule="evenodd" clip-rule="evenodd" d="M20.4761 20.9134C20.4714 20.9305 20.4668 20.9496 20.4657 20.96L20.4512 21.1653L20.4109 21.7064L20.3943 21.905L20.3897 21.9557C20.3887 21.9651 20.385 21.9883 20.3845 21.9951C20.383 22.0157 20.3856 22.0302 20.3866 22.0364C20.3964 22.0871 20.4233 22.113 20.4404 22.1264C20.4781 22.1575 20.5195 22.1673 20.565 22.159C20.5738 22.1575 20.6571 22.1528 20.6866 22.0468C20.7238 21.9092 20.7714 21.7199 20.8495 21.5595C20.8935 21.47 20.9447 21.3883 21.0166 21.3428C21.0885 21.2967 21.1092 21.2021 21.0637 21.1307C21.0182 21.0593 20.9235 21.0381 20.8521 21.0836C20.819 21.1043 20.7885 21.1291 20.759 21.1576L20.7709 20.9931C20.7766 20.9724 20.7926 20.9139 20.7916 20.8933C20.7901 20.8514 20.7751 20.8188 20.7533 20.7934C20.7285 20.7639 20.6933 20.7391 20.6375 20.735C20.5531 20.7298 20.4802 20.7939 20.4745 20.8783C20.4735 20.8902 20.4745 20.9021 20.4761 20.9134ZM20.5506 21.021C20.5661 21.0309 20.5852 21.0381 20.6085 21.0407C20.5878 21.0381 20.5681 21.0314 20.5506 21.021Z" fill="#665135"/>
<path fill-rule="evenodd" clip-rule="evenodd" d="M20.4963 21.5766L20.4973 21.5843L20.5097 21.6371L20.5651 21.7768C20.6101 21.8699 20.6659 21.9588 20.742 22.0189C20.8041 22.068 20.8791 22.1006 20.9717 22.1052C21.0565 22.1099 21.1289 22.0447 21.133 21.9604C21.1377 21.8761 21.0725 21.8037 20.9882 21.799C20.9582 21.7975 20.936 21.7835 20.9179 21.7649C20.8853 21.7323 20.863 21.6878 20.8413 21.6438L20.8056 21.5559L20.7989 21.5264C20.7958 21.5114 20.788 21.4747 20.7844 21.4664C20.7601 21.4121 20.7203 21.3924 20.6965 21.3836C20.6572 21.3692 20.6178 21.3697 20.578 21.3883C20.5599 21.3971 20.5113 21.4173 20.4932 21.4928C20.4859 21.5217 20.4875 21.5502 20.4963 21.5766ZM20.7891 21.5735C20.7823 21.5957 20.771 21.6154 20.7559 21.6319C20.7678 21.62 20.7808 21.6019 20.7891 21.5735Z" fill="#665135"/>
<path fill-rule="evenodd" clip-rule="evenodd" d="M21.3974 21.8668C21.3917 21.9087 21.3834 21.9547 21.37 21.9981C21.3622 22.0245 21.3529 22.0494 21.3405 22.0711C21.3363 22.0783 21.3281 22.0881 21.3244 22.0923C21.3198 22.0912 21.3125 22.0892 21.3074 22.0876C21.2293 22.0545 21.1392 22.0918 21.1067 22.1699C21.0736 22.248 21.1108 22.338 21.1889 22.3706C21.3358 22.4316 21.4455 22.397 21.5288 22.322C21.5862 22.2702 21.6307 22.1911 21.6596 22.1016C21.6927 21.9976 21.7067 21.8802 21.7129 21.8052L21.7233 21.6547L21.731 21.4912C21.732 21.47 21.7315 21.4276 21.7305 21.3909L21.7398 21.3345L21.7439 21.2905C21.745 21.2724 21.7414 21.2279 21.7383 21.2181C21.7176 21.1493 21.6689 21.125 21.6343 21.1146C21.627 21.1126 21.6198 21.111 21.612 21.11C21.5763 21.0857 21.5334 21.0784 21.4863 21.0852C21.4574 21.0893 21.4232 21.1022 21.3901 21.1234C21.3472 21.1514 21.3043 21.1969 21.2918 21.2114C21.2339 21.2796 21.1439 21.4395 21.133 21.5704C21.1248 21.6707 21.1553 21.7576 21.2256 21.8181C21.2768 21.8616 21.3343 21.8745 21.3917 21.8678L21.3974 21.8668ZM21.4108 21.3376L21.4067 21.3319C21.4082 21.334 21.4093 21.336 21.4108 21.3376Z" fill="#665135"/>
<path fill-rule="evenodd" clip-rule="evenodd" d="M21.4237 30.6154C21.1707 25.4132 23.6878 20.751 27.0894 17.1394C28.0318 17.9867 27.3071 19.6476 26.2017 21.709L29.4481 20.437C29.7808 19.7728 29.9597 19.1293 29.9566 18.5102C29.4409 17.4203 29.295 16.5254 29.9815 16.0681L31.0031 17.7094C30.8515 16.1395 30.7786 14.672 31.7143 14.5303L32.3475 16.5254C32.6677 15.0858 33.2832 14.1878 34.3198 14.0668L33.8553 16.933C33.7643 15.9212 36.3874 14.8266 36.3336 14.9534C35.2815 17.4456 33.1818 22.0985 30.7481 23.9177C26.3936 26.6986 25.1237 29.1179 25.1098 31.6908L21.4237 30.6154Z" fill="#F4E8E0"/>
<mask id="mask9_221_47" style="mask-type:luminance" maskUnits="userSpaceOnUse" x="26" y="13" width="10" height="9">
<path d="M26.8702 13.999H35.4776V21.0174H26.8702V13.999Z" fill="white"/>
</mask>
<g mask="url(#mask9_221_47)">
<mask id="mask10_221_47" style="mask-type:luminance" maskUnits="userSpaceOnUse" x="16" y="11" width="25" height="23">
<path d="M34.1648 11.9517L16.938 24.5432L23.2053 33.1232L40.4326 20.5317L34.1648 11.9517Z" fill="white"/>
</mask>
<g mask="url(#mask10_221_47)">
<mask id="mask11_221_47" style="mask-type:luminance" maskUnits="userSpaceOnUse" x="21" y="14" width="16" height="18">
<path fill-rule="evenodd" clip-rule="evenodd" d="M21.4236 30.6154C21.1707 25.4132 23.6877 20.751 27.0893 17.1394C28.0318 17.9867 27.3071 19.6476 26.2017 21.709L29.4481 20.437C29.7807 19.7728 29.9597 19.1293 29.9566 18.5102C29.4409 17.4203 29.295 16.5254 29.9814 16.0681L31.003 17.7094C30.8515 16.1395 30.7785 14.672 31.7143 14.5303L32.3474 16.5254C32.6676 15.0858 33.2832 14.1878 34.3198 14.0668L33.8553 16.933C33.7642 15.9212 36.3873 14.8266 36.3335 14.9534C35.2814 17.4456 33.1818 22.0985 30.748 23.9177C26.3936 26.6986 25.1237 29.1179 25.1097 31.6908L21.4236 30.6154Z" fill="white"/>
</mask>
<g mask="url(#mask11_221_47)">
<path fill-rule="evenodd" clip-rule="evenodd" d="M26.9923 20.9853C31.0674 20.0211 32.4521 19.4837 35.3618 14.1356C35.3618 14.1356 32.3993 12.6479 29.3324 14.6197C29.1364 14.746 27.223 21.169 26.9923 20.9853Z" fill="#665135" fill-opacity="0.2784"/>
</g>
</g>
</g>
<mask id="mask12_221_47" style="mask-type:luminance" maskUnits="userSpaceOnUse" x="30" y="14" width="2" height="7">
<path d="M30.1806 14.3962H31.6372V20.0904H30.1806V14.3962Z" fill="white"/>
</mask>
<g mask="url(#mask12_221_47)">
<mask id="mask13_221_47" style="mask-type:luminance" maskUnits="userSpaceOnUse" x="16" y="11" width="25" height="23">
<path d="M34.1647 11.9516L16.9379 24.5431L23.2052 33.1231L40.4326 20.5316L34.1647 11.9516Z" fill="white"/>
</mask>
<g mask="url(#mask13_221_47)">
<mask id="mask14_221_47" style="mask-type:luminance" maskUnits="userSpaceOnUse" x="21" y="14" width="16" height="18">
<path fill-rule="evenodd" clip-rule="evenodd" d="M21.4236 30.6154C21.1706 25.4131 23.6877 20.7509 27.0893 17.1393C28.0318 17.9866 27.3071 19.6476 26.2016 21.7089L29.4481 20.4369C29.7807 19.7728 29.9596 19.1293 29.9565 18.5101C29.4408 17.4202 29.2949 16.5253 29.9814 16.068L31.003 17.7094C30.8514 16.1394 30.7785 14.6719 31.7142 14.5302L32.3474 16.5253C32.6676 15.0857 33.2831 14.1878 34.3197 14.0667L33.8552 16.9329C33.7642 15.9211 36.3873 14.8266 36.3335 14.9533C35.2814 17.4455 33.1817 22.0984 30.748 23.9177C26.3935 26.6986 25.1236 29.1178 25.1097 31.6908L21.4236 30.6154Z" fill="white"/>
</mask>
<g mask="url(#mask14_221_47)">
<path fill-rule="evenodd" clip-rule="evenodd" d="M30.3378 19.9864C30.5809 19.6833 30.7625 19.3828 30.8944 19.0827C30.9947 18.8536 31.0666 18.6265 31.1163 18.402C31.1784 18.1191 31.2068 17.8418 31.2104 17.5733C31.2146 17.2878 31.1897 17.0126 31.1613 16.7509C31.1246 16.4043 31.0759 16.082 31.063 15.7867C31.0402 15.2709 31.1215 14.8406 31.5436 14.5131C31.5487 14.5095 31.5503 14.5023 31.5467 14.4971C31.5425 14.4919 31.5358 14.4909 31.5301 14.4945C31.1463 14.7366 30.9875 15.0728 30.928 15.4784C30.868 15.8844 30.9104 16.3603 30.9311 16.8838C30.9368 17.0328 30.9404 17.1859 30.9414 17.3416C30.9425 17.4901 30.9404 17.6411 30.9321 17.7952C30.9244 17.9421 30.9114 18.0916 30.8902 18.2442C30.8602 18.4589 30.8147 18.6787 30.7459 18.9038C30.6435 19.2374 30.4945 19.5819 30.2669 19.9352C30.253 19.9549 30.2571 19.9823 30.2767 19.9962C30.2964 20.0102 30.3233 20.0061 30.3378 19.9864Z" fill="#665135" fill-opacity="0.5608"/>
</g>
</g>
</g>
<mask id="mask15_221_47" style="mask-type:luminance" maskUnits="userSpaceOnUse" x="31" y="13" width="4" height="7">
<path d="M31.6373 13.999H34.4182V19.1635H31.6373V13.999Z" fill="white"/>
</mask>
<g mask="url(#mask15_221_47)">
<mask id="mask16_221_47" style="mask-type:luminance" maskUnits="userSpaceOnUse" x="16" y="11" width="25" height="23">
<path d="M34.1648 11.9517L16.938 24.5432L23.2053 33.1232L40.4326 20.5317L34.1648 11.9517Z" fill="white"/>
</mask>
<g mask="url(#mask16_221_47)">
<mask id="mask17_221_47" style="mask-type:luminance" maskUnits="userSpaceOnUse" x="21" y="14" width="16" height="18">
<path fill-rule="evenodd" clip-rule="evenodd" d="M21.4236 30.6154C21.1706 25.4132 23.6877 20.751 27.0893 17.1394C28.0318 17.9867 27.3071 19.6476 26.2017 21.709L29.4481 20.437C29.7807 19.7728 29.9597 19.1293 29.9566 18.5102C29.4408 17.4203 29.295 16.5254 29.9814 16.0681L31.003 17.7094C30.8514 16.1395 30.7785 14.672 31.7143 14.5303L32.3474 16.5254C32.6676 15.0858 33.2831 14.1878 34.3198 14.0668L33.8553 16.933C33.7642 15.9212 36.3873 14.8266 36.3335 14.9534C35.2814 17.4456 33.1818 22.0985 30.748 23.9177C26.3936 26.6986 25.1237 29.1179 25.1097 31.6908L21.4236 30.6154Z" fill="white"/>
</mask>
<g mask="url(#mask17_221_47)">
<path fill-rule="evenodd" clip-rule="evenodd" d="M31.8089 19.0714C31.8731 18.6499 31.9595 18.2283 32.0562 17.8139C32.1214 17.5341 32.1928 17.2589 32.2698 16.9915C32.3366 16.7608 32.4069 16.5363 32.4814 16.32C32.5611 16.0909 32.6428 15.8711 32.7349 15.6652C32.9066 15.2798 33.1052 14.942 33.3406 14.6756C33.6163 14.3637 33.937 14.148 34.3141 14.0652C34.3203 14.0647 34.3244 14.0585 34.3234 14.0523C34.3224 14.0461 34.3167 14.042 34.3105 14.043C33.8377 14.1004 33.4265 14.3591 33.0726 14.7579C32.8714 14.985 32.6899 15.2576 32.5279 15.5648C32.4193 15.7723 32.3185 15.9942 32.231 16.23C32.1488 16.4509 32.0774 16.6832 32.0169 16.9232C31.9465 17.1984 31.8907 17.4834 31.8462 17.7736C31.781 18.1983 31.7448 18.6323 31.722 19.0626C31.72 19.087 31.737 19.1082 31.7608 19.1107C31.7851 19.1128 31.8063 19.0957 31.8089 19.0714Z" fill="#665135" fill-opacity="0.5608"/>
</g>
</g>
</g>
<path fill-rule="evenodd" clip-rule="evenodd" d="M21.312 26.5129C23.4675 27.3892 26.4641 28.4812 27.9724 28.5262C27.1774 31.4653 26.7615 32.8356 27.4081 35.2585L21.0435 33.9938C20.4228 32.8847 20.4316 29.8587 21.312 26.5129Z" fill="#F68F27"/>
<path fill-rule="evenodd" clip-rule="evenodd" d="M18.8452 30.5419C19.0981 25.3397 16.581 20.6775 13.1794 17.0659C12.237 17.9132 12.9617 19.5742 14.0671 21.6355L10.8207 20.3635C10.4881 19.6993 10.3091 19.0559 10.3122 18.4367C10.8279 17.3468 10.9738 16.4519 10.2874 15.9946L9.26627 17.6359C9.41731 16.0665 9.49025 14.599 8.5545 14.4568L7.92135 16.4519C7.60116 15.0123 6.9856 14.1148 5.94898 13.9933L6.4135 16.8595C6.50454 15.8477 3.88144 14.7532 3.93523 14.8799C4.98737 17.3721 7.08699 22.025 9.52077 23.8443C13.8752 26.6251 15.1451 29.0444 15.1591 31.6173L18.8452 30.5419Z" fill="#F4E8E0"/>
<mask id="mask18_221_47" style="mask-type:luminance" maskUnits="userSpaceOnUse" x="4" y="13" width="10" height="9">
<path d="M4.88812 13.8666H13.3631V21.0174H4.88812V13.8666Z" fill="white"/>
</mask>
<g mask="url(#mask18_221_47)">
<mask id="mask19_221_47" style="mask-type:luminance" maskUnits="userSpaceOnUse" x="-1" y="11" width="25" height="23">
<path d="M6.10414 11.8782L23.3309 24.4697L17.0631 33.0497L-0.163162 20.4582L6.10414 11.8782Z" fill="white"/>
</mask>
<g mask="url(#mask19_221_47)">
<mask id="mask20_221_47" style="mask-type:luminance" maskUnits="userSpaceOnUse" x="3" y="13" width="16" height="19">
<path fill-rule="evenodd" clip-rule="evenodd" d="M18.8451 30.5419C19.0981 25.3397 16.581 20.6775 13.1794 17.0659C12.237 17.9132 12.9617 19.5742 14.0671 21.6355L10.8207 20.3635C10.4881 19.6993 10.3091 19.0559 10.3122 18.4367C10.8279 17.3468 10.9738 16.4519 10.2874 15.9946L9.26625 17.6359C9.4173 16.0665 9.49023 14.599 8.55448 14.4568L7.92134 16.4519C7.60114 15.0123 6.98559 14.1148 5.94897 13.9933L6.41348 16.8595C6.50452 15.8477 3.88142 14.7532 3.93522 14.8799C4.98736 17.3721 7.08697 22.025 9.52075 23.8443C13.8752 26.6251 15.1451 29.0444 15.159 31.6173L18.8451 30.5419Z" fill="white"/>
</mask>
<g mask="url(#mask20_221_47)">
<path fill-rule="evenodd" clip-rule="evenodd" d="M13.2768 20.9119C9.20167 19.9477 7.81693 19.4102 4.90778 14.0626C4.90778 14.0626 7.86969 12.575 10.9366 14.5463C11.1327 14.6725 13.0461 21.0955 13.2768 20.9119Z" fill="#665135" fill-opacity="0.2784"/>
</g>
</g>
</g>
<mask id="mask21_221_47" style="mask-type:luminance" maskUnits="userSpaceOnUse" x="8" y="14" width="3" height="6">
<path d="M8.59586 14.3962H10.0525V19.958H8.59586V14.3962Z" fill="white"/>
</mask>
<g mask="url(#mask21_221_47)">
<mask id="mask22_221_47" style="mask-type:luminance" maskUnits="userSpaceOnUse" x="-1" y="11" width="25" height="23">
<path d="M6.10415 11.8782L23.331 24.4697L17.0631 33.0497L-0.163147 20.4582L6.10415 11.8782Z" fill="white"/>
</mask>
<g mask="url(#mask22_221_47)">
<mask id="mask23_221_47" style="mask-type:luminance" maskUnits="userSpaceOnUse" x="3" y="13" width="16" height="19">
<path fill-rule="evenodd" clip-rule="evenodd" d="M18.8452 30.5419C19.0981 25.3397 16.581 20.6775 13.1794 17.0659C12.237 17.9132 12.9617 19.5742 14.0671 21.6355L10.8207 20.3635C10.4881 19.6993 10.3091 19.0559 10.3122 18.4367C10.8279 17.3468 10.9738 16.4519 10.2874 15.9946L9.26627 17.6359C9.41731 16.0665 9.49025 14.599 8.5545 14.4568L7.92135 16.4519C7.60116 15.0123 6.9856 14.1148 5.94898 13.9933L6.4135 16.8595C6.50454 15.8477 3.88144 14.7532 3.93523 14.8799C4.98737 17.3721 7.08699 22.025 9.52077 23.8443C13.8752 26.6251 15.1451 29.0444 15.1591 31.6173L18.8452 30.5419Z" fill="white"/>
</mask>
<g mask="url(#mask23_221_47)">
<path fill-rule="evenodd" clip-rule="evenodd" d="M10.002 19.8618C9.77439 19.5085 9.62541 19.164 9.52299 18.8303C9.45419 18.6053 9.40867 18.3855 9.37867 18.1708C9.35746 18.0182 9.34453 17.8687 9.33677 17.7218C9.32901 17.5677 9.32694 17.4166 9.32746 17.2687C9.3285 17.1125 9.33212 16.9594 9.33781 16.8104C9.3585 16.2869 9.40091 15.811 9.34091 15.4055C9.28142 14.9999 9.12262 14.6637 8.7388 14.4211C8.73311 14.4175 8.72639 14.4185 8.72225 14.4237C8.71863 14.4288 8.72018 14.4361 8.72535 14.4397C9.14745 14.7671 9.22918 15.1975 9.2059 15.7132C9.19297 16.0086 9.14435 16.3309 9.10762 16.6774C9.07917 16.9392 9.05486 17.2144 9.05848 17.4999C9.0621 17.7684 9.09055 18.0461 9.15262 18.3286C9.20228 18.5531 9.27418 18.7802 9.37453 19.0093C9.50644 19.3093 9.688 19.6099 9.93112 19.913C9.9456 19.9326 9.9725 19.9368 9.99216 19.9228C10.0118 19.9089 10.016 19.8814 10.002 19.8618Z" fill="#665135" fill-opacity="0.5608"/>
</g>
</g>
</g>
<mask id="mask24_221_47" style="mask-type:luminance" maskUnits="userSpaceOnUse" x="5" y="13" width="4" height="7">
<path d="M5.8149 13.8666H8.59576V19.1635H5.8149V13.8666Z" fill="white"/>
</mask>
<g mask="url(#mask24_221_47)">
<mask id="mask25_221_47" style="mask-type:luminance" maskUnits="userSpaceOnUse" x="-1" y="11" width="25" height="23">
<path d="M6.10415 11.8782L23.331 24.4697L17.0631 33.0497L-0.163147 20.4582L6.10415 11.8782Z" fill="white"/>
</mask>
<g mask="url(#mask25_221_47)">
<mask id="mask26_221_47" style="mask-type:luminance" maskUnits="userSpaceOnUse" x="3" y="13" width="16" height="19">
<path fill-rule="evenodd" clip-rule="evenodd" d="M18.8452 30.5419C19.0981 25.3397 16.581 20.6775 13.1794 17.0659C12.237 17.9132 12.9617 19.5742 14.0671 21.6355L10.8207 20.3635C10.4881 19.6993 10.3091 19.0559 10.3122 18.4367C10.8279 17.3468 10.9738 16.4519 10.2874 15.9946L9.26627 17.6359C9.41731 16.0665 9.49025 14.599 8.5545 14.4568L7.92135 16.4519C7.60116 15.0123 6.9856 14.1148 5.94898 13.9933L6.4135 16.8595C6.50454 15.8477 3.88144 14.7532 3.93523 14.8799C4.98737 17.3721 7.08699 22.025 9.52077 23.8443C13.8752 26.6251 15.1451 29.0444 15.1591 31.6173L18.8452 30.5419Z" fill="white"/>
</mask>
<g mask="url(#mask26_221_47)">
<path fill-rule="evenodd" clip-rule="evenodd" d="M8.54663 18.9891C8.52387 18.5587 8.48766 18.1247 8.42249 17.7C8.378 17.4099 8.32213 17.1248 8.2523 16.8496C8.19126 16.6096 8.11988 16.3774 8.03763 16.1565C7.95021 15.9206 7.84935 15.6987 7.74072 15.4913C7.57881 15.184 7.39725 14.9114 7.19603 14.6843C6.84221 14.2855 6.43098 14.0269 5.95819 13.9695C5.95198 13.9684 5.94629 13.9726 5.94526 13.9788C5.94422 13.985 5.94836 13.9912 5.95457 13.9917C6.33166 14.0745 6.65237 14.2902 6.9286 14.6026C7.16344 14.8685 7.36207 15.2063 7.53381 15.5916C7.62588 15.7975 7.70761 16.0173 7.78727 16.2465C7.86176 16.4627 7.93211 16.6872 7.99884 16.9184C8.07591 17.1859 8.1473 17.4605 8.21247 17.7404C8.3092 18.1547 8.39559 18.5763 8.45973 18.9979C8.46232 19.0222 8.48352 19.0398 8.50784 19.0372C8.53163 19.0346 8.5487 19.0134 8.54663 18.9891Z" fill="#665135" fill-opacity="0.5608"/>
</g>
</g>
</g>
<path fill-rule="evenodd" clip-rule="evenodd" d="M18.9573 26.4395C16.8024 27.3157 13.8058 28.4077 12.2969 28.4527C11.9938 31.727 11.6798 33.0269 11.372 35.5838L18.6744 34.3258C19.2951 33.2163 19.1539 30.048 18.9573 26.4395Z" fill="#F68F27"/>
</g>
<defs>
<clipPath id="clip0_221_47">
<rect width="40" height="40" fill="white"/>
</clipPath>
</defs>
</svg>
