<svg width="40" height="40" viewBox="0 0 40 40" fill="none" xmlns="http://www.w3.org/2000/svg">
<g clip-path="url(#clip0_221_192)">
<path d="M40 20.0004C40 31.0454 31.0454 40 20 40C8.95417 40 0 31.0454 0 20.0004C0 8.95458 8.95417 0 20 0C31.0458 0 40 8.95458 40 20.0004Z" fill="#FFF9ED"/>
<mask id="mask0_221_192" style="mask-type:luminance" maskUnits="userSpaceOnUse" x="2" y="5" width="36" height="29">
<path d="M2.62296 5.90167H37.0626V33.5017H2.62296V5.90167Z" fill="white"/>
</mask>
<g mask="url(#mask0_221_192)">
<path fill-rule="evenodd" clip-rule="evenodd" d="M9.81371 7.12816C9.81371 7.12816 11.4128 6.6714 12.5004 6.65606C12.5004 6.65606 10.039 5.47777 7.02535 6.27776L6.94864 6.6565C6.94864 6.6565 5.98689 6.54559 5.27237 6.85332C5.27237 6.85332 3.73069 7.66076 3.46198 9.09242C3.46198 9.09242 3.18056 10.695 2.82023 11.5564C2.82023 11.5564 2.5559 12.6045 2.77552 13.5917C2.77552 13.5917 3.18757 14.4982 3.94417 14.7963C3.94417 14.7963 4.70997 15.0913 5.51303 14.5819L7.22787 14.5048L7.35674 14.119L7.63597 14.1308C7.63597 14.1308 7.80912 14.4706 7.50885 14.9957L7.34841 15.1917C7.34841 15.1917 7.95202 15.5152 8.45701 15.3736L8.71651 15.2245L9.47618 15.2337C9.47618 15.2337 10.0079 15.1163 10.6746 16.508L12.0642 18.9624C12.0642 18.9624 12.7743 20.5282 13.3508 21.3321C13.3508 21.3321 14.0057 21.9866 14.5238 22.3798L14.5896 23.2021C14.5896 23.2021 14.9481 23.4853 14.9074 24.0372C14.9074 24.0372 14.974 25.6998 15.1357 26.3942C15.1357 26.3942 15.5456 26.9417 15.5408 27.7158C15.5408 27.7158 15.507 29.0107 15.2445 29.7498C15.2445 29.7498 14.6834 31.106 14.5286 31.4883C14.5286 31.4883 15.7372 31.636 16.2829 31.5321C16.2829 31.5321 16.0949 32.0866 15.8275 32.8735C15.8275 32.8735 15.9103 33.2413 16.0081 33.4986L17.9622 33.3592L18.0368 32.8761C18.0368 32.8761 18.046 32.2458 18.4983 31.8192L18.3782 28.7381C18.3782 28.7381 18.654 27.5883 19.2698 27.3007C19.2698 27.3007 19.3391 26.7028 19.6135 26.2009C19.6135 26.2009 19.7735 24.6908 19.6806 23.8697C19.6806 23.8697 20.5507 22.2842 20.7918 21.7832C20.7918 21.7832 25.3919 22.0698 26.8433 21.834C26.8433 21.834 28.7146 21.3374 29.3585 21.0502C29.3585 21.0502 30.8897 22.8663 31.1702 23.2345L31.0015 27.9429C31.0015 27.9429 31.1764 28.408 31.9356 28.1862C31.9356 28.1862 31.9843 27.4467 32.516 27.1026L32.8671 25.6126L33.2529 22.9851C33.2529 22.9851 33.5777 22.2123 34.4653 23.7233L35.3017 25.2584L35.3587 28.3203C35.3587 28.3203 34.9094 29.478 35.4863 29.6222L36.629 29.5617L36.7246 28.3492L36.9784 27.8421L37.0634 23.1622L35.9636 21.8822L35.9654 18.848C35.9654 18.848 36.2402 17.2497 36.0004 16.6606C36.0004 16.6606 35.7067 15.3828 35.879 14.7139C35.879 14.7139 36.1806 13.5627 35.9641 12.7378C35.9641 12.7378 36.6654 10.763 35.2298 9.40102C35.2298 9.40102 34.0796 9.07138 33.7854 10.1217L34.7007 11.2951C34.7007 11.2951 35.012 12.5317 33.5527 12.3709C33.5527 12.3709 32.1149 10.8542 28.9193 11.4109L22.4041 12.5401C22.4041 12.5401 19.3216 13.1257 15.4601 11.2307C15.4601 11.2307 12.2935 9.96781 9.81371 7.12816Z" fill="#F4E8E0"/>
</g>
<path fill-rule="evenodd" clip-rule="evenodd" d="M6.94862 6.65652C6.94862 6.65652 5.90622 6.42244 5.37406 7.15054C5.37406 7.15054 4.98612 7.57925 4.87609 9.02844C4.87609 9.02844 4.45922 11.1663 4.49735 11.5389C4.49735 11.5389 4.46316 12.153 5.07072 12.6247C5.07072 12.6247 5.44551 12.8987 5.11149 13.3545C5.11149 13.3545 5.46743 13.4839 5.50118 13.7451L5.90447 14.4066L7.26643 14.4509L7.36769 14.0336L7.657 14.1247L7.65393 14.8204L7.52023 15.2246C7.52023 15.2246 8.01513 15.527 8.69458 15.2907C8.69458 15.2907 9.54761 14.7888 10.1034 15.6958L11.159 17.3663L12.0585 18.9032L12.1098 18.215L12.5341 18.1997L13.0422 17.5991L13.5099 17.6079C13.5099 17.6079 15.1559 14.4947 15.2887 11.3561C15.2887 11.3561 12.8629 9.8486 12.2145 9.348C12.2145 9.348 10.7176 7.88171 9.96975 7.30791L10.345 6.76348C10.345 6.76348 8.73885 6.55964 7.95113 7.54725C7.95113 7.54725 7.50971 6.92084 6.94862 6.65652Z" fill="#F68F27"/>
<path fill-rule="evenodd" clip-rule="evenodd" d="M2.81535 13.1249L2.94817 13.4896L3.22697 13.5041L3.45184 13.273L3.77096 13.3826L3.66839 13.9231L3.37776 14.034L3.3405 14.2703C3.3405 14.2703 3.10598 14.205 2.90522 13.7846C2.90522 13.7846 2.74785 13.4742 2.81535 13.1249Z" fill="#F68F27"/>
<path fill-rule="evenodd" clip-rule="evenodd" d="M3.66365 14.5346C3.66365 14.5346 4.33082 14.3654 5.17421 13.5895C5.17421 13.5895 5.49947 13.5154 5.18561 13.8477C5.18561 13.8477 4.63548 14.3715 4.36808 14.4868C4.36808 14.4868 4.12129 14.7108 3.66365 14.5346Z" fill="#F68F27"/>
<path fill-rule="evenodd" clip-rule="evenodd" d="M14.9346 30.6313L14.6154 31.3915C14.6154 31.3915 15.5408 31.6014 16.1606 31.5707L16.386 31.3016C16.386 31.3016 15.6114 31.3086 14.9346 30.6313Z" fill="#F68F27"/>
<mask id="mask1_221_192" style="mask-type:luminance" maskUnits="userSpaceOnUse" x="15" y="32" width="4" height="2">
<path d="M15.7525 32.834H18.1091V33.5017H15.7525V32.834Z" fill="white"/>
</mask>
<g mask="url(#mask1_221_192)">
<path fill-rule="evenodd" clip-rule="evenodd" d="M15.8358 32.9165C15.8358 32.9165 15.8406 33.3535 15.9941 33.4543C15.9941 33.4543 17.6445 33.3767 17.9018 33.3434L18.0118 32.8621L15.8358 32.9165Z" fill="#F68F27"/>
</g>
<path fill-rule="evenodd" clip-rule="evenodd" d="M31.0436 27.8342L31.0221 28.2117C31.0221 28.2117 31.4872 28.3725 31.9856 28.2879L32.0843 27.9149C32.0843 27.9149 31.4201 28.2555 31.0436 27.8342Z" fill="#F68F27"/>
<path fill-rule="evenodd" clip-rule="evenodd" d="M35.2101 29.1085C35.2101 29.1085 35.1847 29.4544 35.3719 29.6275L36.516 29.667L36.6532 29.3663C36.6532 29.3663 35.6472 29.4732 35.2101 29.1085Z" fill="#F68F27"/>
<path fill-rule="evenodd" clip-rule="evenodd" d="M34.0962 10.4649C34.0962 10.4649 36.384 9.72764 35.8396 12.5712C35.8396 12.5712 36.5913 10.5237 35.2583 9.39011C35.2583 9.39011 34.2865 8.96183 33.7657 10.0805C33.7657 10.0805 34.0051 10.1682 34.0962 10.4649Z" fill="#F68F27"/>
<path fill-rule="evenodd" clip-rule="evenodd" d="M7.38173 9.81664L8.034 8.78475L8.64682 8.75275L9.2009 7.88525C9.2009 7.88525 9.79443 8.03035 10.1267 8.89741C10.1267 8.89741 10.7728 9.62771 10.8241 11.2001L10.747 12.9202C10.747 12.9202 10.2135 14.5219 8.73975 15.3311C8.73975 15.3311 8.03006 15.5586 7.37253 15.1834L7.80825 13.6014C7.80825 13.6014 7.5597 13.0806 7.44003 12.3893L7.38173 9.81664Z" fill="#F4E8E0"/>
<path fill-rule="evenodd" clip-rule="evenodd" d="M14.6562 22.4442L14.6071 23.0807C14.6071 23.0807 14.9818 23.4823 15.0542 24.0482L15.2716 24.2888L16.5205 24.2788C16.5205 24.2788 16.6734 24.7763 16.9571 24.8837L17.0263 24.444L16.8843 24.1415L16.869 23.1417C16.869 23.1417 16.2982 22.7761 16.083 22.4929L16.0751 22.2794L14.9994 21.4167L15.3338 22.2623L15.3268 22.4324L14.6562 22.4442Z" fill="#DCC0A9"/>
<path fill-rule="evenodd" clip-rule="evenodd" d="M20.8632 20.9262C20.8632 20.9262 20.7597 21.4312 20.7742 21.7643C20.7742 21.7643 24.5414 22.1019 26.7481 21.8103C26.7481 21.8103 28.5006 21.2282 29.0573 21.0524L28.9894 20.7026C28.9894 20.7026 30.5775 19.1123 30.8822 16.8653C30.8822 16.8653 29.8152 19.0948 28.8162 19.8088L28.4327 20.27L27.4376 20.4352L26.8165 21.0112L26.8949 21.5127C26.8949 21.5127 23.2623 21.738 20.8632 20.9262Z" fill="#DCC0A9"/>
<path fill-rule="evenodd" clip-rule="evenodd" d="M29.5632 20.7991L30.6424 20.288C30.6424 20.288 31.5068 20.2599 31.8141 21.0538L33.6114 22.6796C33.6114 22.6796 33.2791 22.6765 33.0043 23.0434L32.9508 24.5978L32.8408 25.7244C32.8408 25.7244 32.3827 24.654 31.2934 24.2739L31.2136 23.2688L29.4926 21.027L29.5632 20.7991Z" fill="#DCC0A9"/>
<path fill-rule="evenodd" clip-rule="evenodd" d="M16.9957 25.6319L16.6358 26.3004L16.4898 28.7753L16.4446 31.1148L16.7392 30.5704L17.0342 30.0803L17.4577 29.9111L16.9207 29.8879L16.8786 29.3342L18.2765 27.9924C18.2765 27.9924 17.1355 27.0311 17.0864 27.0574C17.0373 27.0833 16.8519 26.7146 16.9163 26.2688L16.9957 25.6319Z" fill="#DCC0A9"/>
<path fill-rule="evenodd" clip-rule="evenodd" d="M35.2351 13.86C35.2351 13.86 34.4373 16.3529 33.3059 17.6675L32.1543 19.2066L33.6465 17.8661L34.2049 17.6421L34.1914 17.2932L34.7862 16.9868L35.2351 13.86Z" fill="#DCC0A9"/>
</g>
<defs>
<clipPath id="clip0_221_192">
<rect width="40" height="40" fill="white"/>
</clipPath>
</defs>
</svg>
