<svg width="40" height="40" viewBox="0 0 40 40" fill="none" xmlns="http://www.w3.org/2000/svg">
<g clip-path="url(#clip0_221_23)">
<path d="M40 20.0004C40 31.0454 31.0454 40 20 40C8.95417 40 0 31.0454 0 20.0004C0 8.95458 8.95417 0 20 0C31.0458 0 40 8.95458 40 20.0004Z" fill="#FFF9ED"/>
<path d="M8.56443 20.5964C10.1073 17.8709 11.4405 15.5986 11.5138 15.5705C11.5662 15.5505 16.0549 15.5443 21.4888 15.5566L31.3688 15.579L29.918 18.0983L28.4676 20.618L18.4971 20.6399C13.0139 20.6523 8.54401 20.6326 8.56443 20.5964Z" fill="#F4E8E0" fill-opacity="0.9961"/>
<path d="M14.8933 17.4476H25.0399C25.0804 17.4476 25.1193 17.4553 25.1567 17.4708C25.194 17.4862 25.2272 17.5085 25.2557 17.537C25.2846 17.5655 25.3066 17.5987 25.322 17.6361C25.3374 17.6738 25.3451 17.7127 25.3451 17.7532V18.441C25.3451 18.4815 25.3374 18.5208 25.322 18.5582C25.3066 18.5955 25.2846 18.6287 25.2557 18.6572C25.2272 18.6857 25.194 18.7081 25.1567 18.7235C25.1193 18.7389 25.0804 18.7466 25.0399 18.7466H14.8933C14.8529 18.7466 14.814 18.7389 14.7766 18.7235C14.7392 18.7081 14.7061 18.6857 14.6776 18.6572C14.649 18.6287 14.6271 18.5955 14.6117 18.5582C14.5963 18.5208 14.5882 18.4815 14.5882 18.441V17.7532C14.5882 17.7127 14.5963 17.6738 14.6117 17.6361C14.6271 17.5987 14.649 17.5655 14.6776 17.537C14.7061 17.5085 14.7392 17.4862 14.7766 17.4708C14.814 17.4553 14.8529 17.4476 14.8933 17.4476Z" fill="#665135" fill-opacity="0.9961"/>
<mask id="mask0_221_23" style="mask-type:luminance" maskUnits="userSpaceOnUse" x="8" y="20" width="21" height="15">
<path d="M8.5246 20.5313H28.5495V34.9235H8.5246V20.5313Z" fill="white"/>
</mask>
<g mask="url(#mask0_221_23)">
<path d="M8.59723 20.5425H28.5085V34.8888H8.59723V20.5425Z" fill="#F68F27" fill-opacity="0.9961"/>
</g>
<mask id="mask1_221_23" style="mask-type:luminance" maskUnits="userSpaceOnUse" x="28" y="15" width="4" height="20">
<path d="M28.4507 15.5004H31.4101V34.9235H28.4507V15.5004Z" fill="white"/>
</mask>
<g mask="url(#mask1_221_23)">
<path d="M28.455 27.7066V20.4681L29.7467 18.224C30.4568 16.9898 31.1408 15.7844 31.2325 15.6338C31.3944 15.3671 31.3709 15.6245 31.3712 22.6888L31.3716 29.945L29.9528 32.4053C29.1725 33.7586 28.5163 34.8838 28.4944 34.9054C28.4728 34.9273 28.455 31.6875 28.455 27.7066Z" fill="#665135" fill-opacity="0.9961"/>
</g>
<mask id="mask2_221_23" style="mask-type:luminance" maskUnits="userSpaceOnUse" x="18" y="4" width="13" height="13">
<path d="M18.7836 4.59015H30.2264V16.4869H18.7836V4.59015Z" fill="white"/>
</mask>
<g mask="url(#mask2_221_23)">
<path d="M25.2154 4.59015C25.1599 6.59619 29.7789 5.99854 30.2016 6.76997C30.3546 7.04857 27.201 10.28 26.8519 10.8768C24.044 15.6746 26.9016 18.0448 21.0993 15.2943C20.6392 15.0762 18.8262 14.8735 18.8567 14.4038C19.0039 12.1111 24.0332 7.05126 25.2154 4.59015Z" fill="#665135"/>
</g>
<path d="M25.2739 8.80488C25.3136 8.83301 25.3509 8.86383 25.3856 8.89813C25.4207 8.93204 25.4534 8.96941 25.4835 9.0091C25.5136 9.04918 25.5409 9.09195 25.5656 9.13742C25.5906 9.18289 25.6126 9.23067 25.6318 9.28115C25.6511 9.33163 25.6677 9.38442 25.6812 9.43913C25.695 9.49424 25.7054 9.55126 25.7135 9.61022C25.7212 9.66918 25.7263 9.72967 25.7282 9.7921C25.7301 9.85452 25.729 9.91849 25.7251 9.98361C25.7212 10.0487 25.7143 10.115 25.7047 10.1824C25.6947 10.2499 25.6819 10.3181 25.6665 10.387C25.6511 10.456 25.6326 10.5254 25.6114 10.5951C25.5902 10.6653 25.5663 10.735 25.5398 10.8051C25.5132 10.8753 25.4839 10.945 25.4523 11.0144C25.4203 11.0841 25.3864 11.1531 25.3498 11.2217C25.3132 11.2899 25.2743 11.3577 25.233 11.4244C25.1918 11.491 25.1486 11.5565 25.1036 11.6205C25.0585 11.6848 25.0115 11.7477 24.9625 11.8089C24.9136 11.8698 24.8631 11.9291 24.8111 11.9869C24.7591 12.0444 24.7055 12.0998 24.6508 12.153C24.5961 12.2066 24.5402 12.2575 24.4832 12.306C24.4265 12.3549 24.3687 12.4008 24.3102 12.4443C24.2516 12.4879 24.1926 12.5283 24.1329 12.5661C24.0732 12.6042 24.0135 12.6389 23.9533 12.6709C23.8932 12.7029 23.8331 12.7314 23.7734 12.7572C23.7133 12.7827 23.6536 12.805 23.5942 12.8243C23.5353 12.8435 23.4763 12.859 23.4185 12.8717C23.3603 12.884 23.3033 12.8929 23.247 12.8986C23.1908 12.904 23.1357 12.9063 23.0817 12.9052C23.0278 12.9037 22.9754 12.899 22.9241 12.8909C22.8733 12.8828 22.8239 12.8713 22.7762 12.8563C22.7284 12.8416 22.6825 12.8231 22.6386 12.8015C22.595 12.78 22.553 12.7553 22.5134 12.7272C22.4741 12.6994 22.4367 12.6682 22.4016 12.6343C22.3665 12.6 22.3342 12.563 22.3041 12.5229C22.2741 12.4829 22.2467 12.4401 22.2217 12.3946C22.197 12.3495 22.175 12.3014 22.1558 12.2509C22.1361 12.2004 22.1199 12.148 22.1061 12.0929C22.0926 12.0378 22.0818 11.9808 22.0741 11.9218C22.066 11.8629 22.0614 11.8024 22.0591 11.7399C22.0571 11.6775 22.0583 11.6139 22.0621 11.5484C22.0664 11.4833 22.0729 11.417 22.0829 11.3496C22.0926 11.2822 22.1053 11.214 22.1211 11.145C22.1365 11.076 22.155 11.0067 22.1762 10.9369C22.1974 10.8672 22.2213 10.797 22.2479 10.7269C22.2745 10.6568 22.3034 10.587 22.3353 10.5177C22.3669 10.4479 22.4012 10.379 22.4378 10.3104C22.4744 10.2422 22.5134 10.1743 22.5542 10.1077C22.5954 10.041 22.6386 9.97552 22.6837 9.91155C22.7291 9.8472 22.7762 9.78439 22.8247 9.72351C22.8736 9.66224 22.9241 9.6029 22.9761 9.5451C23.0282 9.48768 23.0817 9.4322 23.1364 9.37902C23.1912 9.32546 23.247 9.2746 23.3041 9.22604C23.3611 9.17749 23.4189 9.13125 23.4775 9.08771C23.5356 9.04455 23.595 9.00371 23.6543 8.96595C23.7141 8.92818 23.7738 8.89312 23.8339 8.86114C23.894 8.82954 23.9541 8.80064 24.0142 8.77482C24.074 8.74939 24.1337 8.72704 24.193 8.70777C24.2524 8.68889 24.3109 8.67309 24.3691 8.66038C24.4273 8.64805 24.4843 8.63918 24.5406 8.6334C24.5968 8.62801 24.6519 8.6257 24.7059 8.62724C24.7598 8.62839 24.8122 8.63302 24.8631 8.64111C24.9144 8.6492 24.9637 8.66076 25.0115 8.67579C25.0589 8.69082 25.1047 8.70893 25.1486 8.73051C25.1926 8.75209 25.2342 8.77675 25.2739 8.80488Z" fill="#F4E8E0"/>
<path d="M21.9703 31.0382L20.0656 31.247L18.6241 32.4863L17.1298 31.2848L15.2359 31.1399L15.0274 29.2318L13.7905 27.7875L14.9896 26.2905L15.1345 24.3931L17.0392 24.1843L18.4808 22.9451L19.9747 24.1465L21.869 24.2914L22.0774 26.1996L23.3144 27.6438L22.1148 29.1408L21.9703 31.0382Z" fill="#665135"/>
<path d="M23.3674 10.4607C23.0665 10.4429 22.7794 10.6772 22.6696 11.0564C22.6623 11.081 22.6603 11.1061 22.663 11.1315C22.6657 11.1573 22.673 11.1812 22.6854 11.204C22.6973 11.2263 22.7135 11.246 22.7335 11.2621C22.7532 11.2783 22.7755 11.2899 22.7998 11.2976C23.1374 11.4001 23.478 11.5843 23.8375 11.7307C23.8614 11.7407 23.8861 11.7454 23.9119 11.7454C23.9377 11.745 23.9624 11.74 23.9863 11.7299C24.0101 11.7199 24.031 11.7057 24.0491 11.6872C24.0672 11.6691 24.081 11.6479 24.0907 11.624C24.1007 11.5997 24.1053 11.575 24.1053 11.5492C24.1053 11.523 24.0999 11.4984 24.0899 11.4745C24.0799 11.4506 24.066 11.4294 24.0475 11.4113C24.029 11.3932 24.0078 11.3793 23.9839 11.3693C23.9412 11.3519 23.8895 11.3307 23.846 11.3119C23.9866 11.2672 24.1327 11.2174 24.2625 11.192C24.288 11.1874 24.3115 11.1778 24.3331 11.1635C24.3542 11.1492 24.3724 11.1311 24.387 11.1099C24.4013 11.0884 24.4109 11.0652 24.4163 11.0398C24.4213 11.0144 24.4213 10.9889 24.4167 10.9635C24.4117 10.9385 24.402 10.915 24.3878 10.8934C24.3735 10.8718 24.3558 10.8537 24.3342 10.8391C24.313 10.8248 24.2895 10.8152 24.2645 10.8098C24.239 10.8048 24.214 10.8044 24.1886 10.8094C24.0229 10.8414 23.878 10.8934 23.7285 10.9412C23.7265 10.8706 23.7631 10.7851 23.7377 10.7231C23.6738 10.5693 23.5181 10.4695 23.3674 10.4607ZM23.3447 10.8498C23.372 10.8514 23.367 10.8456 23.3778 10.8722C23.3878 10.8957 23.3859 10.9851 23.3508 11.1057C23.2788 11.0745 23.2114 11.0452 23.1366 11.0167C23.216 10.9107 23.3061 10.8475 23.3447 10.8498Z" fill="#665135"/>
<path d="M24.3699 9.7121C24.2054 9.65892 24.015 9.65122 23.8455 9.74832C23.6759 9.84542 23.5707 10.0678 23.6031 10.3182C23.6073 10.3506 23.6189 10.3803 23.6378 10.4069C23.6567 10.4334 23.6809 10.4539 23.7102 10.4681C24.032 10.6253 24.3537 10.7825 24.6755 10.9398C24.6986 10.9509 24.7233 10.9575 24.7491 10.959C24.7749 10.9606 24.7999 10.9571 24.8242 10.9486C24.8489 10.9402 24.8705 10.9274 24.8897 10.9101C24.9094 10.8928 24.9244 10.8727 24.9356 10.8492C24.9471 10.8261 24.9533 10.8018 24.9548 10.776C24.9564 10.7502 24.9529 10.7251 24.9444 10.7009C24.9363 10.6762 24.9236 10.6546 24.9063 10.635C24.8893 10.6157 24.8693 10.6007 24.8462 10.5891C24.771 10.5525 24.6959 10.5159 24.6208 10.4793C24.6535 10.4419 24.7021 10.4107 24.7233 10.3683C24.7714 10.2712 24.7822 10.1575 24.7537 10.0616C24.6963 9.86931 24.5344 9.76527 24.3699 9.7121ZM24.2505 10.0828C24.3314 10.1086 24.3784 10.1637 24.3807 10.1726C24.3822 10.1768 24.3853 10.1741 24.3757 10.1938C24.3657 10.2134 24.3352 10.2539 24.2666 10.3024C24.2663 10.3036 24.2663 10.3047 24.2659 10.3059C24.1811 10.2647 24.0967 10.223 24.0119 10.1818C24.0216 10.1545 24.0181 10.099 24.0385 10.0874C24.0774 10.0651 24.1695 10.0566 24.2505 10.0828Z" fill="#665135"/>
</g>
<defs>
<clipPath id="clip0_221_23">
<rect width="40" height="40" fill="white"/>
</clipPath>
</defs>
</svg>
