<svg width="32" height="32" viewBox="0 0 32 32" fill="none" xmlns="http://www.w3.org/2000/svg">
<path fill-rule="evenodd" clip-rule="evenodd" d="M10 8C10 6.4087 10.6322 4.88258 11.7574 3.75736C12.8826 2.63214 14.4087 2 16 2C17.5913 2 19.1175 2.63214 20.2427 3.75736C21.3679 4.88258 22 6.4087 22 8C22 9.5913 21.3679 11.1174 20.2427 12.2426C19.1175 13.3679 17.5913 14 16 14C14.4087 14 12.8826 13.3679 11.7574 12.2426C10.6322 11.1174 10 9.5913 10 8ZM5.00138 26.8067C5.04634 23.9193 6.2249 21.1654 8.28266 19.1394C10.3404 17.1135 13.1123 15.9779 16 15.9779C18.8878 15.9779 21.6597 17.1135 23.7174 19.1394C25.7752 21.1654 26.9538 23.9193 26.9987 26.8067C27.0022 27.001 26.9489 27.1922 26.8454 27.3568C26.7419 27.5214 26.5927 27.6522 26.416 27.7333C23.1483 29.2316 19.5949 30.0049 16 30C12.2854 30 8.75605 29.1893 5.58405 27.7333C5.40736 27.6522 5.25815 27.5214 5.15466 27.3568C5.05118 27.1922 4.99791 27.001 5.00138 26.8067Z" fill="#B3B9C6"/>
</svg>
