<svg width="33" height="32" viewBox="0 0 33 32" fill="none" xmlns="http://www.w3.org/2000/svg">
<path d="M16.1933 27.88L16.184 27.876L16.1546 27.86C15.983 27.7656 15.8128 27.6687 15.644 27.5693C13.6144 26.3633 11.7177 24.9466 9.98529 23.3427C6.91729 20.48 3.66663 16.232 3.66663 11C3.66663 7.096 6.95196 4 10.9173 4C12.0196 3.9946 13.109 4.23779 14.1044 4.71148C15.0998 5.18516 15.9756 5.87716 16.6666 6.736C17.3578 5.87698 18.2338 5.18488 19.2295 4.71119C20.2251 4.23749 21.3147 3.9944 22.4173 4C26.3813 4 29.6666 7.096 29.6666 11C29.6666 16.2333 26.416 20.4813 23.348 23.3413C21.6156 24.9453 19.7189 26.362 17.6893 27.568C17.5205 27.6678 17.3502 27.7651 17.1786 27.86L17.1493 27.876L17.14 27.8813L17.136 27.8827C16.9914 27.9593 16.8302 27.9993 16.6666 27.9993C16.503 27.9993 16.3419 27.9593 16.1973 27.8827L16.1933 27.88Z" fill="#B3B9C6"/>
</svg>
