<svg width="40" height="40" viewBox="0 0 40 40" fill="none" xmlns="http://www.w3.org/2000/svg">
<path d="M7.5 10.625C7.5 8.80164 8.22433 7.05295 9.51364 5.76364C10.803 4.47433 12.5516 3.75 14.375 3.75C16.1984 3.75 17.947 4.47433 19.2364 5.76364C20.5257 7.05295 21.25 8.80164 21.25 10.625C21.25 12.4484 20.5257 14.197 19.2364 15.4864C17.947 16.7757 16.1984 17.5 14.375 17.5C12.5516 17.5 10.803 16.7757 9.51364 15.4864C8.22433 14.197 7.5 12.4484 7.5 10.625ZM23.75 14.375C23.75 13.6363 23.8955 12.9049 24.1782 12.2224C24.4609 11.5399 24.8752 10.9199 25.3975 10.3975C25.9199 9.87519 26.5399 9.46086 27.2224 9.17818C27.9049 8.89549 28.6363 8.75 29.375 8.75C30.1137 8.75 30.8451 8.89549 31.5276 9.17818C32.2101 9.46086 32.8301 9.87519 33.3525 10.3975C33.8748 10.9199 34.2891 11.5399 34.5718 12.2224C34.8545 12.9049 35 13.6363 35 14.375C35 15.8668 34.4074 17.2976 33.3525 18.3525C32.2976 19.4074 30.8668 20 29.375 20C27.8832 20 26.4524 19.4074 25.3975 18.3525C24.3426 17.2976 23.75 15.8668 23.75 14.375ZM2.5 31.875C2.5 28.7256 3.75111 25.7051 5.97811 23.4781C8.2051 21.2511 11.2256 20 14.375 20C17.5244 20 20.5449 21.2511 22.7719 23.4781C24.9989 25.7051 26.25 28.7256 26.25 31.875V31.88L26.2483 32.0783C26.2448 32.2903 26.1874 32.4979 26.0816 32.6816C25.9757 32.8652 25.8249 33.019 25.6433 33.1283C22.242 35.1766 18.3454 36.2561 14.375 36.25C10.255 36.25 6.39833 35.11 3.10833 33.1283C2.92642 33.0192 2.77528 32.8655 2.66914 32.6818C2.56301 32.4981 2.50538 32.2905 2.50167 32.0783L2.5 31.875ZM28.75 31.88L28.7483 32.12C28.739 32.6755 28.6064 33.222 28.36 33.72C31.2695 33.8994 34.1757 33.3194 36.7933 32.0367C36.9958 31.9377 37.1677 31.7859 37.2909 31.5972C37.4141 31.4086 37.4841 31.1901 37.4933 30.965C37.5522 29.5671 37.249 28.1776 36.6132 26.9313C35.9774 25.6849 35.0305 24.6238 33.8642 23.8508C32.698 23.0779 31.3519 22.6191 29.9563 22.5191C28.5607 22.4191 27.1629 22.6812 25.8983 23.28C27.7537 25.761 28.7537 28.777 28.7483 31.875L28.75 31.88Z" fill="#F68F27"/>
</svg>
