<svg width="33" height="33" viewBox="0 0 33 33" fill="none" xmlns="http://www.w3.org/2000/svg">
<path d="M15.7933 5.62C15.9808 5.43273 16.235 5.32755 16.5 5.32755C16.765 5.32755 17.0192 5.43273 17.2067 5.62L28.7933 17.2067C28.8849 17.3049 28.9953 17.3837 29.1179 17.4384C29.2406 17.493 29.373 17.5224 29.5073 17.5248C29.6416 17.5272 29.7749 17.5025 29.8994 17.4522C30.024 17.4019 30.1371 17.327 30.232 17.232C30.327 17.1371 30.4019 17.024 30.4521 16.8995C30.5024 16.7749 30.5271 16.6416 30.5248 16.5073C30.5224 16.373 30.493 16.2406 30.4384 16.1179C30.3837 15.9953 30.3049 15.8849 30.2067 15.7933L18.6213 4.20667C18.3427 3.92809 18.012 3.7071 17.648 3.55634C17.2841 3.40557 16.894 3.32797 16.5 3.32797C16.106 3.32797 15.7159 3.40557 15.3519 3.55634C14.9879 3.7071 14.6572 3.92809 14.3787 4.20667L2.79199 15.7933C2.60991 15.982 2.50924 16.2347 2.51164 16.4969C2.51404 16.7591 2.61933 17.0098 2.80482 17.1952C2.99032 17.3805 3.24118 17.4855 3.50338 17.4877C3.76558 17.4898 4.01814 17.3889 4.20665 17.2067L15.7933 5.62Z" fill="#667085"/>
<path d="M16.5 7.74267L27.3787 18.6213C27.4187 18.6613 27.4587 18.6987 27.5 18.736V27C27.5 28.38 26.38 29.5 25 29.5H20.5C20.2348 29.5 19.9804 29.3946 19.7929 29.2071C19.6054 29.0196 19.5 28.7652 19.5 28.5V22.5C19.5 22.2348 19.3946 21.9804 19.2071 21.7929C19.0196 21.6054 18.7652 21.5 18.5 21.5H14.5C14.2348 21.5 13.9804 21.6054 13.7929 21.7929C13.6054 21.9804 13.5 22.2348 13.5 22.5V28.5C13.5 28.7652 13.3946 29.0196 13.2071 29.2071C13.0196 29.3946 12.7652 29.5 12.5 29.5H8C7.33696 29.5 6.70107 29.2366 6.23223 28.7678C5.76339 28.2989 5.5 27.663 5.5 27V18.736C5.54148 18.6989 5.58194 18.6607 5.62133 18.6213L16.5 7.74001V7.74267Z" fill="#667085"/>
</svg>
