<svg width="40" height="40" viewBox="0 0 40 40" fill="none" xmlns="http://www.w3.org/2000/svg">
<path d="M5.625 5C3.89833 5 2.5 6.4 2.5 8.125V9.375C2.5 11.1017 3.9 12.5 5.625 12.5H34.375C36.1 12.5 37.5 11.1 37.5 9.375V8.125C37.5 6.39833 36.1 5 34.375 5H5.625Z" fill="#F68F27"/>
<path fill-rule="evenodd" clip-rule="evenodd" d="M5.14502 15L6.04502 30.2933C6.11981 31.5659 6.67784 32.7619 7.60504 33.6367C8.53224 34.5116 9.75858 34.9992 11.0334 35H28.9617C30.237 35.0001 31.4642 34.5128 32.3921 33.6379C33.32 32.7629 33.8785 31.5665 33.9534 30.2933L34.855 15H5.14502ZM15.4167 21.25C15.4167 20.9185 15.5484 20.6005 15.7828 20.3661C16.0172 20.1317 16.3352 20 16.6667 20H23.3334C23.6649 20 23.9828 20.1317 24.2172 20.3661C24.4517 20.6005 24.5834 20.9185 24.5834 21.25C24.5834 21.5815 24.4517 21.8995 24.2172 22.1339C23.9828 22.3683 23.6649 22.5 23.3334 22.5H16.6667C16.3352 22.5 16.0172 22.3683 15.7828 22.1339C15.5484 21.8995 15.4167 21.5815 15.4167 21.25Z" fill="#F68F27"/>
</svg>
