<svg width="33" height="32" viewBox="0 0 33 32" fill="none" xmlns="http://www.w3.org/2000/svg">
<path d="M16.3334 10C15.5377 10 14.7747 10.3161 14.2121 10.8787C13.6494 11.4413 13.3334 12.2044 13.3334 13C13.3334 13.7956 13.6494 14.5587 14.2121 15.1213C14.7747 15.6839 15.5377 16 16.3334 16C17.129 16 17.8921 15.6839 18.4547 15.1213C19.0173 14.5587 19.3334 13.7956 19.3334 13C19.3334 12.2044 19.0173 11.4413 18.4547 10.8787C17.8921 10.3161 17.129 10 16.3334 10Z" fill="#B3B9C6"/>
<path fill-rule="evenodd" clip-rule="evenodd" d="M2.33337 6.5C2.33337 5.11867 3.45337 4 4.83337 4H27.8334C29.2134 4 30.3334 5.12 30.3334 6.5V19.5C30.3334 20.8813 29.2134 22 27.8334 22H4.83337C4.50507 22 4.17998 21.9353 3.87667 21.8097C3.57335 21.6841 3.29775 21.4999 3.06561 21.2678C2.83346 21.0356 2.64931 20.76 2.52368 20.4567C2.39804 20.1534 2.33337 19.8283 2.33337 19.5V6.5ZM11.3334 13C11.3334 11.6739 11.8602 10.4021 12.7978 9.46447C13.7355 8.52678 15.0073 8 16.3334 8C17.6595 8 18.9312 8.52678 19.8689 9.46447C20.8066 10.4021 21.3334 11.6739 21.3334 13C21.3334 14.3261 20.8066 15.5979 19.8689 16.5355C18.9312 17.4732 17.6595 18 16.3334 18C15.0073 18 13.7355 17.4732 12.7978 16.5355C11.8602 15.5979 11.3334 14.3261 11.3334 13ZM25.3334 12C25.0682 12 24.8138 12.1054 24.6263 12.2929C24.4387 12.4804 24.3334 12.7348 24.3334 13V13.0107C24.3334 13.5627 24.7814 14.0107 25.3334 14.0107H25.344C25.6093 14.0107 25.8636 13.9053 26.0511 13.7178C26.2387 13.5302 26.344 13.2759 26.344 13.0107V13C26.344 12.7348 26.2387 12.4804 26.0511 12.2929C25.8636 12.1054 25.6093 12 25.344 12H25.3334ZM6.33337 13C6.33337 12.7348 6.43873 12.4804 6.62627 12.2929C6.8138 12.1054 7.06816 12 7.33337 12H7.34404C7.60926 12 7.86361 12.1054 8.05115 12.2929C8.23868 12.4804 8.34404 12.7348 8.34404 13V13.0107C8.34404 13.2759 8.23868 13.5302 8.05115 13.7178C7.86361 13.9053 7.60926 14.0107 7.34404 14.0107H7.33337C7.06816 14.0107 6.8138 13.9053 6.62627 13.7178C6.43873 13.5302 6.33337 13.2759 6.33337 13.0107V13Z" fill="#B3B9C6"/>
<path d="M3.33337 24C3.06816 24 2.8138 24.1054 2.62627 24.2929C2.43873 24.4804 2.33337 24.7348 2.33337 25C2.33337 25.2652 2.43873 25.5196 2.62627 25.7071C2.8138 25.8946 3.06816 26 3.33337 26C10.5334 26 17.5067 26.9627 24.1334 28.7667C25.72 29.1987 27.3334 28.0227 27.3334 26.34V25C27.3334 24.7348 27.228 24.4804 27.0405 24.2929C26.8529 24.1054 26.5986 24 26.3334 24H3.33337Z" fill="#B3B9C6"/>
</svg>
